<?xml version="1.0" encoding="UTF-8" standalone="no"?>
<!DOCTYPE svg PUBLIC "-//W3C//DTD SVG 1.1//EN"
 "http://www.w3.org/Graphics/SVG/1.1/DTD/svg11.dtd">
<!-- Generated by graphviz version 14.0.4 (20251115.1723)
 -->
<!-- Title: ReachabilityGraph Pages: 1 -->
<svg width="214pt" height="346pt"
 viewBox="0.00 0.00 214.00 346.00" xmlns="http://www.w3.org/2000/svg" xmlns:xlink="http://www.w3.org/1999/xlink">
<g id="graph0" class="graph" transform="scale(1 1) rotate(0) translate(4 341.75)">
<title>ReachabilityGraph</title>
<polygon fill="white" stroke="none" points="-4,4 -4,-341.75 209.75,-341.75 209.75,4 -4,4"/>
<text xml:space="preserve" text-anchor="middle" x="102.88" y="-320.45" font-family="Times,serif" font-size="14.00">Producer&#45;Consumer &#45; Reachability</text>
<!-- M0 -->
<g id="node1" class="node">
<title>M0</title>
<polygon fill="lightblue" stroke="black" points="184,-313.25 21.75,-313.25 21.75,-273.75 184,-273.75 184,-313.25"/>
<text xml:space="preserve" text-anchor="middle" x="102.88" y="-295.95" font-family="Arial" font-size="14.00">M0 (initial)</text>
<text xml:space="preserve" text-anchor="middle" x="102.88" y="-280.2" font-family="Arial" font-size="14.00">{buffer:0, empty_slots:3}</text>
</g>
<!-- M1 -->
<g id="node2" class="node">
<title>M1</title>
<polygon fill="white" stroke="black" points="184,-222 21.75,-222 21.75,-182.5 184,-182.5 184,-222"/>
<text xml:space="preserve" text-anchor="middle" x="102.88" y="-204.7" font-family="Arial" font-size="14.00">M1</text>
<text xml:space="preserve" text-anchor="middle" x="102.88" y="-188.95" font-family="Arial" font-size="14.00">{buffer:1, empty_slots:2}</text>
</g>
<!-- M0&#45;&gt;M1 -->
<g id="edge1" class="edge">
<title>M0&#45;&gt;M1</title>
<path fill="none" stroke="black" d="M79.87,-273.53C75.09,-268.31 70.72,-262.28 68.12,-255.75 64.73,-247.23 67.3,-238.66 72.28,-230.98"/>
<polygon fill="black" stroke="black" points="74.89,-233.32 78.37,-223.31 69.41,-228.96 74.89,-233.32"/>
<text xml:space="preserve" text-anchor="middle" x="92.5" y="-242.45" font-family="Arial" font-size="14.00">produce</text>
</g>
<!-- M1&#45;&gt;M0 -->
<g id="edge2" class="edge">
<title>M1&#45;&gt;M0</title>
<path fill="none" stroke="black" d="M112.08,-222.04C115.88,-231.98 118.96,-244.43 116.88,-255.75 116.45,-258.06 115.89,-260.41 115.23,-262.75"/>
<polygon fill="black" stroke="black" points="111.99,-261.4 112.13,-271.99 118.63,-263.63 111.99,-261.4"/>
<text xml:space="preserve" text-anchor="middle" x="145.3" y="-242.45" font-family="Arial" font-size="14.00">consume</text>
</g>
<!-- M2 -->
<g id="node3" class="node">
<title>M2</title>
<polygon fill="white" stroke="black" points="184,-130.75 21.75,-130.75 21.75,-91.25 184,-91.25 184,-130.75"/>
<text xml:space="preserve" text-anchor="middle" x="102.88" y="-113.45" font-family="Arial" font-size="14.00">M2</text>
<text xml:space="preserve" text-anchor="middle" x="102.88" y="-97.7" font-family="Arial" font-size="14.00">{buffer:2, empty_slots:1}</text>
</g>
<!-- M1&#45;&gt;M2 -->
<g id="edge3" class="edge">
<title>M1&#45;&gt;M2</title>
<path fill="none" stroke="black" d="M79.87,-182.28C75.09,-177.06 70.72,-171.03 68.12,-164.5 64.73,-155.98 67.3,-147.41 72.28,-139.73"/>
<polygon fill="black" stroke="black" points="74.89,-142.07 78.37,-132.06 69.41,-137.71 74.89,-142.07"/>
<text xml:space="preserve" text-anchor="middle" x="92.5" y="-151.2" font-family="Arial" font-size="14.00">produce</text>
</g>
<!-- M2&#45;&gt;M1 -->
<g id="edge4" class="edge">
<title>M2&#45;&gt;M1</title>
<path fill="none" stroke="black" d="M111.64,-131.07C113.79,-136.65 115.79,-142.84 116.88,-148.75 118.26,-156.27 117.36,-164.28 115.49,-171.73"/>
<polygon fill="black" stroke="black" points="112.24,-170.43 112.54,-181.02 118.91,-172.55 112.24,-170.43"/>
<text xml:space="preserve" text-anchor="middle" x="145.3" y="-151.2" font-family="Arial" font-size="14.00">consume</text>
</g>
<!-- M3 -->
<g id="node4" class="node">
<title>M3</title>
<polygon fill="white" stroke="black" points="184,-39.5 21.75,-39.5 21.75,0 184,0 184,-39.5"/>
<text xml:space="preserve" text-anchor="middle" x="102.88" y="-22.2" font-family="Arial" font-size="14.00">M3</text>
<text xml:space="preserve" text-anchor="middle" x="102.88" y="-6.45" font-family="Arial" font-size="14.00">{buffer:3, empty_slots:0}</text>
</g>
<!-- M2&#45;&gt;M3 -->
<g id="edge5" class="edge">
<title>M2&#45;&gt;M3</title>
<path fill="none" stroke="black" d="M79.87,-91.03C75.09,-85.81 70.72,-79.78 68.12,-73.25 64.73,-64.73 67.3,-56.16 72.28,-48.48"/>
<polygon fill="black" stroke="black" points="74.89,-50.82 78.37,-40.81 69.41,-46.46 74.89,-50.82"/>
<text xml:space="preserve" text-anchor="middle" x="92.5" y="-59.95" font-family="Arial" font-size="14.00">produce</text>
</g>
<!-- M3&#45;&gt;M2 -->
<g id="edge6" class="edge">
<title>M3&#45;&gt;M2</title>
<path fill="none" stroke="black" d="M112.08,-39.54C115.88,-49.48 118.96,-61.93 116.88,-73.25 116.45,-75.56 115.89,-77.91 115.23,-80.25"/>
<polygon fill="black" stroke="black" points="111.99,-78.9 112.13,-89.49 118.63,-81.13 111.99,-78.9"/>
<text xml:space="preserve" text-anchor="middle" x="145.3" y="-59.95" font-family="Arial" font-size="14.00">consume</text>
</g>
</g>
</svg>
