<?xml version="1.0" encoding="UTF-8" standalone="no"?>
<!DOCTYPE svg PUBLIC "-//W3C//DTD SVG 1.1//EN"
 "http://www.w3.org/Graphics/SVG/1.1/DTD/svg11.dtd">
<!-- Generated by graphviz version 14.0.4 (20251115.1723)
 -->
<!-- Title: PetriNet Pages: 1 -->
<svg width="449pt" height="199pt"
 viewBox="0.00 0.00 449.00 199.00" xmlns="http://www.w3.org/2000/svg" xmlns:xlink="http://www.w3.org/1999/xlink">
<g id="graph0" class="graph" transform="scale(1 1) rotate(0) translate(4 194.96)">
<title>PetriNet</title>
<polygon fill="white" stroke="none" points="-4,4 -4,-194.96 445.18,-194.96 445.18,4 -4,4"/>
<text xml:space="preserve" text-anchor="middle" x="220.59" y="-173.66" font-family="Times,serif" font-size="14.00">Producer&#45;Consumer &#45; Structure</text>
<!-- buffer -->
<g id="node1" class="node">
<title>buffer</title>
<ellipse fill="white" stroke="black" cx="35.71" cy="-35.71" rx="35.71" ry="35.71"/>
<text xml:space="preserve" text-anchor="middle" x="35.71" y="-38.16" font-family="Arial" font-size="14.00">buffer</text>
<text xml:space="preserve" text-anchor="middle" x="35.71" y="-22.41" font-family="Arial" font-size="14.00">0/3</text>
</g>
<!-- consume -->
<g id="node4" class="node">
<title>consume</title>
<polygon fill="lightgray" stroke="black" points="178.92,-98.71 107.42,-98.71 107.42,-62.71 178.92,-62.71 178.92,-98.71"/>
<text xml:space="preserve" text-anchor="middle" x="143.17" y="-75.28" font-family="Arial" font-size="14.00">consume</text>
</g>
<!-- buffer&#45;&gt;consume -->
<g id="edge3" class="edge">
<title>buffer&#45;&gt;consume</title>
<path fill="none" stroke="black" d="M68.92,-49.45C77.73,-53.21 87.43,-57.35 96.82,-61.36"/>
<polygon fill="black" stroke="black" points="95.25,-64.5 105.82,-65.2 98,-58.06 95.25,-64.5"/>
</g>
<!-- empty_slots -->
<g id="node2" class="node">
<title>empty_slots</title>
<ellipse fill="lightcoral" stroke="black" cx="277.67" cy="-103.71" rx="62.76" ry="62.76"/>
<text xml:space="preserve" text-anchor="middle" x="277.67" y="-106.16" font-family="Arial" font-size="14.00">empty_slots</text>
<text xml:space="preserve" text-anchor="middle" x="277.67" y="-90.41" font-family="Arial" font-size="14.00">3/3</text>
</g>
<!-- produce -->
<g id="node3" class="node">
<title>produce</title>
<polygon fill="lightgreen" stroke="black" points="441.18,-75.71 376.43,-75.71 376.43,-39.71 441.18,-39.71 441.18,-75.71"/>
<text xml:space="preserve" text-anchor="middle" x="408.8" y="-52.28" font-family="Arial" font-size="14.00">produce</text>
</g>
<!-- empty_slots&#45;&gt;produce -->
<g id="edge1" class="edge">
<title>empty_slots&#45;&gt;produce</title>
<path fill="none" stroke="black" d="M337.19,-82.86C346.68,-79.48 356.35,-76.04 365.36,-72.83"/>
<polygon fill="black" stroke="black" points="366.3,-76.21 374.54,-69.56 363.95,-69.62 366.3,-76.21"/>
</g>
<!-- produce&#45;&gt;buffer -->
<g id="edge2" class="edge">
<title>produce&#45;&gt;buffer</title>
<path fill="none" stroke="black" d="M375.95,-42.66C364.95,-38.21 352.39,-33.94 340.43,-31.71 250.27,-14.92 142.45,-22.78 82.56,-29.56"/>
<polygon fill="black" stroke="black" points="82.27,-26.07 72.75,-30.71 83.09,-33.02 82.27,-26.07"/>
</g>
<!-- consume&#45;&gt;empty_slots -->
<g id="edge4" class="edge">
<title>consume&#45;&gt;empty_slots</title>
<path fill="none" stroke="black" d="M179.33,-86.81C187.06,-88.15 195.52,-89.62 204.12,-91.12"/>
<polygon fill="black" stroke="black" points="203.52,-94.56 213.97,-92.83 204.72,-87.67 203.52,-94.56"/>
</g>
</g>
</svg>
