<?xml version="1.0" encoding="UTF-8" standalone="no"?>
<!DOCTYPE svg PUBLIC "-//W3C//DTD SVG 1.1//EN"
 "http://www.w3.org/Graphics/SVG/1.1/DTD/svg11.dtd">
<!-- Generated by graphviz version 14.0.4 (20251115.1723)
 -->
<!-- Title: PetriNet Pages: 1 -->
<svg width="1279pt" height="352pt"
 viewBox="0.00 0.00 1279.00 352.00" xmlns="http://www.w3.org/2000/svg" xmlns:xlink="http://www.w3.org/1999/xlink">
<g id="graph0" class="graph" transform="scale(1 1) rotate(0) translate(4 348.15)">
<title>PetriNet</title>
<polygon fill="white" stroke="none" points="-4,4 -4,-348.15 1274.68,-348.15 1274.68,4 -4,4"/>
<text xml:space="preserve" text-anchor="middle" x="635.34" y="-326.85" font-family="Times,serif" font-size="14.00">Dining Philosophers &#45; Structure</text>
<!-- fork1 -->
<g id="node1" class="node">
<title>fork1</title>
<ellipse fill="lightblue" stroke="black" cx="32.53" cy="-83" rx="32.53" ry="32.53"/>
<text xml:space="preserve" text-anchor="middle" x="32.53" y="-85.45" font-family="Arial" font-size="14.00">fork1</text>
<text xml:space="preserve" text-anchor="middle" x="32.53" y="-69.7" font-family="Arial" font-size="14.00">1</text>
</g>
<!-- phil1_pickup -->
<g id="node7" class="node">
<title>phil1_pickup</title>
<polygon fill="lightgreen" stroke="black" points="192.05,-192 101.05,-192 101.05,-156 192.05,-156 192.05,-192"/>
<text xml:space="preserve" text-anchor="middle" x="146.55" y="-168.57" font-family="Arial" font-size="14.00">phil1_pickup</text>
</g>
<!-- fork1&#45;&gt;phil1_pickup -->
<g id="edge2" class="edge">
<title>fork1&#45;&gt;phil1_pickup</title>
<path fill="none" stroke="black" d="M58.39,-103.2C74.86,-116.57 96.59,-134.23 114.24,-148.56"/>
<polygon fill="black" stroke="black" points="111.9,-151.17 121.87,-154.76 116.31,-145.74 111.9,-151.17"/>
</g>
<!-- phil2_pickup -->
<g id="node9" class="node">
<title>phil2_pickup</title>
<polygon fill="lightgreen" stroke="black" points="794.87,-290 703.87,-290 703.87,-254 794.87,-254 794.87,-290"/>
<text xml:space="preserve" text-anchor="middle" x="749.37" y="-266.57" font-family="Arial" font-size="14.00">phil2_pickup</text>
</g>
<!-- fork1&#45;&gt;phil2_pickup -->
<g id="edge10" class="edge">
<title>fork1&#45;&gt;phil2_pickup</title>
<path fill="none" stroke="black" d="M45.3,-113.45C56.51,-139.28 75.46,-176.02 101.05,-201 169.3,-267.6 194.45,-303 289.81,-303 289.81,-303 289.81,-303 442.07,-303 529.81,-303 630.98,-290.25 692.27,-281.11"/>
<polygon fill="black" stroke="black" points="692.75,-284.57 702.12,-279.61 691.71,-277.65 692.75,-284.57"/>
</g>
<!-- fork2 -->
<g id="node2" class="node">
<title>fork2</title>
<ellipse fill="lightblue" stroke="black" cx="598.22" cy="-242" rx="32.53" ry="32.53"/>
<text xml:space="preserve" text-anchor="middle" x="598.22" y="-244.45" font-family="Arial" font-size="14.00">fork2</text>
<text xml:space="preserve" text-anchor="middle" x="598.22" y="-228.7" font-family="Arial" font-size="14.00">1</text>
</g>
<!-- fork2&#45;&gt;phil1_pickup -->
<g id="edge3" class="edge">
<title>fork2&#45;&gt;phil1_pickup</title>
<path fill="none" stroke="black" d="M565.31,-244.48C500.34,-248.54 348.64,-253.01 228.05,-218 212.82,-213.58 197.25,-205.93 183.92,-198.25"/>
<polygon fill="black" stroke="black" points="185.87,-195.34 175.5,-193.19 182.27,-201.34 185.87,-195.34"/>
</g>
<!-- fork2&#45;&gt;phil2_pickup -->
<g id="edge11" class="edge">
<title>fork2&#45;&gt;phil2_pickup</title>
<path fill="none" stroke="black" d="M630.48,-248.29C648.44,-251.9 671.52,-256.54 692.5,-260.76"/>
<polygon fill="black" stroke="black" points="691.58,-264.15 702.07,-262.69 692.96,-257.29 691.58,-264.15"/>
</g>
<!-- phil1_thinking -->
<g id="node3" class="node">
<title>phil1_thinking</title>
<ellipse fill="lightblue" stroke="black" cx="598.22" cy="-122" rx="69.65" ry="69.65"/>
<text xml:space="preserve" text-anchor="middle" x="598.22" y="-124.45" font-family="Arial" font-size="14.00">phil1_thinking</text>
<text xml:space="preserve" text-anchor="middle" x="598.22" y="-108.7" font-family="Arial" font-size="14.00">1</text>
</g>
<!-- phil1_thinking&#45;&gt;phil1_pickup -->
<g id="edge1" class="edge">
<title>phil1_thinking&#45;&gt;phil1_pickup</title>
<path fill="none" stroke="black" d="M533.42,-148.79C485.04,-167.59 416.38,-191.07 353.57,-201 298.47,-209.71 283.11,-209.99 228.05,-201 219.95,-199.68 211.57,-197.65 203.4,-195.29"/>
<polygon fill="black" stroke="black" points="204.49,-191.97 193.9,-192.35 202.42,-198.65 204.49,-191.97"/>
</g>
<!-- phil1_eating -->
<g id="node4" class="node">
<title>phil1_eating</title>
<ellipse fill="white" stroke="black" cx="290.81" cy="-129" rx="62.76" ry="62.76"/>
<text xml:space="preserve" text-anchor="middle" x="290.81" y="-131.45" font-family="Arial" font-size="14.00">phil1_eating</text>
<text xml:space="preserve" text-anchor="middle" x="290.81" y="-115.7" font-family="Arial" font-size="14.00">0</text>
</g>
<!-- phil1_putdown -->
<g id="node8" class="node">
<title>phil1_putdown</title>
<polygon fill="lightgray" stroke="black" points="492.57,-143 389.57,-143 389.57,-107 492.57,-107 492.57,-143"/>
<text xml:space="preserve" text-anchor="middle" x="441.07" y="-119.58" font-family="Arial" font-size="14.00">phil1_putdown</text>
</g>
<!-- phil1_eating&#45;&gt;phil1_putdown -->
<g id="edge5" class="edge">
<title>phil1_eating&#45;&gt;phil1_putdown</title>
<path fill="none" stroke="black" d="M353.82,-127.33C361.71,-127.11 369.79,-126.9 377.69,-126.68"/>
<polygon fill="black" stroke="black" points="377.67,-130.18 387.57,-126.42 377.48,-123.19 377.67,-130.18"/>
</g>
<!-- phil2_thinking -->
<g id="node5" class="node">
<title>phil2_thinking</title>
<ellipse fill="lightblue" stroke="black" cx="1201.03" cy="-250" rx="69.65" ry="69.65"/>
<text xml:space="preserve" text-anchor="middle" x="1201.03" y="-252.45" font-family="Arial" font-size="14.00">phil2_thinking</text>
<text xml:space="preserve" text-anchor="middle" x="1201.03" y="-236.7" font-family="Arial" font-size="14.00">1</text>
</g>
<!-- phil2_thinking&#45;&gt;phil2_pickup -->
<g id="edge9" class="edge">
<title>phil2_thinking&#45;&gt;phil2_pickup</title>
<path fill="none" stroke="black" d="M1134.17,-270.41C1060.19,-290.63 936.63,-316.26 830.87,-299 822.76,-297.68 814.38,-295.65 806.21,-293.29"/>
<polygon fill="black" stroke="black" points="807.3,-289.97 796.71,-290.35 805.23,-296.65 807.3,-289.97"/>
</g>
<!-- phil2_eating -->
<g id="node6" class="node">
<title>phil2_eating</title>
<ellipse fill="white" stroke="black" cx="893.62" cy="-227" rx="62.76" ry="62.76"/>
<text xml:space="preserve" text-anchor="middle" x="893.62" y="-229.45" font-family="Arial" font-size="14.00">phil2_eating</text>
<text xml:space="preserve" text-anchor="middle" x="893.62" y="-213.7" font-family="Arial" font-size="14.00">0</text>
</g>
<!-- phil2_putdown -->
<g id="node10" class="node">
<title>phil2_putdown</title>
<polygon fill="lightgray" stroke="black" points="1095.38,-200 992.38,-200 992.38,-164 1095.38,-164 1095.38,-200"/>
<text xml:space="preserve" text-anchor="middle" x="1043.88" y="-176.57" font-family="Arial" font-size="14.00">phil2_putdown</text>
</g>
<!-- phil2_eating&#45;&gt;phil2_putdown -->
<g id="edge13" class="edge">
<title>phil2_eating&#45;&gt;phil2_putdown</title>
<path fill="none" stroke="black" d="M954.07,-208.96C963,-206.24 972.23,-203.44 981.21,-200.72"/>
<polygon fill="black" stroke="black" points="982,-204.13 990.56,-197.88 979.97,-197.44 982,-204.13"/>
</g>
<!-- phil1_pickup&#45;&gt;phil1_eating -->
<g id="edge4" class="edge">
<title>phil1_pickup&#45;&gt;phil1_eating</title>
<path fill="none" stroke="black" d="M192.17,-159.89C200.9,-157.12 210.25,-154.17 219.57,-151.22"/>
<polygon fill="black" stroke="black" points="220.55,-154.58 229.03,-148.23 218.44,-147.9 220.55,-154.58"/>
</g>
<!-- phil1_putdown&#45;&gt;fork1 -->
<g id="edge7" class="edge">
<title>phil1_putdown&#45;&gt;fork1</title>
<path fill="none" stroke="black" d="M423.98,-106.76C408.02,-90.16 381.91,-66.81 353.57,-57 257.85,-23.88 136.79,-50.87 74.57,-69.33"/>
<polygon fill="black" stroke="black" points="73.65,-65.95 65.11,-72.22 75.69,-72.65 73.65,-65.95"/>
</g>
<!-- phil1_putdown&#45;&gt;fork2 -->
<g id="edge8" class="edge">
<title>phil1_putdown&#45;&gt;fork2</title>
<path fill="none" stroke="black" d="M460.8,-143.26C477.78,-159.36 503.84,-182.99 528.57,-201 538.16,-207.99 549,-214.88 559.19,-220.97"/>
<polygon fill="black" stroke="black" points="557.38,-223.96 567.78,-225.99 560.91,-217.92 557.38,-223.96"/>
</g>
<!-- phil1_putdown&#45;&gt;phil1_thinking -->
<g id="edge6" class="edge">
<title>phil1_putdown&#45;&gt;phil1_thinking</title>
<path fill="none" stroke="black" d="M492.87,-124.02C500.56,-123.87 508.64,-123.71 516.78,-123.56"/>
<polygon fill="black" stroke="black" points="516.82,-127.06 526.75,-123.36 516.68,-120.06 516.82,-127.06"/>
</g>
<!-- phil2_pickup&#45;&gt;phil2_eating -->
<g id="edge12" class="edge">
<title>phil2_pickup&#45;&gt;phil2_eating</title>
<path fill="none" stroke="black" d="M794.99,-257.89C803.71,-255.12 813.06,-252.17 822.39,-249.22"/>
<polygon fill="black" stroke="black" points="823.37,-252.58 831.84,-246.23 821.25,-245.9 823.37,-252.58"/>
</g>
<!-- phil2_putdown&#45;&gt;fork1 -->
<g id="edge15" class="edge">
<title>phil2_putdown&#45;&gt;fork1</title>
<path fill="none" stroke="black" d="M1027.57,-163.55C987.35,-117.28 873.28,0 750.37,0 289.81,0 289.81,0 289.81,0 203.96,0 180.61,-8.75 101.05,-41 90.11,-45.43 78.95,-51.59 68.93,-57.83"/>
<polygon fill="black" stroke="black" points="67.11,-54.84 60.62,-63.2 70.91,-60.71 67.11,-54.84"/>
</g>
<!-- phil2_putdown&#45;&gt;fork2 -->
<g id="edge16" class="edge">
<title>phil2_putdown&#45;&gt;fork2</title>
<path fill="none" stroke="black" d="M992.71,-163.54C980.95,-160 968.35,-156.83 956.38,-155 901.23,-146.59 885.75,-145.03 830.87,-155 760.04,-167.86 682.68,-201.16 637.69,-222.63"/>
<polygon fill="black" stroke="black" points="636.36,-219.39 628.88,-226.89 639.4,-225.69 636.36,-219.39"/>
</g>
<!-- phil2_putdown&#45;&gt;phil2_thinking -->
<g id="edge14" class="edge">
<title>phil2_putdown&#45;&gt;phil2_thinking</title>
<path fill="none" stroke="black" d="M1086.86,-200.4C1099.09,-205.76 1112.83,-211.78 1126.4,-217.73"/>
<polygon fill="black" stroke="black" points="1124.77,-220.84 1135.33,-221.65 1127.58,-214.43 1124.77,-220.84"/>
</g>
</g>
</svg>
