<?xml version="1.0" encoding="UTF-8" standalone="no"?>
<!DOCTYPE svg PUBLIC "-//W3C//DTD SVG 1.1//EN"
 "http://www.w3.org/Graphics/SVG/1.1/DTD/svg11.dtd">
<!-- Generated by graphviz version 14.0.4 (20251115.1723)
 -->
<!-- Title: ReachabilityGraph Pages: 1 -->
<svg width="1028pt" height="163pt"
 viewBox="0.00 0.00 1028.00 163.00" xmlns="http://www.w3.org/2000/svg" xmlns:xlink="http://www.w3.org/1999/xlink">
<g id="graph0" class="graph" transform="scale(1 1) rotate(0) translate(4 159.25)">
<title>ReachabilityGraph</title>
<polygon fill="white" stroke="none" points="-4,4 -4,-159.25 1023.5,-159.25 1023.5,4 -4,4"/>
<text xml:space="preserve" text-anchor="middle" x="509.75" y="-137.95" font-family="Times,serif" font-size="14.00">Dining Philosophers &#45; Reachability</text>
<!-- M0 -->
<g id="node1" class="node">
<title>M0</title>
<polygon fill="lightblue" stroke="black" points="812.5,-130.75 312,-130.75 312,-91.25 812.5,-91.25 812.5,-130.75"/>
<text xml:space="preserve" text-anchor="middle" x="562.25" y="-113.45" font-family="Arial" font-size="14.00">M0 (initial)</text>
<text xml:space="preserve" text-anchor="middle" x="562.25" y="-97.7" font-family="Arial" font-size="14.00">{fork1:1, fork2:1, phil1_eating:0, phil1_thinking:1, phil2_eating:0, phil2_thinking:1}</text>
</g>
<!-- M1 -->
<g id="node2" class="node">
<title>M1</title>
<polygon fill="white" stroke="black" points="500.5,-39.5 0,-39.5 0,0 500.5,0 500.5,-39.5"/>
<text xml:space="preserve" text-anchor="middle" x="250.25" y="-22.2" font-family="Arial" font-size="14.00">M1</text>
<text xml:space="preserve" text-anchor="middle" x="250.25" y="-6.45" font-family="Arial" font-size="14.00">{fork1:0, fork2:0, phil1_eating:1, phil1_thinking:0, phil2_eating:0, phil2_thinking:1}</text>
</g>
<!-- M0&#45;&gt;M1 -->
<g id="edge1" class="edge">
<title>M0&#45;&gt;M1</title>
<path fill="none" stroke="black" d="M477.52,-90.78C455.52,-85.45 431.92,-79.42 410.25,-73.25 378.96,-64.35 344.64,-53.27 315.83,-43.58"/>
<polygon fill="black" stroke="black" points="317.11,-40.32 306.52,-40.43 314.87,-46.95 317.11,-40.32"/>
<text xml:space="preserve" text-anchor="middle" x="447.75" y="-59.95" font-family="Arial" font-size="14.00">phil1_pickup</text>
</g>
<!-- M2 -->
<g id="node3" class="node">
<title>M2</title>
<polygon fill="white" stroke="black" points="1019.5,-39.5 519,-39.5 519,0 1019.5,0 1019.5,-39.5"/>
<text xml:space="preserve" text-anchor="middle" x="769.25" y="-22.2" font-family="Arial" font-size="14.00">M2</text>
<text xml:space="preserve" text-anchor="middle" x="769.25" y="-6.45" font-family="Arial" font-size="14.00">{fork1:0, fork2:0, phil1_eating:0, phil1_thinking:1, phil2_eating:1, phil2_thinking:0}</text>
</g>
<!-- M0&#45;&gt;M2 -->
<g id="edge2" class="edge">
<title>M0&#45;&gt;M2</title>
<path fill="none" stroke="black" d="M593.96,-90.77C612.33,-80.11 636.13,-67.12 658.25,-57.5 669.62,-52.55 681.89,-47.88 693.98,-43.62"/>
<polygon fill="black" stroke="black" points="694.78,-47.05 703.1,-40.48 692.5,-40.43 694.78,-47.05"/>
<text xml:space="preserve" text-anchor="middle" x="695.75" y="-59.95" font-family="Arial" font-size="14.00">phil2_pickup</text>
</g>
<!-- M1&#45;&gt;M0 -->
<g id="edge3" class="edge">
<title>M1&#45;&gt;M0</title>
<path fill="none" stroke="black" d="M428.31,-39.96C447.86,-44.6 467.2,-50.36 485.25,-57.5 501.35,-63.87 517.45,-74.09 530.73,-83.83"/>
<polygon fill="black" stroke="black" points="528.58,-86.59 538.66,-89.85 532.81,-81.02 528.58,-86.59"/>
<text xml:space="preserve" text-anchor="middle" x="558.11" y="-59.95" font-family="Arial" font-size="14.00">phil1_putdown</text>
</g>
<!-- M2&#45;&gt;M0 -->
<g id="edge4" class="edge">
<title>M2&#45;&gt;M0</title>
<path fill="none" stroke="black" d="M760.76,-39.79C754.7,-51.21 745.46,-65.06 733.25,-73.25 725.72,-78.3 717.62,-82.67 709.18,-86.45"/>
<polygon fill="black" stroke="black" points="708.04,-83.14 700.14,-90.2 710.72,-89.61 708.04,-83.14"/>
<text xml:space="preserve" text-anchor="middle" x="792.82" y="-59.95" font-family="Arial" font-size="14.00">phil2_putdown</text>
</g>
</g>
</svg>
