<?xml version="1.0" encoding="UTF-8" standalone="no"?>
<!DOCTYPE svg PUBLIC "-//W3C//DTD SVG 1.1//EN"
 "http://www.w3.org/Graphics/SVG/1.1/DTD/svg11.dtd">
<!-- Generated by graphviz version 14.0.4 (20251115.1723)
 -->
<!-- Title: PetriNet Pages: 1 -->
<svg width="853pt" height="333pt"
 viewBox="0.00 0.00 853.00 333.00" xmlns="http://www.w3.org/2000/svg" xmlns:xlink="http://www.w3.org/1999/xlink">
<g id="graph0" class="graph" transform="scale(1 1) rotate(0) translate(4 329.18)">
<title>PetriNet</title>
<polygon fill="white" stroke="none" points="-4,4 -4,-329.18 849.38,-329.18 849.38,4 -4,4"/>
<text xml:space="preserve" text-anchor="middle" x="422.69" y="-307.88" font-family="Times,serif" font-size="14.00">Mutex with Inhibitor Arcs &#45; Structure</text>
<!-- resource -->
<g id="node1" class="node">
<title>resource</title>
<ellipse fill="lightblue" stroke="black" cx="48.44" cy="-81.61" rx="48.44" ry="48.44"/>
<text xml:space="preserve" text-anchor="middle" x="48.44" y="-84.06" font-family="Arial" font-size="14.00">resource</text>
<text xml:space="preserve" text-anchor="middle" x="48.44" y="-68.31" font-family="Arial" font-size="14.00">1</text>
</g>
<!-- p1_acquire -->
<g id="node6" class="node">
<title>p1_acquire</title>
<polygon fill="lightgreen" stroke="black" points="215.62,-140.61 132.87,-140.61 132.87,-104.61 215.62,-104.61 215.62,-140.61"/>
<text xml:space="preserve" text-anchor="middle" x="174.25" y="-117.18" font-family="Arial" font-size="14.00">p1_acquire</text>
</g>
<!-- resource&#45;&gt;p1_acquire -->
<g id="edge2" class="edge">
<title>resource&#45;&gt;p1_acquire</title>
<path fill="none" stroke="black" d="M94.84,-96.64C103.67,-99.57 112.98,-102.65 121.99,-105.63"/>
<polygon fill="black" stroke="black" points="120.74,-108.91 131.33,-108.73 122.94,-102.26 120.74,-108.91"/>
</g>
<!-- p2_acquire -->
<g id="node8" class="node">
<title>p2_acquire</title>
<polygon fill="lightgreen" stroke="black" points="470.43,-159.61 387.68,-159.61 387.68,-123.61 470.43,-123.61 470.43,-159.61"/>
<text xml:space="preserve" text-anchor="middle" x="429.05" y="-136.18" font-family="Arial" font-size="14.00">p2_acquire</text>
</g>
<!-- resource&#45;&gt;p2_acquire -->
<g id="edge9" class="edge">
<title>resource&#45;&gt;p2_acquire</title>
<path fill="none" stroke="black" d="M97.15,-77.73C157.68,-74.29 264.66,-73.17 351.68,-98.61 365.97,-102.79 380.49,-110.05 392.98,-117.44"/>
<polygon fill="black" stroke="black" points="390.89,-120.26 401.23,-122.53 394.56,-114.3 390.89,-120.26"/>
</g>
<!-- p1_idle -->
<g id="node2" class="node">
<title>p1_idle</title>
<ellipse fill="lightblue" stroke="black" cx="556.46" cy="-258.61" rx="42.07" ry="42.07"/>
<text xml:space="preserve" text-anchor="middle" x="556.46" y="-261.06" font-family="Arial" font-size="14.00">p1_idle</text>
<text xml:space="preserve" text-anchor="middle" x="556.46" y="-245.31" font-family="Arial" font-size="14.00">1</text>
</g>
<!-- p1_idle&#45;&gt;p1_acquire -->
<g id="edge1" class="edge">
<title>p1_idle&#45;&gt;p1_acquire</title>
<path fill="none" stroke="black" d="M514.07,-256.62C441.72,-252.54 295.7,-241.43 251.62,-216.61 224.58,-201.38 203.33,-172.46 190.18,-150.7"/>
<polygon fill="black" stroke="black" points="193.35,-149.19 185.31,-142.29 187.3,-152.7 193.35,-149.19"/>
</g>
<!-- p1_using -->
<g id="node3" class="node">
<title>p1_using</title>
<ellipse fill="white" stroke="black" cx="301.65" cy="-157.61" rx="50.03" ry="50.03"/>
<text xml:space="preserve" text-anchor="middle" x="301.65" y="-160.06" font-family="Arial" font-size="14.00">p1_using</text>
<text xml:space="preserve" text-anchor="middle" x="301.65" y="-144.31" font-family="Arial" font-size="14.00">0</text>
</g>
<!-- p1_release -->
<g id="node7" class="node">
<title>p1_release</title>
<polygon fill="lightgray" stroke="black" points="470.43,-299.61 387.68,-299.61 387.68,-263.61 470.43,-263.61 470.43,-299.61"/>
<text xml:space="preserve" text-anchor="middle" x="429.05" y="-276.18" font-family="Arial" font-size="14.00">p1_release</text>
</g>
<!-- p1_using&#45;&gt;p1_release -->
<g id="edge5" class="edge">
<title>p1_using&#45;&gt;p1_release</title>
<path fill="none" stroke="black" d="M337.92,-192.48C358.15,-212.48 383.12,-237.18 401.65,-255.5"/>
<polygon fill="black" stroke="black" points="399.02,-257.82 408.59,-262.36 403.94,-252.84 399.02,-257.82"/>
</g>
<!-- p1_using&#45;&gt;p2_acquire -->
<g id="edge11" class="edge">
<title>p1_using&#45;&gt;p2_acquire</title>
<path fill="none" stroke="red" stroke-dasharray="5,2" d="M351.49,-151.38C360.37,-150.25 369.63,-149.06 378.52,-147.93"/>
<ellipse fill="none" stroke="red" cx="382.79" cy="-147.38" rx="4" ry="4"/>
</g>
<!-- p2_idle -->
<g id="node4" class="node">
<title>p2_idle</title>
<ellipse fill="lightblue" stroke="black" cx="803.31" cy="-119.61" rx="42.07" ry="42.07"/>
<text xml:space="preserve" text-anchor="middle" x="803.31" y="-122.06" font-family="Arial" font-size="14.00">p2_idle</text>
<text xml:space="preserve" text-anchor="middle" x="803.31" y="-106.31" font-family="Arial" font-size="14.00">1</text>
</g>
<!-- p2_idle&#45;&gt;p2_acquire -->
<g id="edge8" class="edge">
<title>p2_idle&#45;&gt;p2_acquire</title>
<path fill="none" stroke="black" d="M761.13,-124.91C721.57,-129.74 660.05,-136.58 606.48,-139.61 564.72,-141.97 517.31,-142.38 482.16,-142.25"/>
<polygon fill="black" stroke="black" points="482.27,-138.75 472.25,-142.2 482.23,-145.75 482.27,-138.75"/>
</g>
<!-- p2_using -->
<g id="node5" class="node">
<title>p2_using</title>
<ellipse fill="white" stroke="black" cx="556.46" cy="-80.61" rx="50.03" ry="50.03"/>
<text xml:space="preserve" text-anchor="middle" x="556.46" y="-83.06" font-family="Arial" font-size="14.00">p2_using</text>
<text xml:space="preserve" text-anchor="middle" x="556.46" y="-67.31" font-family="Arial" font-size="14.00">0</text>
</g>
<!-- p2_using&#45;&gt;p1_acquire -->
<g id="edge4" class="edge">
<title>p2_using&#45;&gt;p1_acquire</title>
<path fill="none" stroke="red" stroke-dasharray="5,2" d="M506.07,-79.84C445.59,-79.74 340.23,-82.32 251.62,-98.61 242.71,-100.25 233.39,-102.61 224.44,-105.21"/>
<ellipse fill="none" stroke="red" cx="220.31" cy="-106.47" rx="4" ry="4"/>
</g>
<!-- p2_release -->
<g id="node9" class="node">
<title>p2_release</title>
<polygon fill="lightgray" stroke="black" points="725.23,-98.61 642.48,-98.61 642.48,-62.61 725.23,-62.61 725.23,-98.61"/>
<text xml:space="preserve" text-anchor="middle" x="683.86" y="-75.18" font-family="Arial" font-size="14.00">p2_release</text>
</g>
<!-- p2_using&#45;&gt;p2_release -->
<g id="edge12" class="edge">
<title>p2_using&#45;&gt;p2_release</title>
<path fill="none" stroke="black" d="M606.66,-80.61C614.59,-80.61 622.82,-80.61 630.82,-80.61"/>
<polygon fill="black" stroke="black" points="630.78,-84.11 640.78,-80.61 630.78,-77.11 630.78,-84.11"/>
</g>
<!-- p1_acquire&#45;&gt;p1_using -->
<g id="edge3" class="edge">
<title>p1_acquire&#45;&gt;p1_using</title>
<path fill="none" stroke="black" d="M215.96,-133.97C224.31,-136.3 233.25,-138.8 242.09,-141.26"/>
<polygon fill="black" stroke="black" points="241.13,-144.63 251.7,-143.95 243.01,-137.89 241.13,-144.63"/>
</g>
<!-- p1_release&#45;&gt;resource -->
<g id="edge7" class="edge">
<title>p1_release&#45;&gt;resource</title>
<path fill="none" stroke="black" d="M387.51,-277.83C350.64,-273.22 295.45,-263.3 251.62,-242.61 189.11,-213.11 128.63,-160.82 90.36,-123.84"/>
<polygon fill="black" stroke="black" points="93.22,-121.74 83.62,-117.26 88.32,-126.75 93.22,-121.74"/>
</g>
<!-- p1_release&#45;&gt;p1_idle -->
<g id="edge6" class="edge">
<title>p1_release&#45;&gt;p1_idle</title>
<path fill="none" stroke="black" d="M470.77,-274.14C481.28,-272.21 492.73,-270.11 503.72,-268.1"/>
<polygon fill="black" stroke="black" points="504.25,-271.56 513.46,-266.31 502.99,-264.67 504.25,-271.56"/>
</g>
<!-- p2_acquire&#45;&gt;p2_using -->
<g id="edge10" class="edge">
<title>p2_acquire&#45;&gt;p2_using</title>
<path fill="none" stroke="black" d="M468.02,-123.14C478.4,-118.09 489.85,-112.52 500.95,-107.12"/>
<polygon fill="black" stroke="black" points="502.19,-110.41 509.65,-102.89 499.13,-104.12 502.19,-110.41"/>
</g>
<!-- p2_release&#45;&gt;resource -->
<g id="edge14" class="edge">
<title>p2_release&#45;&gt;resource</title>
<path fill="none" stroke="black" d="M665.24,-62.35C650.83,-48.65 629.18,-30.74 606.48,-21.61 533.32,7.83 508.92,-2.61 430.05,-2.61 300.65,-2.61 300.65,-2.61 300.65,-2.61 229.37,-2.61 151.73,-31.91 101.92,-54.82"/>
<polygon fill="black" stroke="black" points="100.67,-51.55 93.1,-58.96 103.64,-57.88 100.67,-51.55"/>
</g>
<!-- p2_release&#45;&gt;p2_idle -->
<g id="edge13" class="edge">
<title>p2_release&#45;&gt;p2_idle</title>
<path fill="none" stroke="black" d="M725.61,-94.14C734.09,-96.96 743.12,-99.95 751.9,-102.87"/>
<polygon fill="black" stroke="black" points="750.79,-106.19 761.38,-106.02 753,-99.55 750.79,-106.19"/>
</g>
</g>
</svg>
