<?xml version="1.0" encoding="UTF-8" standalone="no"?>
<!DOCTYPE svg PUBLIC "-//W3C//DTD SVG 1.1//EN"
 "http://www.w3.org/Graphics/SVG/1.1/DTD/svg11.dtd">
<!-- Generated by graphviz version 14.0.4 (20251115.1723)
 -->
<!-- Title: ReachabilityGraph Pages: 1 -->
<svg width="746pt" height="163pt"
 viewBox="0.00 0.00 746.00 163.00" xmlns="http://www.w3.org/2000/svg" xmlns:xlink="http://www.w3.org/1999/xlink">
<g id="graph0" class="graph" transform="scale(1 1) rotate(0) translate(4 159.25)">
<title>ReachabilityGraph</title>
<polygon fill="white" stroke="none" points="-4,4 -4,-159.25 742.25,-159.25 742.25,4 -4,4"/>
<text xml:space="preserve" text-anchor="middle" x="369.12" y="-137.95" font-family="Times,serif" font-size="14.00">Mutex with Inhibitor Arcs &#45; Reachability</text>
<!-- M0 -->
<g id="node1" class="node">
<title>M0</title>
<polygon fill="lightblue" stroke="black" points="576.25,-130.75 216,-130.75 216,-91.25 576.25,-91.25 576.25,-130.75"/>
<text xml:space="preserve" text-anchor="middle" x="396.12" y="-113.45" font-family="Arial" font-size="14.00">M0 (initial)</text>
<text xml:space="preserve" text-anchor="middle" x="396.12" y="-97.7" font-family="Arial" font-size="14.00">{p1_idle:1, p1_using:0, p2_idle:1, p2_using:0, resource:1}</text>
</g>
<!-- M1 -->
<g id="node2" class="node">
<title>M1</title>
<polygon fill="white" stroke="black" points="360.25,-39.5 0,-39.5 0,0 360.25,0 360.25,-39.5"/>
<text xml:space="preserve" text-anchor="middle" x="180.12" y="-22.2" font-family="Arial" font-size="14.00">M1</text>
<text xml:space="preserve" text-anchor="middle" x="180.12" y="-6.45" font-family="Arial" font-size="14.00">{p1_idle:0, p1_using:1, p2_idle:1, p2_using:0, resource:0}</text>
</g>
<!-- M0&#45;&gt;M1 -->
<g id="edge1" class="edge">
<title>M0&#45;&gt;M1</title>
<path fill="none" stroke="black" d="M311.3,-90.83C294.76,-85.94 277.78,-80.09 262.38,-73.25 246.02,-65.98 229.16,-55.78 215,-46.29"/>
<polygon fill="black" stroke="black" points="217.13,-43.51 206.91,-40.74 213.17,-49.29 217.13,-43.51"/>
<text xml:space="preserve" text-anchor="middle" x="295.75" y="-59.95" font-family="Arial" font-size="14.00">p1_acquire</text>
</g>
<!-- M2 -->
<g id="node3" class="node">
<title>M2</title>
<polygon fill="white" stroke="black" points="738.25,-39.5 378,-39.5 378,0 738.25,0 738.25,-39.5"/>
<text xml:space="preserve" text-anchor="middle" x="558.12" y="-22.2" font-family="Arial" font-size="14.00">M2</text>
<text xml:space="preserve" text-anchor="middle" x="558.12" y="-6.45" font-family="Arial" font-size="14.00">{p1_idle:1, p1_using:0, p2_idle:0, p2_using:1, resource:0}</text>
</g>
<!-- M0&#45;&gt;M2 -->
<g id="edge2" class="edge">
<title>M0&#45;&gt;M2</title>
<path fill="none" stroke="black" d="M416.72,-90.98C429.24,-80.14 445.93,-66.88 462.38,-57.5 470.8,-52.69 479.98,-48.27 489.21,-44.28"/>
<polygon fill="black" stroke="black" points="490.32,-47.61 498.21,-40.54 487.64,-41.14 490.32,-47.61"/>
<text xml:space="preserve" text-anchor="middle" x="495.75" y="-59.95" font-family="Arial" font-size="14.00">p2_acquire</text>
</g>
<!-- M1&#45;&gt;M0 -->
<g id="edge3" class="edge">
<title>M1&#45;&gt;M0</title>
<path fill="none" stroke="black" d="M282.74,-39.96C298.67,-44.67 314.63,-50.44 329.12,-57.5 342.96,-64.24 356.63,-74.19 367.98,-83.61"/>
<polygon fill="black" stroke="black" points="365.53,-86.13 375.39,-90 370.1,-80.82 365.53,-86.13"/>
<text xml:space="preserve" text-anchor="middle" x="386.37" y="-59.95" font-family="Arial" font-size="14.00">p1_release</text>
</g>
<!-- M2&#45;&gt;M0 -->
<g id="edge4" class="edge">
<title>M2&#45;&gt;M0</title>
<path fill="none" stroke="black" d="M551.9,-39.78C547.29,-51.05 539.92,-64.74 529.12,-73.25 522.85,-78.2 515.96,-82.48 508.71,-86.18"/>
<polygon fill="black" stroke="black" points="507.59,-82.85 500,-90.25 510.55,-89.19 507.59,-82.85"/>
<text xml:space="preserve" text-anchor="middle" x="575.41" y="-59.95" font-family="Arial" font-size="14.00">p2_release</text>
</g>
</g>
</svg>
