<?xml version="1.0" encoding="UTF-8" standalone="no"?>
<!DOCTYPE svg PUBLIC "-//W3C//DTD SVG 1.1//EN"
 "http://www.w3.org/Graphics/SVG/1.1/DTD/svg11.dtd">
<!-- Generated by graphviz version 14.0.4 (20251115.1723)
 -->
<!-- Title: ReachabilityGraph Pages: 1 -->
<svg width="788pt" height="437pt"
 viewBox="0.00 0.00 788.00 437.00" xmlns="http://www.w3.org/2000/svg" xmlns:xlink="http://www.w3.org/1999/xlink">
<g id="graph0" class="graph" transform="scale(1 1) rotate(0) translate(4 433)">
<title>ReachabilityGraph</title>
<polygon fill="white" stroke="none" points="-4,4 -4,-433 784.25,-433 784.25,4 -4,4"/>
<text xml:space="preserve" text-anchor="middle" x="390.12" y="-411.7" font-family="Times,serif" font-size="14.00">Fork&#45;Join Workflow &#45; Reachability</text>
<!-- M0 -->
<g id="node1" class="node">
<title>M0</title>
<polygon fill="lightblue" stroke="black" points="580.25,-404.5 199,-404.5 199,-365 580.25,-365 580.25,-404.5"/>
<text xml:space="preserve" text-anchor="middle" x="389.62" y="-387.2" font-family="Arial" font-size="14.00">M0 (initial)</text>
<text xml:space="preserve" text-anchor="middle" x="389.62" y="-371.45" font-family="Arial" font-size="14.00">{branch_a:0, branch_b:0, done_a:0, done_b:0, end:0, start:1}</text>
</g>
<!-- M1 -->
<g id="node2" class="node">
<title>M1</title>
<polygon fill="white" stroke="black" points="580.25,-313.25 199,-313.25 199,-273.75 580.25,-273.75 580.25,-313.25"/>
<text xml:space="preserve" text-anchor="middle" x="389.62" y="-295.95" font-family="Arial" font-size="14.00">M1</text>
<text xml:space="preserve" text-anchor="middle" x="389.62" y="-280.2" font-family="Arial" font-size="14.00">{branch_a:1, branch_b:1, done_a:0, done_b:0, end:0, start:0}</text>
</g>
<!-- M0&#45;&gt;M1 -->
<g id="edge1" class="edge">
<title>M0&#45;&gt;M1</title>
<path fill="none" stroke="black" d="M389.62,-364.82C389.62,-353.3 389.62,-338.32 389.62,-325.15"/>
<polygon fill="black" stroke="black" points="393.13,-325.22 389.63,-315.22 386.13,-325.22 393.13,-325.22"/>
<text xml:space="preserve" text-anchor="middle" x="400.88" y="-333.7" font-family="Arial" font-size="14.00">fork</text>
</g>
<!-- M2 -->
<g id="node3" class="node">
<title>M2</title>
<polygon fill="white" stroke="black" points="381.25,-222 0,-222 0,-182.5 381.25,-182.5 381.25,-222"/>
<text xml:space="preserve" text-anchor="middle" x="190.62" y="-204.7" font-family="Arial" font-size="14.00">M2</text>
<text xml:space="preserve" text-anchor="middle" x="190.62" y="-188.95" font-family="Arial" font-size="14.00">{branch_a:0, branch_b:1, done_a:1, done_b:0, end:0, start:0}</text>
</g>
<!-- M1&#45;&gt;M2 -->
<g id="edge2" class="edge">
<title>M1&#45;&gt;M2</title>
<path fill="none" stroke="black" d="M346.93,-273.35C316.64,-259.77 275.77,-241.44 243.42,-226.93"/>
<polygon fill="black" stroke="black" points="245.18,-223.88 234.63,-222.98 242.32,-230.27 245.18,-223.88"/>
<text xml:space="preserve" text-anchor="middle" x="333.16" y="-242.45" font-family="Arial" font-size="14.00">process_a</text>
</g>
<!-- M3 -->
<g id="node4" class="node">
<title>M3</title>
<polygon fill="white" stroke="black" points="780.25,-222 399,-222 399,-182.5 780.25,-182.5 780.25,-222"/>
<text xml:space="preserve" text-anchor="middle" x="589.62" y="-204.7" font-family="Arial" font-size="14.00">M3</text>
<text xml:space="preserve" text-anchor="middle" x="589.62" y="-188.95" font-family="Arial" font-size="14.00">{branch_a:1, branch_b:0, done_a:0, done_b:1, end:0, start:0}</text>
</g>
<!-- M1&#45;&gt;M3 -->
<g id="edge3" class="edge">
<title>M1&#45;&gt;M3</title>
<path fill="none" stroke="black" d="M432.53,-273.35C462.98,-259.77 504.05,-241.44 536.56,-226.93"/>
<polygon fill="black" stroke="black" points="537.7,-230.25 545.41,-222.98 534.85,-223.86 537.7,-230.25"/>
<text xml:space="preserve" text-anchor="middle" x="532.72" y="-242.45" font-family="Arial" font-size="14.00">process_b</text>
</g>
<!-- M4 -->
<g id="node5" class="node">
<title>M4</title>
<polygon fill="white" stroke="black" points="580.25,-130.75 199,-130.75 199,-91.25 580.25,-91.25 580.25,-130.75"/>
<text xml:space="preserve" text-anchor="middle" x="389.62" y="-113.45" font-family="Arial" font-size="14.00">M4</text>
<text xml:space="preserve" text-anchor="middle" x="389.62" y="-97.7" font-family="Arial" font-size="14.00">{branch_a:0, branch_b:0, done_a:1, done_b:1, end:0, start:0}</text>
</g>
<!-- M2&#45;&gt;M4 -->
<g id="edge4" class="edge">
<title>M2&#45;&gt;M4</title>
<path fill="none" stroke="black" d="M233.32,-182.1C263.61,-168.52 304.48,-150.19 336.83,-135.68"/>
<polygon fill="black" stroke="black" points="337.93,-139.02 345.62,-131.73 335.07,-132.63 337.93,-139.02"/>
<text xml:space="preserve" text-anchor="middle" x="333.16" y="-151.2" font-family="Arial" font-size="14.00">process_b</text>
</g>
<!-- M3&#45;&gt;M4 -->
<g id="edge5" class="edge">
<title>M3&#45;&gt;M4</title>
<path fill="none" stroke="black" d="M546.72,-182.1C516.27,-168.52 475.2,-150.19 442.69,-135.68"/>
<polygon fill="black" stroke="black" points="444.4,-132.61 433.84,-131.73 441.55,-139 444.4,-132.61"/>
<text xml:space="preserve" text-anchor="middle" x="532.72" y="-151.2" font-family="Arial" font-size="14.00">process_a</text>
</g>
<!-- M5 -->
<g id="node6" class="node">
<title>M5</title>
<polygon fill="lightcoral" stroke="black" points="580.25,-39.5 199,-39.5 199,0 580.25,0 580.25,-39.5"/>
<text xml:space="preserve" text-anchor="middle" x="389.62" y="-22.2" font-family="Arial" font-size="14.00">M5 (deadlock)</text>
<text xml:space="preserve" text-anchor="middle" x="389.62" y="-6.45" font-family="Arial" font-size="14.00">{branch_a:0, branch_b:0, done_a:0, done_b:0, end:1, start:0}</text>
</g>
<!-- M4&#45;&gt;M5 -->
<g id="edge6" class="edge">
<title>M4&#45;&gt;M5</title>
<path fill="none" stroke="black" d="M389.62,-91.07C389.62,-79.55 389.62,-64.57 389.62,-51.4"/>
<polygon fill="black" stroke="black" points="393.13,-51.47 389.63,-41.47 386.13,-51.47 393.13,-51.47"/>
<text xml:space="preserve" text-anchor="middle" x="400.12" y="-59.95" font-family="Arial" font-size="14.00">join</text>
</g>
</g>
</svg>
