<?xml version="1.0" encoding="UTF-8" standalone="no"?>
<!DOCTYPE svg PUBLIC "-//W3C//DTD SVG 1.1//EN"
 "http://www.w3.org/Graphics/SVG/1.1/DTD/svg11.dtd">
<!-- Generated by graphviz version 14.0.4 (20251115.1723)
 -->
<!-- Title: PetriNet Pages: 1 -->
<svg width="714pt" height="255pt"
 viewBox="0.00 0.00 714.00 255.00" xmlns="http://www.w3.org/2000/svg" xmlns:xlink="http://www.w3.org/1999/xlink">
<g id="graph0" class="graph" transform="scale(1 1) rotate(0) translate(4 250.68)">
<title>PetriNet</title>
<polygon fill="white" stroke="none" points="-4,4 -4,-250.68 710.31,-250.68 710.31,4 -4,4"/>
<text xml:space="preserve" text-anchor="middle" x="353.15" y="-229.38" font-family="Times,serif" font-size="14.00">Fork&#45;Join Workflow &#45; Structure</text>
<!-- start -->
<g id="node1" class="node">
<title>start</title>
<ellipse fill="lightblue" stroke="black" cx="29.88" cy="-111.09" rx="29.88" ry="29.88"/>
<text xml:space="preserve" text-anchor="middle" x="29.88" y="-113.54" font-family="Arial" font-size="14.00">start</text>
<text xml:space="preserve" text-anchor="middle" x="29.88" y="-97.79" font-family="Arial" font-size="14.00">1</text>
</g>
<!-- fork -->
<g id="node7" class="node">
<title>fork</title>
<polygon fill="lightgreen" stroke="black" points="149.75,-129.09 95.75,-129.09 95.75,-93.09 149.75,-93.09 149.75,-129.09"/>
<text xml:space="preserve" text-anchor="middle" x="122.75" y="-105.66" font-family="Arial" font-size="14.00">fork</text>
</g>
<!-- start&#45;&gt;fork -->
<g id="edge1" class="edge">
<title>start&#45;&gt;fork</title>
<path fill="none" stroke="black" d="M60.13,-111.09C67.73,-111.09 76.02,-111.09 83.99,-111.09"/>
<polygon fill="black" stroke="black" points="83.81,-114.59 93.81,-111.09 83.81,-107.59 83.81,-114.59"/>
</g>
<!-- branch_a -->
<g id="node2" class="node">
<title>branch_a</title>
<ellipse fill="white" stroke="black" cx="236.84" cy="-171.09" rx="51.09" ry="51.09"/>
<text xml:space="preserve" text-anchor="middle" x="236.84" y="-173.54" font-family="Arial" font-size="14.00">branch_a</text>
<text xml:space="preserve" text-anchor="middle" x="236.84" y="-157.79" font-family="Arial" font-size="14.00">0</text>
</g>
<!-- process_a -->
<g id="node8" class="node">
<title>process_a</title>
<polygon fill="lightgray" stroke="black" points="402.18,-188.09 323.93,-188.09 323.93,-152.09 402.18,-152.09 402.18,-188.09"/>
<text xml:space="preserve" text-anchor="middle" x="363.05" y="-164.66" font-family="Arial" font-size="14.00">process_a</text>
</g>
<!-- branch_a&#45;&gt;process_a -->
<g id="edge4" class="edge">
<title>branch_a&#45;&gt;process_a</title>
<path fill="none" stroke="black" d="M288.36,-170.68C296.3,-170.62 304.51,-170.55 312.43,-170.49"/>
<polygon fill="black" stroke="black" points="312.29,-173.99 322.26,-170.41 312.23,-166.99 312.29,-173.99"/>
</g>
<!-- branch_b -->
<g id="node3" class="node">
<title>branch_b</title>
<ellipse fill="white" stroke="black" cx="236.84" cy="-51.09" rx="51.09" ry="51.09"/>
<text xml:space="preserve" text-anchor="middle" x="236.84" y="-53.54" font-family="Arial" font-size="14.00">branch_b</text>
<text xml:space="preserve" text-anchor="middle" x="236.84" y="-37.79" font-family="Arial" font-size="14.00">0</text>
</g>
<!-- process_b -->
<g id="node9" class="node">
<title>process_b</title>
<polygon fill="lightgray" stroke="black" points="402.18,-77.09 323.93,-77.09 323.93,-41.09 402.18,-41.09 402.18,-77.09"/>
<text xml:space="preserve" text-anchor="middle" x="363.05" y="-53.66" font-family="Arial" font-size="14.00">process_b</text>
</g>
<!-- branch_b&#45;&gt;process_b -->
<g id="edge6" class="edge">
<title>branch_b&#45;&gt;process_b</title>
<path fill="none" stroke="black" d="M288,-54.32C295.97,-54.83 304.2,-55.36 312.16,-55.87"/>
<polygon fill="black" stroke="black" points="311.83,-59.36 322.04,-56.51 312.28,-52.38 311.83,-59.36"/>
</g>
<!-- done_a -->
<g id="node4" class="node">
<title>done_a</title>
<ellipse fill="white" stroke="black" cx="481.31" cy="-169.09" rx="43.13" ry="43.13"/>
<text xml:space="preserve" text-anchor="middle" x="481.31" y="-171.54" font-family="Arial" font-size="14.00">done_a</text>
<text xml:space="preserve" text-anchor="middle" x="481.31" y="-155.79" font-family="Arial" font-size="14.00">0</text>
</g>
<!-- join -->
<g id="node10" class="node">
<title>join</title>
<polygon fill="lightgray" stroke="black" points="614.44,-133.09 560.44,-133.09 560.44,-97.09 614.44,-97.09 614.44,-133.09"/>
<text xml:space="preserve" text-anchor="middle" x="587.44" y="-109.66" font-family="Arial" font-size="14.00">join</text>
</g>
<!-- done_a&#45;&gt;join -->
<g id="edge8" class="edge">
<title>done_a&#45;&gt;join</title>
<path fill="none" stroke="black" d="M520.2,-149.44C529.94,-144.39 540.39,-138.97 550.05,-133.96"/>
<polygon fill="black" stroke="black" points="551.54,-137.13 558.8,-129.42 548.32,-130.92 551.54,-137.13"/>
</g>
<!-- done_b -->
<g id="node5" class="node">
<title>done_b</title>
<ellipse fill="white" stroke="black" cx="481.31" cy="-63.09" rx="43.13" ry="43.13"/>
<text xml:space="preserve" text-anchor="middle" x="481.31" y="-65.54" font-family="Arial" font-size="14.00">done_b</text>
<text xml:space="preserve" text-anchor="middle" x="481.31" y="-49.79" font-family="Arial" font-size="14.00">0</text>
</g>
<!-- done_b&#45;&gt;join -->
<g id="edge9" class="edge">
<title>done_b&#45;&gt;join</title>
<path fill="none" stroke="black" d="M520.5,-82.16C530.03,-86.92 540.23,-92.01 549.69,-96.73"/>
<polygon fill="black" stroke="black" points="548.12,-99.86 558.63,-101.2 551.24,-93.6 548.12,-99.86"/>
</g>
<!-- end -->
<g id="node6" class="node">
<title>end</title>
<ellipse fill="white" stroke="black" cx="678.38" cy="-115.09" rx="27.93" ry="27.93"/>
<text xml:space="preserve" text-anchor="middle" x="678.38" y="-117.54" font-family="Arial" font-size="14.00">end</text>
<text xml:space="preserve" text-anchor="middle" x="678.38" y="-101.79" font-family="Arial" font-size="14.00">0</text>
</g>
<!-- fork&#45;&gt;branch_a -->
<g id="edge2" class="edge">
<title>fork&#45;&gt;branch_a</title>
<path fill="none" stroke="black" d="M150.03,-125.16C159.44,-130.19 170.43,-136.08 181.35,-141.92"/>
<polygon fill="black" stroke="black" points="179.5,-144.9 189.96,-146.53 182.8,-138.73 179.5,-144.9"/>
</g>
<!-- fork&#45;&gt;branch_b -->
<g id="edge3" class="edge">
<title>fork&#45;&gt;branch_b</title>
<path fill="none" stroke="black" d="M150.03,-97.02C159.44,-91.98 170.43,-86.1 181.35,-80.26"/>
<polygon fill="black" stroke="black" points="182.8,-83.45 189.96,-75.64 179.5,-77.28 182.8,-83.45"/>
</g>
<!-- process_a&#45;&gt;done_a -->
<g id="edge5" class="edge">
<title>process_a&#45;&gt;done_a</title>
<path fill="none" stroke="black" d="M402.44,-169.76C410.17,-169.69 418.44,-169.62 426.58,-169.55"/>
<polygon fill="black" stroke="black" points="426.47,-173.05 436.44,-169.47 426.41,-166.05 426.47,-173.05"/>
</g>
<!-- process_b&#45;&gt;done_b -->
<g id="edge7" class="edge">
<title>process_b&#45;&gt;done_b</title>
<path fill="none" stroke="black" d="M402.44,-60.41C410.17,-60.68 418.44,-60.96 426.58,-61.24"/>
<polygon fill="black" stroke="black" points="426.32,-64.73 436.44,-61.58 426.56,-57.74 426.32,-64.73"/>
</g>
<!-- join&#45;&gt;end -->
<g id="edge10" class="edge">
<title>join&#45;&gt;end</title>
<path fill="none" stroke="black" d="M614.65,-115.09C622.24,-115.09 630.69,-115.09 638.87,-115.09"/>
<polygon fill="black" stroke="black" points="638.61,-118.59 648.61,-115.09 638.61,-111.59 638.61,-118.59"/>
</g>
</g>
</svg>
