<?xml version="1.0" encoding="UTF-8" standalone="no"?>
<!DOCTYPE svg PUBLIC "-//W3C//DTD SVG 1.1//EN"
 "http://www.w3.org/Graphics/SVG/1.1/DTD/svg11.dtd">
<!-- Generated by graphviz version 14.0.4 (20251115.1723)
 -->
<!-- Title: PetriNet Pages: 1 -->
<svg width="709pt" height="1309pt"
 viewBox="0.00 0.00 709.00 1309.00" xmlns="http://www.w3.org/2000/svg" xmlns:xlink="http://www.w3.org/1999/xlink">
<g id="graph0" class="graph" transform="scale(1 1) rotate(0) translate(4 1305.2)">
<title>PetriNet</title>
<polygon fill="white" stroke="none" points="-4,4 -4,-1305.2 705.13,-1305.2 705.13,4 -4,4"/>
<text xml:space="preserve" text-anchor="middle" x="350.57" y="-1283.9" font-family="Times,serif" font-size="14.00">Resource Pool &#45; Structure</text>
<!-- pool -->
<g id="node1" class="node">
<title>pool</title>
<ellipse fill="lightcoral" stroke="black" cx="29.34" cy="-579.29" rx="29.34" ry="29.34"/>
<text xml:space="preserve" text-anchor="middle" x="29.34" y="-581.74" font-family="Arial" font-size="14.00">pool</text>
<text xml:space="preserve" text-anchor="middle" x="29.34" y="-565.99" font-family="Arial" font-size="14.00">3/3</text>
</g>
<!-- worker0_start -->
<g id="node12" class="node">
<title>worker0_start</title>
<polygon fill="lightgreen" stroke="black" points="192.44,-1173.29 94.69,-1173.29 94.69,-1137.29 192.44,-1137.29 192.44,-1173.29"/>
<text xml:space="preserve" text-anchor="middle" x="143.56" y="-1149.86" font-family="Arial" font-size="14.00">worker0_start</text>
</g>
<!-- pool&#45;&gt;worker0_start -->
<g id="edge2" class="edge">
<title>pool&#45;&gt;worker0_start</title>
<path fill="none" stroke="black" d="M31.01,-608.88C33.41,-685.07 44.45,-893.56 94.69,-1058.29 102.1,-1082.58 115.04,-1108.27 125.6,-1127.11"/>
<polygon fill="black" stroke="black" points="122.55,-1128.84 130.57,-1135.76 128.62,-1125.35 122.55,-1128.84"/>
</g>
<!-- worker1_start -->
<g id="node14" class="node">
<title>worker1_start</title>
<polygon fill="lightgreen" stroke="black" points="192.44,-913.29 94.69,-913.29 94.69,-877.29 192.44,-877.29 192.44,-913.29"/>
<text xml:space="preserve" text-anchor="middle" x="143.56" y="-889.86" font-family="Arial" font-size="14.00">worker1_start</text>
</g>
<!-- pool&#45;&gt;worker1_start -->
<g id="edge8" class="edge">
<title>pool&#45;&gt;worker1_start</title>
<path fill="none" stroke="black" d="M37.05,-607.81C47.36,-650.11 68.68,-731.66 94.69,-798.29 103.98,-822.09 116.92,-847.99 127,-867.04"/>
<polygon fill="black" stroke="black" points="123.89,-868.63 131.7,-875.79 130.05,-865.32 123.89,-868.63"/>
</g>
<!-- worker2_start -->
<g id="node16" class="node">
<title>worker2_start</title>
<polygon fill="lightgreen" stroke="black" points="192.44,-653.29 94.69,-653.29 94.69,-617.29 192.44,-617.29 192.44,-653.29"/>
<text xml:space="preserve" text-anchor="middle" x="143.56" y="-629.86" font-family="Arial" font-size="14.00">worker2_start</text>
</g>
<!-- pool&#45;&gt;worker2_start -->
<g id="edge14" class="edge">
<title>pool&#45;&gt;worker2_start</title>
<path fill="none" stroke="black" d="M56.09,-592.14C67.85,-598 82.15,-605.14 95.71,-611.91"/>
<polygon fill="black" stroke="black" points="94.02,-614.97 104.53,-616.31 97.14,-608.71 94.02,-614.97"/>
</g>
<!-- worker3_start -->
<g id="node18" class="node">
<title>worker3_start</title>
<polygon fill="lightgreen" stroke="black" points="192.44,-496.29 94.69,-496.29 94.69,-460.29 192.44,-460.29 192.44,-496.29"/>
<text xml:space="preserve" text-anchor="middle" x="143.56" y="-472.86" font-family="Arial" font-size="14.00">worker3_start</text>
</g>
<!-- pool&#45;&gt;worker3_start -->
<g id="edge20" class="edge">
<title>pool&#45;&gt;worker3_start</title>
<path fill="none" stroke="black" d="M48.87,-556.9C61.12,-542.75 77.97,-524.51 94.69,-510.29 97.47,-507.93 100.43,-505.58 103.46,-503.31"/>
<polygon fill="black" stroke="black" points="105.35,-506.27 111.44,-497.6 101.27,-500.57 105.35,-506.27"/>
</g>
<!-- worker4_start -->
<g id="node20" class="node">
<title>worker4_start</title>
<polygon fill="lightgreen" stroke="black" points="192.44,-236.29 94.69,-236.29 94.69,-200.29 192.44,-200.29 192.44,-236.29"/>
<text xml:space="preserve" text-anchor="middle" x="143.56" y="-212.86" font-family="Arial" font-size="14.00">worker4_start</text>
</g>
<!-- pool&#45;&gt;worker4_start -->
<g id="edge26" class="edge">
<title>pool&#45;&gt;worker4_start</title>
<path fill="none" stroke="black" d="M33.19,-549.94C40.52,-478.84 61.83,-299.64 94.69,-250.29 96.09,-248.19 97.67,-246.2 99.39,-244.31"/>
<polygon fill="black" stroke="black" points="101.58,-247.05 106.56,-237.7 96.83,-241.91 101.58,-247.05"/>
</g>
<!-- worker0_idle -->
<g id="node2" class="node">
<title>worker0_idle</title>
<ellipse fill="lightblue" stroke="black" cx="635.72" cy="-1211.29" rx="65.41" ry="65.41"/>
<text xml:space="preserve" text-anchor="middle" x="635.72" y="-1213.74" font-family="Arial" font-size="14.00">worker0_idle</text>
<text xml:space="preserve" text-anchor="middle" x="635.72" y="-1197.99" font-family="Arial" font-size="14.00">1</text>
</g>
<!-- worker0_idle&#45;&gt;worker0_start -->
<g id="edge1" class="edge">
<title>worker0_idle&#45;&gt;worker0_start</title>
<path fill="none" stroke="black" d="M574.24,-1234.27C492.15,-1261.63 342.61,-1297.7 228.44,-1247.29 198.95,-1234.27 175.35,-1205.19 160.79,-1183.18"/>
<polygon fill="black" stroke="black" points="163.87,-1181.5 155.56,-1174.93 157.96,-1185.25 163.87,-1181.5"/>
</g>
<!-- worker0_working -->
<g id="node3" class="node">
<title>worker0_working</title>
<ellipse fill="white" stroke="black" cx="311.88" cy="-1155.29" rx="83.44" ry="83.44"/>
<text xml:space="preserve" text-anchor="middle" x="311.88" y="-1157.74" font-family="Arial" font-size="14.00">worker0_working</text>
<text xml:space="preserve" text-anchor="middle" x="311.88" y="-1141.99" font-family="Arial" font-size="14.00">0</text>
</g>
<!-- worker0_finish -->
<g id="node13" class="node">
<title>worker0_finish</title>
<polygon fill="lightgray" stroke="black" points="534.32,-1173.29 431.32,-1173.29 431.32,-1137.29 534.32,-1137.29 534.32,-1173.29"/>
<text xml:space="preserve" text-anchor="middle" x="482.82" y="-1149.86" font-family="Arial" font-size="14.00">worker0_finish</text>
</g>
<!-- worker0_working&#45;&gt;worker0_finish -->
<g id="edge4" class="edge">
<title>worker0_working&#45;&gt;worker0_finish</title>
<path fill="none" stroke="black" d="M395.37,-1155.29C403.58,-1155.29 411.83,-1155.29 419.78,-1155.29"/>
<polygon fill="black" stroke="black" points="419.68,-1158.79 429.68,-1155.29 419.68,-1151.79 419.68,-1158.79"/>
</g>
<!-- worker1_idle -->
<g id="node4" class="node">
<title>worker1_idle</title>
<ellipse fill="lightblue" stroke="black" cx="635.72" cy="-950.29" rx="65.41" ry="65.41"/>
<text xml:space="preserve" text-anchor="middle" x="635.72" y="-952.74" font-family="Arial" font-size="14.00">worker1_idle</text>
<text xml:space="preserve" text-anchor="middle" x="635.72" y="-936.99" font-family="Arial" font-size="14.00">1</text>
</g>
<!-- worker1_idle&#45;&gt;worker1_start -->
<g id="edge7" class="edge">
<title>worker1_idle&#45;&gt;worker1_start</title>
<path fill="none" stroke="black" d="M574.25,-973.5C492.17,-1001.17 342.64,-1037.71 228.44,-987.29 198.95,-974.27 175.35,-945.19 160.79,-923.18"/>
<polygon fill="black" stroke="black" points="163.87,-921.5 155.56,-914.93 157.96,-925.25 163.87,-921.5"/>
</g>
<!-- worker1_working -->
<g id="node5" class="node">
<title>worker1_working</title>
<ellipse fill="white" stroke="black" cx="311.88" cy="-895.29" rx="83.44" ry="83.44"/>
<text xml:space="preserve" text-anchor="middle" x="311.88" y="-897.74" font-family="Arial" font-size="14.00">worker1_working</text>
<text xml:space="preserve" text-anchor="middle" x="311.88" y="-881.99" font-family="Arial" font-size="14.00">0</text>
</g>
<!-- worker1_finish -->
<g id="node15" class="node">
<title>worker1_finish</title>
<polygon fill="lightgray" stroke="black" points="534.32,-913.29 431.32,-913.29 431.32,-877.29 534.32,-877.29 534.32,-913.29"/>
<text xml:space="preserve" text-anchor="middle" x="482.82" y="-889.86" font-family="Arial" font-size="14.00">worker1_finish</text>
</g>
<!-- worker1_working&#45;&gt;worker1_finish -->
<g id="edge10" class="edge">
<title>worker1_working&#45;&gt;worker1_finish</title>
<path fill="none" stroke="black" d="M395.37,-895.29C403.58,-895.29 411.83,-895.29 419.78,-895.29"/>
<polygon fill="black" stroke="black" points="419.68,-898.79 429.68,-895.29 419.68,-891.79 419.68,-898.79"/>
</g>
<!-- worker2_idle -->
<g id="node6" class="node">
<title>worker2_idle</title>
<ellipse fill="lightblue" stroke="black" cx="635.72" cy="-690.29" rx="65.41" ry="65.41"/>
<text xml:space="preserve" text-anchor="middle" x="635.72" y="-692.74" font-family="Arial" font-size="14.00">worker2_idle</text>
<text xml:space="preserve" text-anchor="middle" x="635.72" y="-676.99" font-family="Arial" font-size="14.00">1</text>
</g>
<!-- worker2_idle&#45;&gt;worker2_start -->
<g id="edge13" class="edge">
<title>worker2_idle&#45;&gt;worker2_start</title>
<path fill="none" stroke="black" d="M574.25,-713.5C492.17,-741.17 342.64,-777.71 228.44,-727.29 198.95,-714.27 175.35,-685.19 160.79,-663.18"/>
<polygon fill="black" stroke="black" points="163.87,-661.5 155.56,-654.93 157.96,-665.25 163.87,-661.5"/>
</g>
<!-- worker2_working -->
<g id="node7" class="node">
<title>worker2_working</title>
<ellipse fill="white" stroke="black" cx="311.88" cy="-635.29" rx="83.44" ry="83.44"/>
<text xml:space="preserve" text-anchor="middle" x="311.88" y="-637.74" font-family="Arial" font-size="14.00">worker2_working</text>
<text xml:space="preserve" text-anchor="middle" x="311.88" y="-621.99" font-family="Arial" font-size="14.00">0</text>
</g>
<!-- worker2_finish -->
<g id="node17" class="node">
<title>worker2_finish</title>
<polygon fill="lightgray" stroke="black" points="534.32,-653.29 431.32,-653.29 431.32,-617.29 534.32,-617.29 534.32,-653.29"/>
<text xml:space="preserve" text-anchor="middle" x="482.82" y="-629.86" font-family="Arial" font-size="14.00">worker2_finish</text>
</g>
<!-- worker2_working&#45;&gt;worker2_finish -->
<g id="edge16" class="edge">
<title>worker2_working&#45;&gt;worker2_finish</title>
<path fill="none" stroke="black" d="M395.37,-635.29C403.58,-635.29 411.83,-635.29 419.78,-635.29"/>
<polygon fill="black" stroke="black" points="419.68,-638.79 429.68,-635.29 419.68,-631.79 419.68,-638.79"/>
</g>
<!-- worker3_idle -->
<g id="node8" class="node">
<title>worker3_idle</title>
<ellipse fill="lightblue" stroke="black" cx="635.72" cy="-402.29" rx="65.41" ry="65.41"/>
<text xml:space="preserve" text-anchor="middle" x="635.72" y="-404.74" font-family="Arial" font-size="14.00">worker3_idle</text>
<text xml:space="preserve" text-anchor="middle" x="635.72" y="-388.99" font-family="Arial" font-size="14.00">1</text>
</g>
<!-- worker3_idle&#45;&gt;worker3_start -->
<g id="edge19" class="edge">
<title>worker3_idle&#45;&gt;worker3_start</title>
<path fill="none" stroke="black" d="M573.53,-422.93C525.63,-438.1 457.02,-457.68 395.32,-467.29 330.41,-477.4 254.99,-479.41 203.95,-479.37"/>
<polygon fill="black" stroke="black" points="204.01,-475.87 193.99,-479.33 203.98,-482.87 204.01,-475.87"/>
</g>
<!-- worker3_working -->
<g id="node9" class="node">
<title>worker3_working</title>
<ellipse fill="white" stroke="black" cx="311.88" cy="-375.29" rx="83.44" ry="83.44"/>
<text xml:space="preserve" text-anchor="middle" x="311.88" y="-377.74" font-family="Arial" font-size="14.00">worker3_working</text>
<text xml:space="preserve" text-anchor="middle" x="311.88" y="-361.99" font-family="Arial" font-size="14.00">0</text>
</g>
<!-- worker3_finish -->
<g id="node19" class="node">
<title>worker3_finish</title>
<polygon fill="lightgray" stroke="black" points="534.32,-393.29 431.32,-393.29 431.32,-357.29 534.32,-357.29 534.32,-393.29"/>
<text xml:space="preserve" text-anchor="middle" x="482.82" y="-369.86" font-family="Arial" font-size="14.00">worker3_finish</text>
</g>
<!-- worker3_working&#45;&gt;worker3_finish -->
<g id="edge22" class="edge">
<title>worker3_working&#45;&gt;worker3_finish</title>
<path fill="none" stroke="black" d="M395.37,-375.29C403.58,-375.29 411.83,-375.29 419.78,-375.29"/>
<polygon fill="black" stroke="black" points="419.68,-378.79 429.68,-375.29 419.68,-371.79 419.68,-378.79"/>
</g>
<!-- worker4_idle -->
<g id="node10" class="node">
<title>worker4_idle</title>
<ellipse fill="lightblue" stroke="black" cx="635.72" cy="-198.29" rx="65.41" ry="65.41"/>
<text xml:space="preserve" text-anchor="middle" x="635.72" y="-200.74" font-family="Arial" font-size="14.00">worker4_idle</text>
<text xml:space="preserve" text-anchor="middle" x="635.72" y="-184.99" font-family="Arial" font-size="14.00">1</text>
</g>
<!-- worker4_idle&#45;&gt;worker4_start -->
<g id="edge25" class="edge">
<title>worker4_idle&#45;&gt;worker4_start</title>
<path fill="none" stroke="black" d="M570.22,-200.92C474.72,-204.82 297.02,-212.07 204.32,-215.85"/>
<polygon fill="black" stroke="black" points="204.27,-212.35 194.42,-216.26 204.55,-219.34 204.27,-212.35"/>
</g>
<!-- worker4_working -->
<g id="node11" class="node">
<title>worker4_working</title>
<ellipse fill="white" stroke="black" cx="311.88" cy="-115.29" rx="83.44" ry="83.44"/>
<text xml:space="preserve" text-anchor="middle" x="311.88" y="-117.74" font-family="Arial" font-size="14.00">worker4_working</text>
<text xml:space="preserve" text-anchor="middle" x="311.88" y="-101.99" font-family="Arial" font-size="14.00">0</text>
</g>
<!-- worker4_finish -->
<g id="node21" class="node">
<title>worker4_finish</title>
<polygon fill="lightgray" stroke="black" points="534.32,-133.29 431.32,-133.29 431.32,-97.29 534.32,-97.29 534.32,-133.29"/>
<text xml:space="preserve" text-anchor="middle" x="482.82" y="-109.86" font-family="Arial" font-size="14.00">worker4_finish</text>
</g>
<!-- worker4_working&#45;&gt;worker4_finish -->
<g id="edge28" class="edge">
<title>worker4_working&#45;&gt;worker4_finish</title>
<path fill="none" stroke="black" d="M395.37,-115.29C403.58,-115.29 411.83,-115.29 419.78,-115.29"/>
<polygon fill="black" stroke="black" points="419.68,-118.79 429.68,-115.29 419.68,-111.79 419.68,-118.79"/>
</g>
<!-- worker0_start&#45;&gt;worker0_working -->
<g id="edge3" class="edge">
<title>worker0_start&#45;&gt;worker0_working</title>
<path fill="none" stroke="black" d="M192.67,-1155.29C200.32,-1155.29 208.46,-1155.29 216.74,-1155.29"/>
<polygon fill="black" stroke="black" points="216.58,-1158.79 226.58,-1155.29 216.58,-1151.79 216.58,-1158.79"/>
</g>
<!-- worker0_finish&#45;&gt;pool -->
<g id="edge6" class="edge">
<title>worker0_finish&#45;&gt;pool</title>
<path fill="none" stroke="black" d="M469.31,-1136.98C454.14,-1116.16 426.7,-1082.57 395.32,-1063.29 329.45,-1022.83 298.24,-1047.5 228.44,-1014.29 163.29,-983.29 134.04,-982.76 94.69,-922.29 62.45,-872.74 41.97,-699.41 34.06,-619.81"/>
<polygon fill="black" stroke="black" points="37.58,-619.89 33.13,-610.28 30.62,-620.57 37.58,-619.89"/>
</g>
<!-- worker0_finish&#45;&gt;worker0_idle -->
<g id="edge5" class="edge">
<title>worker0_finish&#45;&gt;worker0_idle</title>
<path fill="none" stroke="black" d="M533.65,-1173.78C543.11,-1177.29 553.17,-1181.03 563.15,-1184.73"/>
<polygon fill="black" stroke="black" points="561.89,-1187.99 572.48,-1188.19 564.33,-1181.43 561.89,-1187.99"/>
</g>
<!-- worker1_start&#45;&gt;worker1_working -->
<g id="edge9" class="edge">
<title>worker1_start&#45;&gt;worker1_working</title>
<path fill="none" stroke="black" d="M192.67,-895.29C200.32,-895.29 208.46,-895.29 216.74,-895.29"/>
<polygon fill="black" stroke="black" points="216.58,-898.79 226.58,-895.29 216.58,-891.79 216.58,-898.79"/>
</g>
<!-- worker1_finish&#45;&gt;pool -->
<g id="edge12" class="edge">
<title>worker1_finish&#45;&gt;pool</title>
<path fill="none" stroke="black" d="M469.31,-876.98C454.14,-856.16 426.7,-822.57 395.32,-803.29 329.45,-762.83 298.24,-787.5 228.44,-754.29 163.29,-723.29 147.14,-711.83 94.69,-662.29 79.07,-647.53 64.19,-628.77 52.68,-612.82"/>
<polygon fill="black" stroke="black" points="55.82,-611.19 47.19,-605.04 50.1,-615.23 55.82,-611.19"/>
</g>
<!-- worker1_finish&#45;&gt;worker1_idle -->
<g id="edge11" class="edge">
<title>worker1_finish&#45;&gt;worker1_idle</title>
<path fill="none" stroke="black" d="M534.49,-913.76C543.63,-917.09 553.32,-920.62 562.94,-924.12"/>
<polygon fill="black" stroke="black" points="561.71,-927.4 572.3,-927.54 564.1,-920.82 561.71,-927.4"/>
</g>
<!-- worker2_start&#45;&gt;worker2_working -->
<g id="edge15" class="edge">
<title>worker2_start&#45;&gt;worker2_working</title>
<path fill="none" stroke="black" d="M192.67,-635.29C200.32,-635.29 208.46,-635.29 216.74,-635.29"/>
<polygon fill="black" stroke="black" points="216.58,-638.79 226.58,-635.29 216.58,-631.79 216.58,-638.79"/>
</g>
<!-- worker2_finish&#45;&gt;pool -->
<g id="edge18" class="edge">
<title>worker2_finish&#45;&gt;pool</title>
<path fill="none" stroke="black" d="M471.17,-616.91C457.08,-594.64 429.93,-558.25 395.32,-543.29 283.77,-495.06 135.66,-538.76 67.53,-564.12"/>
<polygon fill="black" stroke="black" points="66.43,-560.8 58.33,-567.63 68.92,-567.34 66.43,-560.8"/>
</g>
<!-- worker2_finish&#45;&gt;worker2_idle -->
<g id="edge17" class="edge">
<title>worker2_finish&#45;&gt;worker2_idle</title>
<path fill="none" stroke="black" d="M534.49,-653.76C543.63,-657.09 553.32,-660.62 562.94,-664.12"/>
<polygon fill="black" stroke="black" points="561.71,-667.4 572.3,-667.54 564.1,-660.82 561.71,-667.4"/>
</g>
<!-- worker3_start&#45;&gt;worker3_working -->
<g id="edge21" class="edge">
<title>worker3_start&#45;&gt;worker3_working</title>
<path fill="none" stroke="black" d="M174.3,-459.87C190.19,-450.03 210.59,-437.4 230.76,-424.91"/>
<polygon fill="black" stroke="black" points="232.35,-428.04 239.01,-419.8 228.67,-422.09 232.35,-428.04"/>
</g>
<!-- worker3_finish&#45;&gt;pool -->
<g id="edge24" class="edge">
<title>worker3_finish&#45;&gt;pool</title>
<path fill="none" stroke="black" d="M471.17,-356.91C457.08,-334.64 429.93,-298.25 395.32,-283.29 327.24,-253.85 295.25,-251.08 228.44,-283.29 122.65,-334.29 64.8,-472.54 41.98,-540.51"/>
<polygon fill="black" stroke="black" points="38.74,-539.14 38.96,-549.74 45.4,-541.32 38.74,-539.14"/>
</g>
<!-- worker3_finish&#45;&gt;worker3_idle -->
<g id="edge23" class="edge">
<title>worker3_finish&#45;&gt;worker3_idle</title>
<path fill="none" stroke="black" d="M534.49,-384.35C542.64,-385.81 551.23,-387.35 559.82,-388.89"/>
<polygon fill="black" stroke="black" points="559.11,-392.31 569.57,-390.63 560.34,-385.42 559.11,-392.31"/>
</g>
<!-- worker4_start&#45;&gt;worker4_working -->
<g id="edge27" class="edge">
<title>worker4_start&#45;&gt;worker4_working</title>
<path fill="none" stroke="black" d="M174.3,-199.87C190.19,-190.03 210.59,-177.4 230.76,-164.91"/>
<polygon fill="black" stroke="black" points="232.35,-168.04 239.01,-159.8 228.67,-162.09 232.35,-168.04"/>
</g>
<!-- worker4_finish&#45;&gt;pool -->
<g id="edge30" class="edge">
<title>worker4_finish&#45;&gt;pool</title>
<path fill="none" stroke="black" d="M471.17,-96.91C457.08,-74.64 429.93,-38.25 395.32,-23.29 327.24,6.15 295.25,8.92 228.44,-23.29 142.47,-64.73 133.46,-104.08 94.69,-191.29 42.14,-309.49 32.13,-465.24 30.47,-538.23"/>
<polygon fill="black" stroke="black" points="26.98,-538.05 30.3,-548.11 33.98,-538.18 26.98,-538.05"/>
</g>
<!-- worker4_finish&#45;&gt;worker4_idle -->
<g id="edge29" class="edge">
<title>worker4_finish&#45;&gt;worker4_idle</title>
<path fill="none" stroke="black" d="M517.31,-133.71C532.33,-141.97 550.6,-152.02 568.21,-161.71"/>
<polygon fill="black" stroke="black" points="566.13,-164.56 576.58,-166.31 569.5,-158.42 566.13,-164.56"/>
</g>
</g>
</svg>
