<?xml version="1.0" encoding="UTF-8" standalone="no"?>
<!DOCTYPE svg PUBLIC "-//W3C//DTD SVG 1.1//EN"
 "http://www.w3.org/Graphics/SVG/1.1/DTD/svg11.dtd">
<!-- Generated by graphviz version 14.0.4 (20251115.1723)
 -->
<!-- Title: ReachabilityGraph Pages: 1 -->
<svg width="4797pt" height="1988pt"
 viewBox="0.00 0.00 4797.00 1988.00" xmlns="http://www.w3.org/2000/svg" xmlns:xlink="http://www.w3.org/1999/xlink">
<g id="graph0" class="graph" transform="scale(1 1) rotate(0) translate(4 1984.25)">
<title>ReachabilityGraph</title>
<polygon fill="white" stroke="none" points="-4,4 -4,-1984.25 4793.33,-1984.25 4793.33,4 -4,4"/>
<text xml:space="preserve" text-anchor="middle" x="2394.66" y="-1962.95" font-family="Times,serif" font-size="14.00">Resource Pool &#45; Reachability</text>
<!-- M0 -->
<g id="node1" class="node">
<title>M0</title>
<polygon fill="lightblue" stroke="black" points="2565.33,-1955.75 1423.58,-1955.75 1423.58,-1916.25 2565.33,-1916.25 2565.33,-1955.75"/>
<text xml:space="preserve" text-anchor="middle" x="1994.45" y="-1938.45" font-family="Arial" font-size="14.00">M0 (initial)</text>
<text xml:space="preserve" text-anchor="middle" x="1994.45" y="-1922.7" font-family="Arial" font-size="14.00">{pool:3, worker0_idle:1, worker0_working:0, worker1_idle:1, worker1_working:0, worker2_idle:1, worker2_working:0, worker3_idle:1, worker3_working:0, worker4_idle:1, worker4_working:0}</text>
</g>
<!-- M1 -->
<g id="node2" class="node">
<title>M1</title>
<polygon fill="white" stroke="black" points="2566.33,-1864.5 1424.58,-1864.5 1424.58,-1825 2566.33,-1825 2566.33,-1864.5"/>
<text xml:space="preserve" text-anchor="middle" x="1995.45" y="-1847.2" font-family="Arial" font-size="14.00">M1</text>
<text xml:space="preserve" text-anchor="middle" x="1995.45" y="-1831.45" font-family="Arial" font-size="14.00">{pool:2, worker0_idle:0, worker0_working:1, worker1_idle:1, worker1_working:0, worker2_idle:1, worker2_working:0, worker3_idle:1, worker3_working:0, worker4_idle:1, worker4_working:0}</text>
</g>
<!-- M0&#45;&gt;M1 -->
<g id="edge1" class="edge">
<title>M0&#45;&gt;M1</title>
<path fill="none" stroke="black" d="M1958.16,-1915.83C1946.09,-1906.74 1937.19,-1895.12 1943.7,-1882.5 1945.53,-1878.97 1947.87,-1875.7 1950.54,-1872.69"/>
<polygon fill="black" stroke="black" points="1952.82,-1875.35 1957.7,-1865.94 1948.02,-1870.26 1952.82,-1875.35"/>
<text xml:space="preserve" text-anchor="middle" x="1984.58" y="-1884.95" font-family="Arial" font-size="14.00">worker0_start</text>
</g>
<!-- M2 -->
<g id="node3" class="node">
<title>M2</title>
<polygon fill="white" stroke="black" points="4289.33,-587 3147.58,-587 3147.58,-547.5 4289.33,-547.5 4289.33,-587"/>
<text xml:space="preserve" text-anchor="middle" x="3718.45" y="-569.7" font-family="Arial" font-size="14.00">M2</text>
<text xml:space="preserve" text-anchor="middle" x="3718.45" y="-553.95" font-family="Arial" font-size="14.00">{pool:2, worker0_idle:1, worker0_working:0, worker1_idle:0, worker1_working:1, worker2_idle:1, worker2_working:0, worker3_idle:1, worker3_working:0, worker4_idle:1, worker4_working:0}</text>
</g>
<!-- M0&#45;&gt;M2 -->
<g id="edge2" class="edge">
<title>M0&#45;&gt;M2</title>
<path fill="none" stroke="black" d="M2565.63,-1929.66C3015.74,-1924.32 3605.95,-1914.53 3845.45,-1898.25 4015.11,-1886.72 4224.45,-2015.8 4224.45,-1845.75 4224.45,-1845.75 4224.45,-1845.75 4224.45,-1387.5 4224.45,-1307.22 4217.45,-1287.28 4217.45,-1207 4217.45,-1207 4217.45,-1207 4217.45,-657.5 4217.45,-627.43 4075.25,-604.03 3942.68,-588.75"/>
<polygon fill="black" stroke="black" points="3943.36,-585.31 3933.02,-587.65 3942.56,-592.26 3943.36,-585.31"/>
<text xml:space="preserve" text-anchor="middle" x="4259.47" y="-1246.2" font-family="Arial" font-size="14.00">worker1_start</text>
</g>
<!-- M3 -->
<g id="node4" class="node">
<title>M3</title>
<polygon fill="white" stroke="black" points="1390.33,-1134.5 248.58,-1134.5 248.58,-1095 1390.33,-1095 1390.33,-1134.5"/>
<text xml:space="preserve" text-anchor="middle" x="819.45" y="-1117.2" font-family="Arial" font-size="14.00">M3</text>
<text xml:space="preserve" text-anchor="middle" x="819.45" y="-1101.45" font-family="Arial" font-size="14.00">{pool:2, worker0_idle:1, worker0_working:0, worker1_idle:1, worker1_working:0, worker2_idle:0, worker2_working:1, worker3_idle:1, worker3_working:0, worker4_idle:1, worker4_working:0}</text>
</g>
<!-- M0&#45;&gt;M3 -->
<g id="edge3" class="edge">
<title>M0&#45;&gt;M3</title>
<path fill="none" stroke="black" d="M1423.31,-1930.46C942.08,-1922.7 331.45,-1901.81 331.45,-1845.75 331.45,-1845.75 331.45,-1845.75 331.45,-1570 331.45,-1480.5 277.74,-1445.09 324.45,-1368.75 407.38,-1233.24 588.32,-1167.39 706.95,-1137.65"/>
<polygon fill="black" stroke="black" points="707.52,-1141.11 716.4,-1135.33 705.85,-1134.31 707.52,-1141.11"/>
<text xml:space="preserve" text-anchor="middle" x="369.13" y="-1519.95" font-family="Arial" font-size="14.00">worker2_start</text>
</g>
<!-- M4 -->
<g id="node5" class="node">
<title>M4</title>
<polygon fill="white" stroke="black" points="3108.33,-769.5 1966.58,-769.5 1966.58,-730 3108.33,-730 3108.33,-769.5"/>
<text xml:space="preserve" text-anchor="middle" x="2537.45" y="-752.2" font-family="Arial" font-size="14.00">M4</text>
<text xml:space="preserve" text-anchor="middle" x="2537.45" y="-736.45" font-family="Arial" font-size="14.00">{pool:2, worker0_idle:1, worker0_working:0, worker1_idle:1, worker1_working:0, worker2_idle:1, worker2_working:0, worker3_idle:0, worker3_working:1, worker4_idle:1, worker4_working:0}</text>
</g>
<!-- M0&#45;&gt;M4 -->
<g id="edge4" class="edge">
<title>M0&#45;&gt;M4</title>
<path fill="none" stroke="black" d="M2565.71,-1923.26C3163.95,-1909.01 4017.45,-1882.29 4017.45,-1845.75 4017.45,-1845.75 4017.45,-1845.75 4017.45,-1387.5 4017.45,-1364.16 4015.56,-1358.13 4018.7,-1335 4034.6,-1217.85 4068.36,-1194.25 4083.45,-1077 4089.02,-1033.74 4084.45,-1022.49 4084.45,-978.88 4084.45,-978.88 4084.45,-978.88 4084.45,-840 4084.45,-789.8 3558.45,-767.8 3119.87,-758.18"/>
<polygon fill="black" stroke="black" points="3120.14,-754.68 3110.07,-757.97 3119.99,-761.68 3120.14,-754.68"/>
<text xml:space="preserve" text-anchor="middle" x="4059.58" y="-1337.45" font-family="Arial" font-size="14.00">worker3_start</text>
</g>
<!-- M5 -->
<g id="node6" class="node">
<title>M5</title>
<polygon fill="white" stroke="black" points="1444.33,-404.5 302.58,-404.5 302.58,-365 1444.33,-365 1444.33,-404.5"/>
<text xml:space="preserve" text-anchor="middle" x="873.45" y="-387.2" font-family="Arial" font-size="14.00">M5</text>
<text xml:space="preserve" text-anchor="middle" x="873.45" y="-371.45" font-family="Arial" font-size="14.00">{pool:2, worker0_idle:1, worker0_working:0, worker1_idle:1, worker1_working:0, worker2_idle:1, worker2_working:0, worker3_idle:1, worker3_working:0, worker4_idle:0, worker4_working:1}</text>
</g>
<!-- M0&#45;&gt;M5 -->
<g id="edge5" class="edge">
<title>M0&#45;&gt;M5</title>
<path fill="none" stroke="black" d="M1423.26,-1930.87C886.56,-1925.93 156.24,-1915.99 92.45,-1898.25 47.47,-1885.74 1.45,-1892.44 1.45,-1845.75 1.45,-1845.75 1.45,-1845.75 1.45,-1205 1.45,-1181.66 -2.08,-1175.35 2.7,-1152.5 9.24,-1121.25 211.21,-651.3 220.45,-620.75 246.49,-534.72 192.63,-481.48 260.45,-422.5 267.52,-416.36 284.18,-411.21 307.67,-406.9"/>
<polygon fill="black" stroke="black" points="308.18,-410.36 317.45,-405.23 307,-403.46 308.18,-410.36"/>
<text xml:space="preserve" text-anchor="middle" x="43.58" y="-1154.95" font-family="Arial" font-size="14.00">worker4_start</text>
</g>
<!-- M1&#45;&gt;M0 -->
<g id="edge6" class="edge">
<title>M1&#45;&gt;M0</title>
<path fill="none" stroke="black" d="M2015.91,-1864.93C2023.66,-1874.55 2029.7,-1886.62 2025.45,-1898.25 2024.39,-1901.16 2022.98,-1904 2021.35,-1906.73"/>
<polygon fill="black" stroke="black" points="2018.53,-1904.65 2015.57,-1914.82 2024.23,-1908.72 2018.53,-1904.65"/>
<text xml:space="preserve" text-anchor="middle" x="2070.35" y="-1884.95" font-family="Arial" font-size="14.00">worker0_finish</text>
</g>
<!-- M6 -->
<g id="node7" class="node">
<title>M6</title>
<polygon fill="white" stroke="black" points="4004.33,-313.25 2862.58,-313.25 2862.58,-273.75 4004.33,-273.75 4004.33,-313.25"/>
<text xml:space="preserve" text-anchor="middle" x="3433.45" y="-295.95" font-family="Arial" font-size="14.00">M6</text>
<text xml:space="preserve" text-anchor="middle" x="3433.45" y="-280.2" font-family="Arial" font-size="14.00">{pool:1, worker0_idle:0, worker0_working:1, worker1_idle:0, worker1_working:1, worker2_idle:1, worker2_working:0, worker3_idle:1, worker3_working:0, worker4_idle:1, worker4_working:0}</text>
</g>
<!-- M1&#45;&gt;M6 -->
<g id="edge7" class="edge">
<title>M1&#45;&gt;M6</title>
<path fill="none" stroke="black" d="M2566.64,-1841.3C3107.49,-1837.66 3846.29,-1828.73 3909.45,-1807 3946.23,-1794.35 3979.45,-1793.39 3979.45,-1754.5 3979.45,-1754.5 3979.45,-1754.5 3979.45,-1433.12 3979.45,-1267.65 3941.46,-1216.88 3997.7,-1061.25 4049.43,-918.11 4089.44,-888.32 4203.45,-787.5 4328.25,-677.15 4507.45,-734.83 4507.45,-568.25 4507.45,-568.25 4507.45,-568.25 4507.45,-429.38 4507.45,-330.76 4406.08,-345.18 4308.45,-331.25 4247.56,-322.56 4137.75,-315.69 4016.03,-310.36"/>
<polygon fill="black" stroke="black" points="4016.25,-306.87 4006.11,-309.93 4015.95,-313.86 4016.25,-306.87"/>
<text xml:space="preserve" text-anchor="middle" x="4038.58" y="-1063.7" font-family="Arial" font-size="14.00">worker1_start</text>
</g>
<!-- M7 -->
<g id="node8" class="node">
<title>M7</title>
<polygon fill="white" stroke="black" points="1475.33,-1408.25 333.58,-1408.25 333.58,-1368.75 1475.33,-1368.75 1475.33,-1408.25"/>
<text xml:space="preserve" text-anchor="middle" x="904.45" y="-1390.95" font-family="Arial" font-size="14.00">M7</text>
<text xml:space="preserve" text-anchor="middle" x="904.45" y="-1375.2" font-family="Arial" font-size="14.00">{pool:1, worker0_idle:0, worker0_working:1, worker1_idle:1, worker1_working:0, worker2_idle:0, worker2_working:1, worker3_idle:1, worker3_working:0, worker4_idle:1, worker4_working:0}</text>
</g>
<!-- M1&#45;&gt;M7 -->
<g id="edge8" class="edge">
<title>M1&#45;&gt;M7</title>
<path fill="none" stroke="black" d="M1499.43,-1824.52C1211.23,-1809.89 904.45,-1786.75 904.45,-1754.5 904.45,-1754.5 904.45,-1754.5 904.45,-1478.75 904.45,-1459.2 904.45,-1437.25 904.45,-1420.01"/>
<polygon fill="black" stroke="black" points="907.95,-1420.16 904.45,-1410.16 900.95,-1420.16 907.95,-1420.16"/>
<text xml:space="preserve" text-anchor="middle" x="945.33" y="-1611.2" font-family="Arial" font-size="14.00">worker2_start</text>
</g>
<!-- M8 -->
<g id="node9" class="node">
<title>M8</title>
<polygon fill="white" stroke="black" points="2869.33,-1590.75 1727.58,-1590.75 1727.58,-1551.25 2869.33,-1551.25 2869.33,-1590.75"/>
<text xml:space="preserve" text-anchor="middle" x="2298.45" y="-1573.45" font-family="Arial" font-size="14.00">M8</text>
<text xml:space="preserve" text-anchor="middle" x="2298.45" y="-1557.7" font-family="Arial" font-size="14.00">{pool:1, worker0_idle:0, worker0_working:1, worker1_idle:1, worker1_working:0, worker2_idle:1, worker2_working:0, worker3_idle:0, worker3_working:1, worker4_idle:1, worker4_working:0}</text>
</g>
<!-- M1&#45;&gt;M8 -->
<g id="edge9" class="edge">
<title>M1&#45;&gt;M8</title>
<path fill="none" stroke="black" d="M1943.9,-1824.53C1921.4,-1813.25 1897.26,-1796.56 1884.45,-1773.25 1856.47,-1722.32 1846.97,-1686.91 1884.45,-1642.5 1904.15,-1619.16 1955.31,-1603.55 2015.21,-1593.1"/>
<polygon fill="black" stroke="black" points="2015.72,-1596.56 2025,-1591.46 2014.56,-1589.66 2015.72,-1596.56"/>
<text xml:space="preserve" text-anchor="middle" x="1901.89" y="-1702.45" font-family="Arial" font-size="14.00">worker3_start</text>
</g>
<!-- M9 -->
<g id="node10" class="node">
<title>M9</title>
<polygon fill="white" stroke="black" points="3035.33,-1773.25 1893.58,-1773.25 1893.58,-1733.75 3035.33,-1733.75 3035.33,-1773.25"/>
<text xml:space="preserve" text-anchor="middle" x="2464.45" y="-1755.95" font-family="Arial" font-size="14.00">M9</text>
<text xml:space="preserve" text-anchor="middle" x="2464.45" y="-1740.2" font-family="Arial" font-size="14.00">{pool:1, worker0_idle:0, worker0_working:1, worker1_idle:1, worker1_working:0, worker2_idle:1, worker2_working:0, worker3_idle:1, worker3_working:0, worker4_idle:0, worker4_working:1}</text>
</g>
<!-- M1&#45;&gt;M9 -->
<g id="edge10" class="edge">
<title>M1&#45;&gt;M9</title>
<path fill="none" stroke="black" d="M2117.76,-1824.52C2150.22,-1819.14 2185.21,-1813.09 2217.45,-1807 2267.1,-1797.62 2322.1,-1786.05 2367.58,-1776.15"/>
<polygon fill="black" stroke="black" points="2368.12,-1779.62 2377.15,-1774.07 2366.63,-1772.78 2368.12,-1779.62"/>
<text xml:space="preserve" text-anchor="middle" x="2333.21" y="-1793.7" font-family="Arial" font-size="14.00">worker4_start</text>
</g>
<!-- M2&#45;&gt;M0 -->
<g id="edge12" class="edge">
<title>M2&#45;&gt;M0</title>
<path fill="none" stroke="black" d="M4093,-587.47C4156.23,-598.14 4208.78,-614.33 4231.45,-638.75 4364.17,-781.71 4322.45,-873.05 4322.45,-1068.12 4322.45,-1845.75 4322.45,-1845.75 4322.45,-1845.75 4322.45,-1971.05 4170.18,-1886.3 4045.45,-1898.25 3771.63,-1924.48 3081.45,-1932.44 2577.1,-1934.62"/>
<polygon fill="black" stroke="black" points="2577.09,-1931.12 2567.11,-1934.67 2577.12,-1938.12 2577.09,-1931.12"/>
<text xml:space="preserve" text-anchor="middle" x="4365.95" y="-1246.2" font-family="Arial" font-size="14.00">worker1_finish</text>
</g>
<!-- M2&#45;&gt;M6 -->
<g id="edge11" class="edge">
<title>M2&#45;&gt;M6</title>
<path fill="none" stroke="black" d="M3732.95,-547.09C3757.84,-515.68 3811.93,-453.6 3872.7,-422.5 3909.31,-403.77 3937.36,-436.28 3963.45,-404.5 3974.59,-390.93 3975.02,-378.21 3963.45,-365 3944.86,-343.78 3824.39,-326.81 3703,-314.84"/>
<polygon fill="black" stroke="black" points="3703.43,-311.37 3693.14,-313.89 3702.75,-318.34 3703.43,-311.37"/>
<text xml:space="preserve" text-anchor="middle" x="3913.58" y="-424.95" font-family="Arial" font-size="14.00">worker0_start</text>
</g>
<!-- M10 -->
<g id="node11" class="node">
<title>M10</title>
<polygon fill="white" stroke="black" points="2754.33,-130.75 1612.58,-130.75 1612.58,-91.25 2754.33,-91.25 2754.33,-130.75"/>
<text xml:space="preserve" text-anchor="middle" x="2183.45" y="-113.45" font-family="Arial" font-size="14.00">M10</text>
<text xml:space="preserve" text-anchor="middle" x="2183.45" y="-97.7" font-family="Arial" font-size="14.00">{pool:1, worker0_idle:1, worker0_working:0, worker1_idle:0, worker1_working:1, worker2_idle:0, worker2_working:1, worker3_idle:1, worker3_working:0, worker4_idle:1, worker4_working:0}</text>
</g>
<!-- M2&#45;&gt;M10 -->
<g id="edge13" class="edge">
<title>M2&#45;&gt;M10</title>
<path fill="none" stroke="black" d="M4005.44,-547.03C4049.04,-542.09 4082.83,-536.24 4092.45,-529.5 4150.28,-488.98 4255.68,-302.83 4223.45,-240 4191.73,-178.16 4162.4,-170.69 4096.45,-148.75 4033.57,-127.83 3305.45,-118.71 2766.07,-114.81"/>
<polygon fill="black" stroke="black" points="2766.1,-111.31 2756.08,-114.74 2766.05,-118.31 2766.1,-111.31"/>
<text xml:space="preserve" text-anchor="middle" x="4258.09" y="-333.7" font-family="Arial" font-size="14.00">worker2_start</text>
</g>
<!-- M11 -->
<g id="node12" class="node">
<title>M11</title>
<polygon fill="white" stroke="black" points="3068.33,-678.25 1926.58,-678.25 1926.58,-638.75 3068.33,-638.75 3068.33,-678.25"/>
<text xml:space="preserve" text-anchor="middle" x="2497.45" y="-660.95" font-family="Arial" font-size="14.00">M11</text>
<text xml:space="preserve" text-anchor="middle" x="2497.45" y="-645.2" font-family="Arial" font-size="14.00">{pool:1, worker0_idle:1, worker0_working:0, worker1_idle:0, worker1_working:1, worker2_idle:1, worker2_working:0, worker3_idle:0, worker3_working:1, worker4_idle:1, worker4_working:0}</text>
</g>
<!-- M2&#45;&gt;M11 -->
<g id="edge14" class="edge">
<title>M2&#45;&gt;M11</title>
<path fill="none" stroke="black" d="M3281.7,-587.49C3192.01,-592.41 3098.26,-598.25 3010.7,-605 2899.24,-613.59 2774.46,-626.28 2675.84,-637.04"/>
<polygon fill="black" stroke="black" points="2675.62,-633.54 2666.06,-638.11 2676.38,-640.5 2675.62,-633.54"/>
<text xml:space="preserve" text-anchor="middle" x="3051.58" y="-607.45" font-family="Arial" font-size="14.00">worker3_start</text>
</g>
<!-- M12 -->
<g id="node13" class="node">
<title>M12</title>
<polygon fill="white" stroke="black" points="3317.33,-495.75 2175.58,-495.75 2175.58,-456.25 3317.33,-456.25 3317.33,-495.75"/>
<text xml:space="preserve" text-anchor="middle" x="2746.45" y="-478.45" font-family="Arial" font-size="14.00">M12</text>
<text xml:space="preserve" text-anchor="middle" x="2746.45" y="-462.7" font-family="Arial" font-size="14.00">{pool:1, worker0_idle:1, worker0_working:0, worker1_idle:0, worker1_working:1, worker2_idle:1, worker2_working:0, worker3_idle:1, worker3_working:0, worker4_idle:0, worker4_working:1}</text>
</g>
<!-- M2&#45;&gt;M12 -->
<g id="edge15" class="edge">
<title>M2&#45;&gt;M12</title>
<path fill="none" stroke="black" d="M3509.04,-547.02C3349.21,-532.35 3129.56,-512.18 2967.03,-497.25"/>
<polygon fill="black" stroke="black" points="2967.7,-493.8 2957.42,-496.37 2967.06,-500.77 2967.7,-493.8"/>
<text xml:space="preserve" text-anchor="middle" x="3331.52" y="-516.2" font-family="Arial" font-size="14.00">worker4_start</text>
</g>
<!-- M3&#45;&gt;M0 -->
<g id="edge18" class="edge">
<title>M3&#45;&gt;M0</title>
<path fill="none" stroke="black" d="M621.48,-1134.97C439.05,-1158.33 196.45,-1206.3 196.45,-1296.25 196.45,-1845.75 196.45,-1845.75 196.45,-1845.75 196.45,-1907.72 886.72,-1927.16 1411.87,-1932.98"/>
<polygon fill="black" stroke="black" points="1411.53,-1936.48 1421.57,-1933.09 1411.61,-1929.48 1411.53,-1936.48"/>
<text xml:space="preserve" text-anchor="middle" x="239.95" y="-1519.95" font-family="Arial" font-size="14.00">worker2_finish</text>
</g>
<!-- M3&#45;&gt;M7 -->
<g id="edge16" class="edge">
<title>M3&#45;&gt;M7</title>
<path fill="none" stroke="black" d="M834.47,-1134.8C852.35,-1158.7 881.45,-1201.67 894.45,-1243.75 906.14,-1281.56 907.2,-1327.54 906.31,-1357.15"/>
<polygon fill="black" stroke="black" points="902.82,-1356.74 905.91,-1366.88 909.81,-1357.03 902.82,-1356.74"/>
<text xml:space="preserve" text-anchor="middle" x="939.21" y="-1246.2" font-family="Arial" font-size="14.00">worker0_start</text>
</g>
<!-- M3&#45;&gt;M10 -->
<g id="edge17" class="edge">
<title>M3&#45;&gt;M10</title>
<path fill="none" stroke="black" d="M518.06,-1094.55C445.49,-1081.58 388.45,-1060.08 388.45,-1024.5 388.45,-1024.5 388.45,-1024.5 388.45,-794.38 388.45,-763.84 376.23,-758.17 364.45,-730 343.81,-680.6 330.35,-671.64 313.7,-620.75 306.08,-597.46 272.87,-428.88 270.45,-404.5 267.24,-372.1 248.78,-355.55 270.45,-331.25 298.67,-299.61 1483.75,-180.41 1974.25,-132.31"/>
<polygon fill="black" stroke="black" points="1974.24,-135.83 1983.85,-131.37 1973.55,-128.86 1974.24,-135.83"/>
<text xml:space="preserve" text-anchor="middle" x="354.58" y="-607.45" font-family="Arial" font-size="14.00">worker1_start</text>
</g>
<!-- M13 -->
<g id="node14" class="node">
<title>M13</title>
<polygon fill="white" stroke="black" points="2606.33,-1043.25 1464.58,-1043.25 1464.58,-1003.75 2606.33,-1003.75 2606.33,-1043.25"/>
<text xml:space="preserve" text-anchor="middle" x="2035.45" y="-1025.95" font-family="Arial" font-size="14.00">M13</text>
<text xml:space="preserve" text-anchor="middle" x="2035.45" y="-1010.2" font-family="Arial" font-size="14.00">{pool:1, worker0_idle:1, worker0_working:0, worker1_idle:1, worker1_working:0, worker2_idle:0, worker2_working:1, worker3_idle:0, worker3_working:1, worker4_idle:1, worker4_working:0}</text>
</g>
<!-- M3&#45;&gt;M13 -->
<g id="edge19" class="edge">
<title>M3&#45;&gt;M13</title>
<path fill="none" stroke="black" d="M895.65,-1094.5C945.64,-1082.73 1012.64,-1068.57 1072.7,-1061.25 1149.52,-1051.89 1296.58,-1044.49 1453.07,-1038.86"/>
<polygon fill="black" stroke="black" points="1452.97,-1042.37 1462.84,-1038.52 1452.72,-1035.38 1452.97,-1042.37"/>
<text xml:space="preserve" text-anchor="middle" x="1113.58" y="-1063.7" font-family="Arial" font-size="14.00">worker3_start</text>
</g>
<!-- M14 -->
<g id="node15" class="node">
<title>M14</title>
<polygon fill="white" stroke="black" points="2458.33,-1225.75 1316.58,-1225.75 1316.58,-1186.25 2458.33,-1186.25 2458.33,-1225.75"/>
<text xml:space="preserve" text-anchor="middle" x="1887.45" y="-1208.45" font-family="Arial" font-size="14.00">M14</text>
<text xml:space="preserve" text-anchor="middle" x="1887.45" y="-1192.7" font-family="Arial" font-size="14.00">{pool:1, worker0_idle:1, worker0_working:0, worker1_idle:1, worker1_working:0, worker2_idle:0, worker2_working:1, worker3_idle:1, worker3_working:0, worker4_idle:0, worker4_working:1}</text>
</g>
<!-- M3&#45;&gt;M14 -->
<g id="edge20" class="edge">
<title>M3&#45;&gt;M14</title>
<path fill="none" stroke="black" d="M1274.91,-1134.99C1311.78,-1139.63 1342.75,-1145.38 1363.45,-1152.5 1375.25,-1156.56 1374.91,-1164.15 1386.7,-1168.25 1405.15,-1174.66 1432.48,-1179.95 1465.02,-1184.32"/>
<polygon fill="black" stroke="black" points="1464.39,-1187.76 1474.75,-1185.57 1465.28,-1180.82 1464.39,-1187.76"/>
<text xml:space="preserve" text-anchor="middle" x="1427.58" y="-1154.95" font-family="Arial" font-size="14.00">worker4_start</text>
</g>
<!-- M4&#45;&gt;M0 -->
<g id="edge24" class="edge">
<title>M4&#45;&gt;M0</title>
<path fill="none" stroke="black" d="M3108.49,-757.94C3411.55,-763.39 3751.76,-772.58 3902.45,-787.5 3990.42,-796.21 4030.41,-764.83 4098.45,-821.25 4121.96,-840.74 4122.45,-855.09 4122.45,-885.62 4122.45,-1845.75 4122.45,-1845.75 4122.45,-1845.75 4122.45,-1970.52 3688.07,-1892.02 3563.45,-1898.25 3237.35,-1914.56 2872.74,-1923.66 2577.14,-1928.72"/>
<polygon fill="black" stroke="black" points="2577.23,-1925.21 2567.29,-1928.88 2577.34,-1932.21 2577.23,-1925.21"/>
<text xml:space="preserve" text-anchor="middle" x="4165.95" y="-1337.45" font-family="Arial" font-size="14.00">worker3_finish</text>
</g>
<!-- M4&#45;&gt;M8 -->
<g id="edge21" class="edge">
<title>M4&#45;&gt;M8</title>
<path fill="none" stroke="black" d="M2736.02,-769.95C2759.22,-774.64 2778.5,-780.41 2789.45,-787.5 2829.79,-813.62 2834.03,-832.61 2847.45,-878.75 2881.87,-997.06 2816.01,-1029.91 2803.7,-1152.5 2786.79,-1320.96 2908.62,-1411.03 2791.45,-1533.25 2785.56,-1539.4 2769.63,-1544.53 2746.92,-1548.8"/>
<polygon fill="black" stroke="black" points="2746.37,-1545.34 2737.12,-1550.51 2747.57,-1552.24 2746.37,-1545.34"/>
<text xml:space="preserve" text-anchor="middle" x="2844.58" y="-1154.95" font-family="Arial" font-size="14.00">worker0_start</text>
</g>
<!-- M4&#45;&gt;M11 -->
<g id="edge22" class="edge">
<title>M4&#45;&gt;M11</title>
<path fill="none" stroke="black" d="M2548.35,-729.99C2552.88,-719.61 2555.94,-706.73 2550.45,-696.25 2548.6,-692.72 2546.25,-689.46 2543.56,-686.47"/>
<polygon fill="black" stroke="black" points="2546.05,-684.01 2536.35,-679.75 2541.28,-689.13 2546.05,-684.01"/>
<text xml:space="preserve" text-anchor="middle" x="2594.26" y="-698.7" font-family="Arial" font-size="14.00">worker1_start</text>
</g>
<!-- M4&#45;&gt;M13 -->
<g id="edge23" class="edge">
<title>M4&#45;&gt;M13</title>
<path fill="none" stroke="black" d="M2738.23,-769.91C2752.89,-774.57 2764.33,-780.34 2770.45,-787.5 2791.6,-812.25 2784.11,-831.2 2770.45,-860.75 2734.46,-938.59 2702.98,-953.66 2623.45,-985.75 2607.63,-992.14 2560.08,-997.69 2498.44,-1002.41"/>
<polygon fill="black" stroke="black" points="2498.41,-998.91 2488.7,-1003.14 2498.93,-1005.89 2498.41,-998.91"/>
<text xml:space="preserve" text-anchor="middle" x="2802.26" y="-881.2" font-family="Arial" font-size="14.00">worker2_start</text>
</g>
<!-- M15 -->
<g id="node16" class="node">
<title>M15</title>
<polygon fill="white" stroke="black" points="2728.33,-860.75 1586.58,-860.75 1586.58,-821.25 2728.33,-821.25 2728.33,-860.75"/>
<text xml:space="preserve" text-anchor="middle" x="2157.45" y="-843.45" font-family="Arial" font-size="14.00">M15</text>
<text xml:space="preserve" text-anchor="middle" x="2157.45" y="-827.7" font-family="Arial" font-size="14.00">{pool:1, worker0_idle:1, worker0_working:0, worker1_idle:1, worker1_working:0, worker2_idle:1, worker2_working:0, worker3_idle:0, worker3_working:1, worker4_idle:0, worker4_working:1}</text>
</g>
<!-- M4&#45;&gt;M15 -->
<g id="edge25" class="edge">
<title>M4&#45;&gt;M15</title>
<path fill="none" stroke="black" d="M2456.54,-769.96C2414.47,-779.93 2362.2,-792.28 2315.45,-803.25 2294.67,-808.12 2272.35,-813.33 2251.21,-818.25"/>
<polygon fill="black" stroke="black" points="2250.71,-814.78 2241.76,-820.45 2252.29,-821.59 2250.71,-814.78"/>
<text xml:space="preserve" text-anchor="middle" x="2417.32" y="-789.95" font-family="Arial" font-size="14.00">worker4_start</text>
</g>
<!-- M5&#45;&gt;M0 -->
<g id="edge30" class="edge">
<title>M5&#45;&gt;M0</title>
<path fill="none" stroke="black" d="M575.71,-404.98C425.37,-418.87 274.45,-441.22 274.45,-475 274.45,-705.12 274.45,-705.12 274.45,-705.12 274.45,-748.92 275.29,-760.57 265.45,-803.25 245.98,-887.75 231.8,-906.57 196.45,-985.75 161.02,-1065.12 106.45,-1072.46 106.45,-1159.38 106.45,-1845.75 106.45,-1845.75 106.45,-1845.75 106.45,-1941.52 220.54,-1885.46 315.45,-1898.25 422.75,-1912.71 970.75,-1922.77 1411.94,-1928.66"/>
<polygon fill="black" stroke="black" points="1411.76,-1932.15 1421.81,-1928.79 1411.86,-1925.15 1411.76,-1932.15"/>
<text xml:space="preserve" text-anchor="middle" x="149.95" y="-1154.95" font-family="Arial" font-size="14.00">worker4_finish</text>
</g>
<!-- M5&#45;&gt;M9 -->
<g id="edge26" class="edge">
<title>M5&#45;&gt;M9</title>
<path fill="none" stroke="black" d="M883.23,-404.8C920.79,-477.58 1060.47,-744.35 1195.45,-952 1233.08,-1009.89 1228.74,-1041.07 1287.7,-1077 1330.66,-1103.18 1366.83,-1056.7 1399.45,-1095 1410.84,-1108.36 1411.06,-1121.33 1399.45,-1134.5 1357.08,-1182.54 1298.82,-1104.46 1256.45,-1152.5 1207.62,-1207.86 1226.1,-1265.98 1279.45,-1317 1306.11,-1342.49 1410.55,-1320.48 1444.45,-1335 1491.23,-1355.04 1503.45,-1382.24 1503.45,-1433.12 1503.45,-1663.25 1503.45,-1663.25 1503.45,-1663.25 1503.45,-1706.9 1544.79,-1702.73 1586.45,-1715.75 1619.6,-1726.11 1740.27,-1733.75 1882,-1739.29"/>
<polygon fill="black" stroke="black" points="1881.47,-1742.78 1891.6,-1739.67 1881.74,-1735.78 1881.47,-1742.78"/>
<text xml:space="preserve" text-anchor="middle" x="1328.58" y="-1063.7" font-family="Arial" font-size="14.00">worker0_start</text>
</g>
<!-- M5&#45;&gt;M12 -->
<g id="edge27" class="edge">
<title>M5&#45;&gt;M12</title>
<path fill="none" stroke="black" d="M1362.94,-405C1492.22,-410.36 1631.61,-416.4 1760.45,-422.5 1970,-432.42 2204.52,-444.85 2392.25,-455.13"/>
<polygon fill="black" stroke="black" points="2392.01,-458.62 2402.19,-455.67 2392.39,-451.63 2392.01,-458.62"/>
<text xml:space="preserve" text-anchor="middle" x="2099.51" y="-424.95" font-family="Arial" font-size="14.00">worker1_start</text>
</g>
<!-- M5&#45;&gt;M14 -->
<g id="edge28" class="edge">
<title>M5&#45;&gt;M14</title>
<path fill="none" stroke="black" d="M1196.06,-404.97C1267,-418.05 1321.45,-439.61 1321.45,-475 1321.45,-705.12 1321.45,-705.12 1321.45,-705.12 1321.45,-830.34 1297.19,-870.63 1346.45,-985.75 1367.67,-1035.34 1380.78,-1048.31 1426.45,-1077 1458.07,-1096.86 1672.73,-1151.98 1797.69,-1183.02"/>
<polygon fill="black" stroke="black" points="1796.73,-1186.39 1807.28,-1185.4 1798.41,-1179.59 1796.73,-1186.39"/>
<text xml:space="preserve" text-anchor="middle" x="1359.11" y="-789.95" font-family="Arial" font-size="14.00">worker2_start</text>
</g>
<!-- M5&#45;&gt;M15 -->
<g id="edge29" class="edge">
<title>M5&#45;&gt;M15</title>
<path fill="none" stroke="black" d="M1301.22,-404.98C1337.79,-409.62 1364.42,-415.37 1373.45,-422.5 1412.62,-453.42 1383.2,-485.89 1407.45,-529.5 1459.31,-622.76 1474.44,-653.15 1563.45,-712 1676.16,-786.52 1721.37,-774.74 1853.45,-803.25 1882.38,-809.49 1913.1,-814.76 1943.46,-819.18"/>
<polygon fill="black" stroke="black" points="1942.74,-822.61 1953.13,-820.55 1943.73,-815.68 1942.74,-822.61"/>
<text xml:space="preserve" text-anchor="middle" x="1502.31" y="-607.45" font-family="Arial" font-size="14.00">worker3_start</text>
</g>
<!-- M6&#45;&gt;M1 -->
<g id="edge32" class="edge">
<title>M6&#45;&gt;M1</title>
<path fill="none" stroke="black" d="M4004.69,-305.9C4139.09,-311.37 4252.54,-319.42 4283.45,-331.25 4313.27,-342.67 4373.94,-398.03 4394.45,-422.5 4405.51,-435.69 4409.09,-439.6 4413.45,-456.25 4433,-530.82 4405.49,-559.68 4358.45,-620.75 4311.35,-681.9 4282.59,-680.4 4223.45,-730 4066.14,-861.94 3981.05,-871.99 3901.45,-1061.25 3884.51,-1101.53 3895.45,-1115.68 3895.45,-1159.38 3895.45,-1754.5 3895.45,-1754.5 3895.45,-1754.5 3895.45,-1821.27 3136.83,-1839.3 2578.31,-1843.52"/>
<polygon fill="black" stroke="black" points="2578.29,-1840.02 2568.32,-1843.59 2578.34,-1847.02 2578.29,-1840.02"/>
<text xml:space="preserve" text-anchor="middle" x="3944.95" y="-1063.7" font-family="Arial" font-size="14.00">worker1_finish</text>
</g>
<!-- M6&#45;&gt;M2 -->
<g id="edge31" class="edge">
<title>M6&#45;&gt;M2</title>
<path fill="none" stroke="black" d="M3800.64,-313.75C3832.89,-318.44 3864.87,-324.2 3895.45,-331.25 3935.46,-340.48 3958.32,-331.07 3981.45,-365 4001,-393.67 3981.07,-415.99 3954.45,-438.25 3900.04,-483.75 3826.93,-520.39 3776.57,-542.62"/>
<polygon fill="black" stroke="black" points="3775.34,-539.34 3767.57,-546.54 3778.14,-545.75 3775.34,-539.34"/>
<text xml:space="preserve" text-anchor="middle" x="4014.91" y="-424.95" font-family="Arial" font-size="14.00">worker0_finish</text>
</g>
<!-- M16 -->
<g id="node17" class="node">
<title>M16</title>
<polygon fill="white" stroke="black" points="2745.33,-222 1603.58,-222 1603.58,-182.5 2745.33,-182.5 2745.33,-222"/>
<text xml:space="preserve" text-anchor="middle" x="2174.45" y="-204.7" font-family="Arial" font-size="14.00">M16</text>
<text xml:space="preserve" text-anchor="middle" x="2174.45" y="-188.95" font-family="Arial" font-size="14.00">{pool:0, worker0_idle:0, worker0_working:1, worker1_idle:0, worker1_working:1, worker2_idle:0, worker2_working:1, worker3_idle:1, worker3_working:0, worker4_idle:1, worker4_working:0}</text>
</g>
<!-- M6&#45;&gt;M16 -->
<g id="edge33" class="edge">
<title>M6&#45;&gt;M16</title>
<path fill="none" stroke="black" d="M3162.21,-273.27C2954.15,-258.52 2667.83,-238.23 2457.01,-223.28"/>
<polygon fill="black" stroke="black" points="2457.5,-219.81 2447.27,-222.59 2457,-226.79 2457.5,-219.81"/>
<text xml:space="preserve" text-anchor="middle" x="2920.21" y="-242.45" font-family="Arial" font-size="14.00">worker2_start</text>
</g>
<!-- M17 -->
<g id="node18" class="node">
<title>M17</title>
<polygon fill="white" stroke="black" points="3954.33,-222 2812.58,-222 2812.58,-182.5 3954.33,-182.5 3954.33,-222"/>
<text xml:space="preserve" text-anchor="middle" x="3383.45" y="-204.7" font-family="Arial" font-size="14.00">M17</text>
<text xml:space="preserve" text-anchor="middle" x="3383.45" y="-188.95" font-family="Arial" font-size="14.00">{pool:0, worker0_idle:0, worker0_working:1, worker1_idle:0, worker1_working:1, worker2_idle:1, worker2_working:0, worker3_idle:0, worker3_working:1, worker4_idle:1, worker4_working:0}</text>
</g>
<!-- M6&#45;&gt;M17 -->
<g id="edge34" class="edge">
<title>M6&#45;&gt;M17</title>
<path fill="none" stroke="black" d="M3374.56,-273.32C3367.48,-268.65 3361.19,-262.88 3356.7,-255.75 3351.9,-248.12 3353.57,-239.52 3357.84,-231.52"/>
<polygon fill="black" stroke="black" points="3360.59,-233.69 3363.22,-223.43 3354.77,-229.82 3360.59,-233.69"/>
<text xml:space="preserve" text-anchor="middle" x="3397.58" y="-242.45" font-family="Arial" font-size="14.00">worker3_start</text>
</g>
<!-- M18 -->
<g id="node19" class="node">
<title>M18</title>
<polygon fill="white" stroke="black" points="3954.33,-404.5 2812.58,-404.5 2812.58,-365 3954.33,-365 3954.33,-404.5"/>
<text xml:space="preserve" text-anchor="middle" x="3383.45" y="-387.2" font-family="Arial" font-size="14.00">M18</text>
<text xml:space="preserve" text-anchor="middle" x="3383.45" y="-371.45" font-family="Arial" font-size="14.00">{pool:0, worker0_idle:0, worker0_working:1, worker1_idle:0, worker1_working:1, worker2_idle:1, worker2_working:0, worker3_idle:1, worker3_working:0, worker4_idle:0, worker4_working:1}</text>
</g>
<!-- M6&#45;&gt;M18 -->
<g id="edge35" class="edge">
<title>M6&#45;&gt;M18</title>
<path fill="none" stroke="black" d="M3441.88,-313.49C3445.2,-323.94 3447.05,-336.82 3441.45,-347 3439.41,-350.72 3436.81,-354.11 3433.85,-357.2"/>
<polygon fill="black" stroke="black" points="3431.67,-354.46 3426.46,-363.68 3436.28,-359.72 3431.67,-354.46"/>
<text xml:space="preserve" text-anchor="middle" x="3485.9" y="-333.7" font-family="Arial" font-size="14.00">worker4_start</text>
</g>
<!-- M7&#45;&gt;M1 -->
<g id="edge38" class="edge">
<title>M7&#45;&gt;M1</title>
<path fill="none" stroke="black" d="M833.39,-1408.59C800.87,-1422.06 769.45,-1444.05 769.45,-1478.75 769.45,-1754.5 769.45,-1754.5 769.45,-1754.5 769.45,-1885.05 928.69,-1792.74 1058.45,-1807 1172.79,-1819.57 1295.4,-1827.99 1412.99,-1833.61"/>
<polygon fill="black" stroke="black" points="1412.69,-1837.1 1422.85,-1834.08 1413.02,-1830.11 1412.69,-1837.1"/>
<text xml:space="preserve" text-anchor="middle" x="812.95" y="-1611.2" font-family="Arial" font-size="14.00">worker2_finish</text>
</g>
<!-- M7&#45;&gt;M3 -->
<g id="edge36" class="edge">
<title>M7&#45;&gt;M3</title>
<path fill="none" stroke="black" d="M882.38,-1368.45C857.67,-1345.51 819.04,-1304.43 803.45,-1259.5 790.37,-1221.8 799.69,-1175.52 808.65,-1145.83"/>
<polygon fill="black" stroke="black" points="811.96,-1146.98 811.68,-1136.39 805.29,-1144.84 811.96,-1146.98"/>
<text xml:space="preserve" text-anchor="middle" x="846.95" y="-1246.2" font-family="Arial" font-size="14.00">worker0_finish</text>
</g>
<!-- M7&#45;&gt;M16 -->
<g id="edge37" class="edge">
<title>M7&#45;&gt;M16</title>
<path fill="none" stroke="black" d="M819.82,-1368.31C691.87,-1337.3 443.73,-1269.26 251.45,-1168.25 204.25,-1143.46 182.45,-1123.44 182.45,-1070.12 182.45,-1070.12 182.45,-1070.12 182.45,-840 182.45,-698.77 198.45,-663.86 198.45,-522.62 198.45,-522.62 198.45,-522.62 198.45,-338.12 198.45,-267.64 1009.24,-232.11 1592.1,-215.68"/>
<polygon fill="black" stroke="black" points="1591.83,-219.19 1601.73,-215.41 1591.64,-212.19 1591.83,-219.19"/>
<text xml:space="preserve" text-anchor="middle" x="224.1" y="-789.95" font-family="Arial" font-size="14.00">worker1_start</text>
</g>
<!-- M19 -->
<g id="node20" class="node">
<title>M19</title>
<polygon fill="white" stroke="black" points="2749.33,-1499.5 1607.58,-1499.5 1607.58,-1460 2749.33,-1460 2749.33,-1499.5"/>
<text xml:space="preserve" text-anchor="middle" x="2178.45" y="-1482.2" font-family="Arial" font-size="14.00">M19</text>
<text xml:space="preserve" text-anchor="middle" x="2178.45" y="-1466.45" font-family="Arial" font-size="14.00">{pool:0, worker0_idle:0, worker0_working:1, worker1_idle:1, worker1_working:0, worker2_idle:0, worker2_working:1, worker3_idle:0, worker3_working:1, worker4_idle:1, worker4_working:0}</text>
</g>
<!-- M7&#45;&gt;M19 -->
<g id="edge39" class="edge">
<title>M7&#45;&gt;M19</title>
<path fill="none" stroke="black" d="M1091.11,-1408.73C1201.44,-1419.61 1343.92,-1432.83 1470.7,-1442 1558.61,-1448.36 1652.75,-1454.03 1742.73,-1458.91"/>
<polygon fill="black" stroke="black" points="1742.28,-1462.39 1752.46,-1459.44 1742.66,-1455.4 1742.28,-1462.39"/>
<text xml:space="preserve" text-anchor="middle" x="1511.58" y="-1428.7" font-family="Arial" font-size="14.00">worker3_start</text>
</g>
<!-- M20 -->
<g id="node21" class="node">
<title>M20</title>
<polygon fill="white" stroke="black" points="2458.33,-1317 1316.58,-1317 1316.58,-1277.5 2458.33,-1277.5 2458.33,-1317"/>
<text xml:space="preserve" text-anchor="middle" x="1887.45" y="-1299.7" font-family="Arial" font-size="14.00">M20</text>
<text xml:space="preserve" text-anchor="middle" x="1887.45" y="-1283.95" font-family="Arial" font-size="14.00">{pool:0, worker0_idle:0, worker0_working:1, worker1_idle:1, worker1_working:0, worker2_idle:0, worker2_working:1, worker3_idle:1, worker3_working:0, worker4_idle:0, worker4_working:1}</text>
</g>
<!-- M7&#45;&gt;M20 -->
<g id="edge40" class="edge">
<title>M7&#45;&gt;M20</title>
<path fill="none" stroke="black" d="M1002.75,-1368.27C1064.75,-1356.85 1146.63,-1343.07 1219.7,-1335 1280.4,-1328.3 1344.33,-1322.8 1407.62,-1318.29"/>
<polygon fill="black" stroke="black" points="1407.77,-1321.79 1417.5,-1317.59 1407.28,-1314.8 1407.77,-1321.79"/>
<text xml:space="preserve" text-anchor="middle" x="1260.58" y="-1337.45" font-family="Arial" font-size="14.00">worker4_start</text>
</g>
<!-- M8&#45;&gt;M1 -->
<g id="edge44" class="edge">
<title>M8&#45;&gt;M1</title>
<path fill="none" stroke="black" d="M1998.25,-1591.25C1959.47,-1595.97 1926.36,-1601.73 1906.45,-1608.75 1837.1,-1633.19 1803.27,-1635.24 1768.45,-1700 1735.56,-1761.19 1817.76,-1799.83 1892.27,-1821.46"/>
<polygon fill="black" stroke="black" points="1891.17,-1824.78 1901.74,-1824.11 1893.06,-1818.04 1891.17,-1824.78"/>
<text xml:space="preserve" text-anchor="middle" x="1811.95" y="-1702.45" font-family="Arial" font-size="14.00">worker3_finish</text>
</g>
<!-- M8&#45;&gt;M4 -->
<g id="edge41" class="edge">
<title>M8&#45;&gt;M4</title>
<path fill="none" stroke="black" d="M2704.78,-1550.77C2758.28,-1545.97 2799.29,-1540.17 2812.45,-1533.25 2852.14,-1512.4 2845.89,-1485.8 2855.45,-1442 2866.57,-1391.09 2929.45,-1030.99 2929.45,-978.88 2929.45,-978.88 2929.45,-978.88 2929.45,-840 2929.45,-806.02 2872.74,-784.97 2802.45,-771.94"/>
<polygon fill="black" stroke="black" points="2803.47,-768.57 2793.01,-770.26 2802.25,-775.46 2803.47,-768.57"/>
<text xml:space="preserve" text-anchor="middle" x="2949.39" y="-1154.95" font-family="Arial" font-size="14.00">worker0_finish</text>
</g>
<!-- M8&#45;&gt;M17 -->
<g id="edge42" class="edge">
<title>M8&#45;&gt;M17</title>
<path fill="none" stroke="black" d="M2615.07,-1550.76C2680.33,-1540.28 2736.06,-1524.19 2758.45,-1499.5 2818.63,-1433.15 2769.45,-1387.83 2769.45,-1298.25 2769.45,-1298.25 2769.45,-1298.25 2769.45,-1113.75 2769.45,-1001.12 2718.03,-959.01 2615.45,-912.5 2510.2,-864.77 2203.86,-935.23 2095.7,-894.5 2085.36,-890.6 2086.79,-882.65 2076.45,-878.75 2050.5,-868.95 1596.71,-880.72 1577.45,-860.75 1565.26,-848.11 1577.14,-838.8 1577.45,-821.25 1579.45,-708.75 1586.45,-680.77 1586.45,-568.25 1586.45,-568.25 1586.45,-568.25 1586.45,-429.38 1586.45,-391.16 1609.57,-382.67 1643.45,-365 1697.06,-337.05 2664.22,-245.16 2724.45,-240 2800.51,-233.49 2881.61,-227.88 2959.97,-223.14"/>
<polygon fill="black" stroke="black" points="2959.73,-226.66 2969.5,-222.57 2959.31,-219.67 2959.73,-226.66"/>
<text xml:space="preserve" text-anchor="middle" x="2136.58" y="-881.2" font-family="Arial" font-size="14.00">worker1_start</text>
</g>
<!-- M8&#45;&gt;M19 -->
<g id="edge43" class="edge">
<title>M8&#45;&gt;M19</title>
<path fill="none" stroke="black" d="M2292.05,-1550.88C2287.52,-1539.86 2280.46,-1526.46 2270.45,-1517.5 2265.24,-1512.83 2259.36,-1508.72 2253.16,-1505.1"/>
<polygon fill="black" stroke="black" points="2255,-1502.12 2244.53,-1500.53 2251.73,-1508.3 2255,-1502.12"/>
<text xml:space="preserve" text-anchor="middle" x="2323.58" y="-1519.95" font-family="Arial" font-size="14.00">worker2_start</text>
</g>
<!-- M21 -->
<g id="node22" class="node">
<title>M21</title>
<polygon fill="white" stroke="black" points="3035.33,-1682 1893.58,-1682 1893.58,-1642.5 3035.33,-1642.5 3035.33,-1682"/>
<text xml:space="preserve" text-anchor="middle" x="2464.45" y="-1664.7" font-family="Arial" font-size="14.00">M21</text>
<text xml:space="preserve" text-anchor="middle" x="2464.45" y="-1648.95" font-family="Arial" font-size="14.00">{pool:0, worker0_idle:0, worker0_working:1, worker1_idle:1, worker1_working:0, worker2_idle:1, worker2_working:0, worker3_idle:0, worker3_working:1, worker4_idle:0, worker4_working:1}</text>
</g>
<!-- M8&#45;&gt;M21 -->
<g id="edge45" class="edge">
<title>M8&#45;&gt;M21</title>
<path fill="none" stroke="black" d="M2311.2,-1591.15C2319.54,-1602.33 2331.33,-1615.87 2344.7,-1624.5 2352.58,-1629.59 2361.2,-1634 2370.1,-1637.83"/>
<polygon fill="black" stroke="black" points="2368.64,-1641.02 2379.23,-1641.49 2371.25,-1634.52 2368.64,-1641.02"/>
<text xml:space="preserve" text-anchor="middle" x="2385.58" y="-1611.2" font-family="Arial" font-size="14.00">worker4_start</text>
</g>
<!-- M9&#45;&gt;M1 -->
<g id="edge50" class="edge">
<title>M9&#45;&gt;M1</title>
<path fill="none" stroke="black" d="M2215.72,-1773.7C2185.43,-1778.34 2155.09,-1784.1 2126.45,-1791.25 2098.91,-1798.13 2069.47,-1809.53 2045.49,-1819.96"/>
<polygon fill="black" stroke="black" points="2044.33,-1816.64 2036.6,-1823.89 2047.17,-1823.04 2044.33,-1816.64"/>
<text xml:space="preserve" text-anchor="middle" x="2169.95" y="-1793.7" font-family="Arial" font-size="14.00">worker4_finish</text>
</g>
<!-- M9&#45;&gt;M5 -->
<g id="edge46" class="edge">
<title>M9&#45;&gt;M5</title>
<path fill="none" stroke="black" d="M1893.14,-1739.62C1770.99,-1734.23 1642.82,-1726.59 1523.45,-1715.75 1238.18,-1689.85 1156.69,-1716.57 885.45,-1624.5 871.93,-1619.91 870.98,-1613.32 857.45,-1608.75 629.56,-1531.67 497.89,-1696.79 321.45,-1533.25 291,-1505.03 309.43,-1482.74 301.45,-1442 276.36,-1313.86 299.82,-1273.78 251.45,-1152.5 247.89,-1143.57 242.24,-1143.7 239.45,-1134.5 234.36,-1117.7 236.48,-1112.3 239.45,-1095 261.32,-967.79 261.98,-926.68 336.45,-821.25 475.38,-624.57 726.33,-468.71 828.42,-410.47"/>
<polygon fill="black" stroke="black" points="830.11,-413.53 837.09,-405.56 826.66,-407.44 830.11,-413.53"/>
<text xml:space="preserve" text-anchor="middle" x="288.61" y="-1063.7" font-family="Arial" font-size="14.00">worker0_finish</text>
</g>
<!-- M9&#45;&gt;M18 -->
<g id="edge47" class="edge">
<title>M9&#45;&gt;M18</title>
<path fill="none" stroke="black" d="M2835.83,-1733.26C2991.25,-1720.01 3136.45,-1698.26 3136.45,-1663.25 3136.45,-1663.25 3136.45,-1663.25 3136.45,-794.38 3136.45,-683.79 3027.93,-626.36 3105.45,-547.5 3135.27,-517.17 3157.98,-538.97 3199.45,-529.5 3256.39,-516.5 3280.9,-532.3 3326.45,-495.75 3339.99,-484.89 3359.11,-444.01 3371.4,-415.27"/>
<polygon fill="black" stroke="black" points="3374.5,-416.91 3375.16,-406.33 3368.05,-414.19 3374.5,-416.91"/>
<text xml:space="preserve" text-anchor="middle" x="3177.33" y="-1063.7" font-family="Arial" font-size="14.00">worker1_start</text>
</g>
<!-- M9&#45;&gt;M20 -->
<g id="edge48" class="edge">
<title>M9&#45;&gt;M20</title>
<path fill="none" stroke="black" d="M1893.36,-1740.94C1704.4,-1729.21 1541.45,-1706.54 1541.45,-1663.25 1541.45,-1663.25 1541.45,-1663.25 1541.45,-1524.38 1541.45,-1486.16 1566.08,-1480.3 1598.45,-1460 1623.48,-1444.3 1635.49,-1454.08 1662.45,-1442 1735.01,-1409.48 1811.35,-1356 1853.82,-1324.25"/>
<polygon fill="black" stroke="black" points="1855.78,-1327.17 1861.66,-1318.35 1851.56,-1321.57 1855.78,-1327.17"/>
<text xml:space="preserve" text-anchor="middle" x="1582.33" y="-1519.95" font-family="Arial" font-size="14.00">worker2_start</text>
</g>
<!-- M9&#45;&gt;M21 -->
<g id="edge49" class="edge">
<title>M9&#45;&gt;M21</title>
<path fill="none" stroke="black" d="M2486.84,-1733.52C2495.34,-1723.94 2502,-1711.86 2497.45,-1700 2496.34,-1697.1 2494.88,-1694.28 2493.2,-1691.58"/>
<polygon fill="black" stroke="black" points="2496.02,-1689.51 2487.23,-1683.6 2490.42,-1693.71 2496.02,-1689.51"/>
<text xml:space="preserve" text-anchor="middle" x="2539.8" y="-1702.45" font-family="Arial" font-size="14.00">worker3_start</text>
</g>
<!-- M10&#45;&gt;M2 -->
<g id="edge53" class="edge">
<title>M10&#45;&gt;M2</title>
<path fill="none" stroke="black" d="M2754.81,-121.17C3255.63,-131.31 3911.92,-150.58 3963.45,-182.5 4015.26,-214.59 4096.58,-387.76 4062.45,-438.25 4024.18,-494.89 3957.57,-526.54 3893.1,-544.19"/>
<polygon fill="black" stroke="black" points="3892.61,-540.7 3883.82,-546.63 3894.38,-547.47 3892.61,-540.7"/>
<text xml:space="preserve" text-anchor="middle" x="4104.07" y="-333.7" font-family="Arial" font-size="14.00">worker2_finish</text>
</g>
<!-- M10&#45;&gt;M3 -->
<g id="edge52" class="edge">
<title>M10&#45;&gt;M3</title>
<path fill="none" stroke="black" d="M1612.12,-119.76C1056.02,-133.35 280.83,-170.77 184.45,-273.75 79.02,-386.41 113.72,-478.48 173.45,-620.75 216.11,-722.35 350.45,-684.18 350.45,-794.38 350.45,-1024.5 350.45,-1024.5 350.45,-1024.5 350.45,-1057.7 396.39,-1078.86 459.5,-1092.27"/>
<polygon fill="black" stroke="black" points="458.64,-1095.67 469.14,-1094.22 460.03,-1088.81 458.64,-1095.67"/>
<text xml:space="preserve" text-anchor="middle" x="216.95" y="-607.45" font-family="Arial" font-size="14.00">worker1_finish</text>
</g>
<!-- M10&#45;&gt;M16 -->
<g id="edge51" class="edge">
<title>M10&#45;&gt;M16</title>
<path fill="none" stroke="black" d="M2200.22,-131.2C2206.75,-141.03 2211.75,-153.27 2207.45,-164.5 2206.34,-167.4 2204.88,-170.22 2203.2,-172.92"/>
<polygon fill="black" stroke="black" points="2200.42,-170.79 2197.23,-180.9 2206.02,-174.99 2200.42,-170.79"/>
<text xml:space="preserve" text-anchor="middle" x="2249.93" y="-151.2" font-family="Arial" font-size="14.00">worker0_start</text>
</g>
<!-- M22 -->
<g id="node23" class="node">
<title>M22</title>
<polygon fill="white" stroke="black" points="2089.33,-39.5 947.58,-39.5 947.58,0 2089.33,0 2089.33,-39.5"/>
<text xml:space="preserve" text-anchor="middle" x="1518.45" y="-22.2" font-family="Arial" font-size="14.00">M22</text>
<text xml:space="preserve" text-anchor="middle" x="1518.45" y="-6.45" font-family="Arial" font-size="14.00">{pool:0, worker0_idle:1, worker0_working:0, worker1_idle:0, worker1_working:1, worker2_idle:0, worker2_working:1, worker3_idle:0, worker3_working:1, worker4_idle:1, worker4_working:0}</text>
</g>
<!-- M10&#45;&gt;M22 -->
<g id="edge54" class="edge">
<title>M10&#45;&gt;M22</title>
<path fill="none" stroke="black" d="M2040.38,-90.8C1932.25,-76.29 1784.01,-56.39 1673.13,-41.51"/>
<polygon fill="black" stroke="black" points="1673.72,-38.06 1663.35,-40.2 1672.79,-45 1673.72,-38.06"/>
<text xml:space="preserve" text-anchor="middle" x="1931.64" y="-59.95" font-family="Arial" font-size="14.00">worker3_start</text>
</g>
<!-- M23 -->
<g id="node24" class="node">
<title>M23</title>
<polygon fill="white" stroke="black" points="4789.33,-39.5 3647.58,-39.5 3647.58,0 4789.33,0 4789.33,-39.5"/>
<text xml:space="preserve" text-anchor="middle" x="4218.45" y="-22.2" font-family="Arial" font-size="14.00">M23</text>
<text xml:space="preserve" text-anchor="middle" x="4218.45" y="-6.45" font-family="Arial" font-size="14.00">{pool:0, worker0_idle:1, worker0_working:0, worker1_idle:0, worker1_working:1, worker2_idle:0, worker2_working:1, worker3_idle:1, worker3_working:0, worker4_idle:0, worker4_working:1}</text>
</g>
<!-- M10&#45;&gt;M23 -->
<g id="edge55" class="edge">
<title>M10&#45;&gt;M23</title>
<path fill="none" stroke="black" d="M2622.2,-90.76C2960.62,-75.92 3427.02,-55.46 3768.28,-40.49"/>
<polygon fill="black" stroke="black" points="3768.26,-44 3778.1,-40.06 3767.95,-37 3768.26,-44"/>
<text xml:space="preserve" text-anchor="middle" x="3363.67" y="-59.95" font-family="Arial" font-size="14.00">worker4_start</text>
</g>
<!-- M11&#45;&gt;M2 -->
<g id="edge59" class="edge">
<title>M11&#45;&gt;M2</title>
<path fill="none" stroke="black" d="M3005.94,-638.29C3041.72,-633.62 3071.78,-627.86 3092.45,-620.75 3104.17,-616.72 3103.73,-609.02 3115.45,-605 3133.92,-598.66 3159.77,-593.39 3190.47,-589.01"/>
<polygon fill="black" stroke="black" points="3190.6,-592.52 3200.03,-587.7 3189.65,-585.59 3190.6,-592.52"/>
<text xml:space="preserve" text-anchor="middle" x="3158.95" y="-607.45" font-family="Arial" font-size="14.00">worker3_finish</text>
</g>
<!-- M11&#45;&gt;M4 -->
<g id="edge57" class="edge">
<title>M11&#45;&gt;M4</title>
<path fill="none" stroke="black" d="M2470.55,-678.55C2460.12,-688.35 2452.22,-700.6 2459.45,-712 2462.02,-716.05 2465.17,-719.67 2468.72,-722.89"/>
<polygon fill="black" stroke="black" points="2466.35,-725.48 2476.42,-728.79 2470.61,-719.93 2466.35,-725.48"/>
<text xml:space="preserve" text-anchor="middle" x="2502.95" y="-698.7" font-family="Arial" font-size="14.00">worker1_finish</text>
</g>
<!-- M11&#45;&gt;M17 -->
<g id="edge56" class="edge">
<title>M11&#45;&gt;M17</title>
<path fill="none" stroke="black" d="M3068.54,-644.44C3587.91,-631.16 4276.91,-609.41 4298.45,-587 4310.62,-574.35 4306.08,-563.31 4298.45,-547.5 4236.28,-418.58 4134.32,-459.98 4046.45,-347 4024.53,-318.81 4042.32,-294.77 4013.45,-273.75 3981.44,-250.44 3917.65,-234.66 3842.47,-224.02"/>
<polygon fill="black" stroke="black" points="3843.18,-220.59 3832.8,-222.7 3842.23,-227.52 3843.18,-220.59"/>
<text xml:space="preserve" text-anchor="middle" x="4215.35" y="-424.95" font-family="Arial" font-size="14.00">worker0_start</text>
</g>
<!-- M11&#45;&gt;M22 -->
<g id="edge58" class="edge">
<title>M11&#45;&gt;M22</title>
<path fill="none" stroke="black" d="M1968.12,-638.26C1928.53,-633.61 1895.21,-627.86 1872.45,-620.75 1867.8,-619.3 1726.36,-532.42 1722.45,-529.5 1625.54,-457.2 1570.13,-457.34 1520.7,-347 1475.65,-246.44 1497.77,-110.32 1510.99,-50.75"/>
<polygon fill="black" stroke="black" points="1514.32,-51.9 1513.15,-41.37 1507.49,-50.33 1514.32,-51.9"/>
<text xml:space="preserve" text-anchor="middle" x="1561.58" y="-333.7" font-family="Arial" font-size="14.00">worker2_start</text>
</g>
<!-- M24 -->
<g id="node25" class="node">
<title>M24</title>
<polygon fill="white" stroke="black" points="2794.33,-404.5 1652.58,-404.5 1652.58,-365 2794.33,-365 2794.33,-404.5"/>
<text xml:space="preserve" text-anchor="middle" x="2223.45" y="-387.2" font-family="Arial" font-size="14.00">M24</text>
<text xml:space="preserve" text-anchor="middle" x="2223.45" y="-371.45" font-family="Arial" font-size="14.00">{pool:0, worker0_idle:1, worker0_working:0, worker1_idle:0, worker1_working:1, worker2_idle:1, worker2_working:0, worker3_idle:0, worker3_working:1, worker4_idle:0, worker4_working:1}</text>
</g>
<!-- M11&#45;&gt;M24 -->
<g id="edge60" class="edge">
<title>M11&#45;&gt;M24</title>
<path fill="none" stroke="black" d="M2200.77,-638.29C2172.2,-633.65 2148.34,-627.89 2133.45,-620.75 2082.16,-596.15 2068.44,-580.72 2043.7,-529.5 2022.91,-486.44 2002,-459.37 2032.45,-422.5 2036.93,-417.07 2045.02,-412.44 2055.42,-408.49"/>
<polygon fill="black" stroke="black" points="2056.26,-411.9 2064.61,-405.38 2054.02,-405.26 2056.26,-411.9"/>
<text xml:space="preserve" text-anchor="middle" x="2084.58" y="-516.2" font-family="Arial" font-size="14.00">worker4_start</text>
</g>
<!-- M12&#45;&gt;M2 -->
<g id="edge65" class="edge">
<title>M12&#45;&gt;M2</title>
<path fill="none" stroke="black" d="M3170.08,-496.23C3239.14,-500.94 3309.85,-506.71 3376.45,-513.75 3450.85,-521.61 3533.81,-534.25 3599.38,-545.16"/>
<polygon fill="black" stroke="black" points="3598.65,-548.58 3609.09,-546.78 3599.81,-541.68 3598.65,-548.58"/>
<text xml:space="preserve" text-anchor="middle" x="3542.61" y="-516.2" font-family="Arial" font-size="14.00">worker4_finish</text>
</g>
<!-- M12&#45;&gt;M5 -->
<g id="edge62" class="edge">
<title>M12&#45;&gt;M5</title>
<path fill="none" stroke="black" d="M2175.15,-458.88C2011.77,-453.36 1833.53,-446.46 1669.45,-438.25 1573.72,-433.46 1348.79,-418.5 1162.37,-405.77"/>
<polygon fill="black" stroke="black" points="1162.72,-402.29 1152.5,-405.1 1162.24,-409.27 1162.72,-402.29"/>
<text xml:space="preserve" text-anchor="middle" x="1712.95" y="-424.95" font-family="Arial" font-size="14.00">worker1_finish</text>
</g>
<!-- M12&#45;&gt;M18 -->
<g id="edge61" class="edge">
<title>M12&#45;&gt;M18</title>
<path fill="none" stroke="black" d="M2844.6,-455.8C2901.92,-445.03 2975.73,-431.9 3041.7,-422.5 3083.68,-416.52 3128.69,-411.02 3171.81,-406.21"/>
<polygon fill="black" stroke="black" points="3171.97,-409.71 3181.52,-405.14 3171.2,-402.76 3171.97,-409.71"/>
<text xml:space="preserve" text-anchor="middle" x="3082.58" y="-424.95" font-family="Arial" font-size="14.00">worker0_start</text>
</g>
<!-- M12&#45;&gt;M23 -->
<g id="edge63" class="edge">
<title>M12&#45;&gt;M23</title>
<path fill="none" stroke="black" d="M3317.77,-469.2C3656.67,-464.06 4027.17,-454.71 4062.45,-438.25 4101.9,-419.85 4094.88,-393.87 4127.45,-365 4137.97,-355.68 4146.93,-359.45 4153.45,-347 4175.66,-304.62 4133.69,-287.16 4141.7,-240 4153.68,-169.53 4185.86,-91.54 4204.53,-50.22"/>
<polygon fill="black" stroke="black" points="4207.69,-51.74 4208.67,-41.19 4201.32,-48.83 4207.69,-51.74"/>
<text xml:space="preserve" text-anchor="middle" x="4182.58" y="-242.45" font-family="Arial" font-size="14.00">worker2_start</text>
</g>
<!-- M12&#45;&gt;M24 -->
<g id="edge64" class="edge">
<title>M12&#45;&gt;M24</title>
<path fill="none" stroke="black" d="M2614.58,-455.78C2578.88,-450.35 2540.28,-444.27 2504.7,-438.25 2448.01,-428.65 2385.08,-417 2333.15,-407.11"/>
<polygon fill="black" stroke="black" points="2333.87,-403.69 2323.39,-405.25 2332.56,-410.56 2333.87,-403.69"/>
<text xml:space="preserve" text-anchor="middle" x="2545.58" y="-424.95" font-family="Arial" font-size="14.00">worker3_start</text>
</g>
<!-- M13&#45;&gt;M3 -->
<g id="edge69" class="edge">
<title>M13&#45;&gt;M3</title>
<path fill="none" stroke="black" d="M1773.41,-1043.73C1572.64,-1058.47 1296.45,-1078.74 1092.9,-1093.68"/>
<polygon fill="black" stroke="black" points="1092.66,-1090.19 1082.94,-1094.41 1093.17,-1097.17 1092.66,-1090.19"/>
<text xml:space="preserve" text-anchor="middle" x="1543.76" y="-1063.7" font-family="Arial" font-size="14.00">worker3_finish</text>
</g>
<!-- M13&#45;&gt;M4 -->
<g id="edge68" class="edge">
<title>M13&#45;&gt;M4</title>
<path fill="none" stroke="black" d="M2396.3,-1003.28C2490.15,-992.85 2575.99,-976.78 2615.45,-952 2648.21,-931.43 2630.92,-901.16 2662.45,-878.75 2690.39,-858.89 2716.23,-887.67 2737.45,-860.75 2770.73,-818.54 2712.59,-790.17 2650.56,-772.84"/>
<polygon fill="black" stroke="black" points="2651.8,-769.54 2641.24,-770.33 2649.98,-776.31 2651.8,-769.54"/>
<text xml:space="preserve" text-anchor="middle" x="2705.95" y="-881.2" font-family="Arial" font-size="14.00">worker2_finish</text>
</g>
<!-- M13&#45;&gt;M19 -->
<g id="edge66" class="edge">
<title>M13&#45;&gt;M19</title>
<path fill="none" stroke="black" d="M2361.72,-1043.71C2432.4,-1056.8 2486.45,-1078.38 2486.45,-1113.75 2486.45,-1389.5 2486.45,-1389.5 2486.45,-1389.5 2486.45,-1422.33 2421.07,-1443.85 2350.56,-1457.52"/>
<polygon fill="black" stroke="black" points="2350.34,-1454 2341.16,-1459.29 2351.63,-1460.88 2350.34,-1454"/>
<text xml:space="preserve" text-anchor="middle" x="2527.33" y="-1246.2" font-family="Arial" font-size="14.00">worker0_start</text>
</g>
<!-- M13&#45;&gt;M22 -->
<g id="edge67" class="edge">
<title>M13&#45;&gt;M22</title>
<path fill="none" stroke="black" d="M1686.48,-1003.29C1588.38,-992.84 1497.09,-976.74 1455.45,-952 1396.69,-917.08 1427.65,-864.18 1374.45,-821.25 1352.45,-803.5 1330.91,-825.48 1313.45,-803.25 1268.26,-745.72 1287.33,-709.09 1307.45,-638.75 1341.2,-520.81 1415.45,-521.14 1453.45,-404.5 1468.64,-357.89 1461.45,-343.52 1461.45,-294.5 1461.45,-294.5 1461.45,-294.5 1461.45,-110 1461.45,-86.73 1475.38,-64.66 1489.47,-48.28"/>
<polygon fill="black" stroke="black" points="1492.04,-50.66 1496.21,-40.92 1486.88,-45.93 1492.04,-50.66"/>
<text xml:space="preserve" text-anchor="middle" x="1426.24" y="-516.2" font-family="Arial" font-size="14.00">worker1_start</text>
</g>
<!-- M25 -->
<g id="node26" class="node">
<title>M25</title>
<polygon fill="white" stroke="black" points="2606.33,-952 1464.58,-952 1464.58,-912.5 2606.33,-912.5 2606.33,-952"/>
<text xml:space="preserve" text-anchor="middle" x="2035.45" y="-934.7" font-family="Arial" font-size="14.00">M25</text>
<text xml:space="preserve" text-anchor="middle" x="2035.45" y="-918.95" font-family="Arial" font-size="14.00">{pool:0, worker0_idle:1, worker0_working:0, worker1_idle:1, worker1_working:0, worker2_idle:0, worker2_working:1, worker3_idle:0, worker3_working:1, worker4_idle:0, worker4_working:1}</text>
</g>
<!-- M13&#45;&gt;M25 -->
<g id="edge70" class="edge">
<title>M13&#45;&gt;M25</title>
<path fill="none" stroke="black" d="M1998.51,-1003.44C1986.21,-994.38 1977.13,-982.74 1983.7,-970 1985.53,-966.47 1987.87,-963.2 1990.54,-960.19"/>
<polygon fill="black" stroke="black" points="1992.82,-962.85 1997.7,-953.44 1988.02,-957.76 1992.82,-962.85"/>
<text xml:space="preserve" text-anchor="middle" x="2024.58" y="-972.45" font-family="Arial" font-size="14.00">worker4_start</text>
</g>
<!-- M14&#45;&gt;M3 -->
<g id="edge75" class="edge">
<title>M14&#45;&gt;M3</title>
<path fill="none" stroke="black" d="M1509.93,-1185.77C1431.38,-1180.83 1349.17,-1174.98 1272.45,-1168.25 1174.61,-1159.66 1065.21,-1147.07 978.43,-1136.37"/>
<polygon fill="black" stroke="black" points="979.01,-1132.91 968.66,-1135.16 978.15,-1139.86 979.01,-1132.91"/>
<text xml:space="preserve" text-anchor="middle" x="1315.95" y="-1154.95" font-family="Arial" font-size="14.00">worker4_finish</text>
</g>
<!-- M14&#45;&gt;M5 -->
<g id="edge73" class="edge">
<title>M14&#45;&gt;M5</title>
<path fill="none" stroke="black" d="M1706.53,-1185.75C1613.61,-1173.63 1511.47,-1156.18 1470.45,-1134.5 1448.91,-1123.12 1451.91,-1109.66 1432.45,-1095 1418.8,-1084.71 1413.03,-1085.93 1398.45,-1077 1245.87,-983.48 1162.45,-929.71 1162.45,-750.75 1162.45,-750.75 1162.45,-750.75 1162.45,-475 1162.45,-442.91 1096.59,-421.12 1027.75,-407.11"/>
<polygon fill="black" stroke="black" points="1028.66,-403.72 1018.17,-405.22 1027.3,-410.59 1028.66,-403.72"/>
<text xml:space="preserve" text-anchor="middle" x="1208.68" y="-789.95" font-family="Arial" font-size="14.00">worker2_finish</text>
</g>
<!-- M14&#45;&gt;M20 -->
<g id="edge71" class="edge">
<title>M14&#45;&gt;M20</title>
<path fill="none" stroke="black" d="M1850.8,-1226.16C1844.71,-1231.04 1839.24,-1236.9 1835.7,-1243.75 1830.77,-1253.3 1834.65,-1262.24 1842.08,-1269.93"/>
<polygon fill="black" stroke="black" points="1839.5,-1272.33 1849.36,-1276.21 1844.07,-1267.03 1839.5,-1272.33"/>
<text xml:space="preserve" text-anchor="middle" x="1876.58" y="-1246.2" font-family="Arial" font-size="14.00">worker0_start</text>
</g>
<!-- M14&#45;&gt;M23 -->
<g id="edge72" class="edge">
<title>M14&#45;&gt;M23</title>
<path fill="none" stroke="black" d="M2458.49,-1198.08C2673.93,-1192.92 2892.09,-1183.93 2996.45,-1168.25 3149.48,-1145.26 3188.66,-1134.18 3332.45,-1077 3715.7,-924.59 3768,-793.16 4150.45,-638.75 4160.25,-634.79 4325.61,-594.08 4333.45,-587 4432.23,-497.82 4397.45,-427.58 4397.45,-294.5 4397.45,-294.5 4397.45,-294.5 4397.45,-110 4397.45,-77.87 4374.06,-57.3 4344.19,-44.14"/>
<polygon fill="black" stroke="black" points="4345.83,-41.03 4335.24,-40.52 4343.2,-47.52 4345.83,-41.03"/>
<text xml:space="preserve" text-anchor="middle" x="4316.61" y="-607.45" font-family="Arial" font-size="14.00">worker1_start</text>
</g>
<!-- M14&#45;&gt;M25 -->
<g id="edge74" class="edge">
<title>M14&#45;&gt;M25</title>
<path fill="none" stroke="black" d="M2313.06,-1185.76C2381.07,-1180.88 2440.5,-1175.06 2475.45,-1168.25 2561.55,-1151.47 2611.9,-1155.79 2650.45,-1077 2663.39,-1050.57 2720.59,-1044.93 2648.45,-970 2642.29,-963.6 2597.82,-958.05 2535.4,-953.33"/>
<polygon fill="black" stroke="black" points="2535.7,-949.84 2525.47,-952.6 2535.19,-956.82 2535.7,-949.84"/>
<text xml:space="preserve" text-anchor="middle" x="2704.67" y="-1063.7" font-family="Arial" font-size="14.00">worker3_start</text>
</g>
<!-- M15&#45;&gt;M4 -->
<g id="edge80" class="edge">
<title>M15&#45;&gt;M4</title>
<path fill="none" stroke="black" d="M2175.84,-820.99C2188.38,-809.28 2206.01,-795.1 2224.45,-787.5 2239.37,-781.36 2264.02,-776.09 2293.13,-771.63"/>
<polygon fill="black" stroke="black" points="2293.61,-775.1 2302.99,-770.18 2292.59,-768.17 2293.61,-775.1"/>
<text xml:space="preserve" text-anchor="middle" x="2267.95" y="-789.95" font-family="Arial" font-size="14.00">worker4_finish</text>
</g>
<!-- M15&#45;&gt;M5 -->
<g id="edge79" class="edge">
<title>M15&#45;&gt;M5</title>
<path fill="none" stroke="black" d="M1908.29,-820.77C1783.39,-808.8 1646.58,-791.49 1588.45,-769.5 1473.54,-726.03 1416.61,-727.3 1355.45,-620.75 1311.37,-543.95 1398.73,-484.45 1335.45,-422.5 1329.04,-416.22 1310.84,-411.02 1285.15,-406.7"/>
<polygon fill="black" stroke="black" points="1286.03,-403.3 1275.61,-405.2 1284.94,-410.21 1286.03,-403.3"/>
<text xml:space="preserve" text-anchor="middle" x="1398.95" y="-607.45" font-family="Arial" font-size="14.00">worker3_finish</text>
</g>
<!-- M15&#45;&gt;M21 -->
<g id="edge76" class="edge">
<title>M15&#45;&gt;M21</title>
<path fill="none" stroke="black" d="M2604.92,-861.23C2663.13,-866.02 2707.79,-871.82 2722.45,-878.75 2767.72,-900.15 2840.87,-1008.01 2876.45,-1043.25 2927.47,-1093.77 2966.57,-1086.77 2995.45,-1152.5 3015.46,-1198.03 2948.52,-1197.32 2930.7,-1243.75 2922.34,-1265.54 2929.45,-1272.91 2929.45,-1296.25 2929.45,-1435.12 2929.45,-1435.12 2929.45,-1435.12 2929.45,-1471.52 2906.02,-1566.99 2878.45,-1590.75 2851.43,-1614.04 2784.58,-1629.83 2712.3,-1640.44"/>
<polygon fill="black" stroke="black" points="2712.03,-1636.94 2702.63,-1641.82 2713.02,-1643.87 2712.03,-1636.94"/>
<text xml:space="preserve" text-anchor="middle" x="2971.58" y="-1246.2" font-family="Arial" font-size="14.00">worker0_start</text>
</g>
<!-- M15&#45;&gt;M24 -->
<g id="edge77" class="edge">
<title>M15&#45;&gt;M24</title>
<path fill="none" stroke="black" d="M1924.67,-820.78C1904.16,-816.15 1887.41,-810.39 1877.45,-803.25 1798.85,-746.89 1765.79,-699.21 1787.7,-605 1808.18,-516.96 1803.35,-474.26 1877.45,-422.5 1885.62,-416.79 1897.43,-411.95 1911.81,-407.83"/>
<polygon fill="black" stroke="black" points="1912.47,-411.28 1921.25,-405.35 1910.69,-404.51 1912.47,-411.28"/>
<text xml:space="preserve" text-anchor="middle" x="1828.58" y="-607.45" font-family="Arial" font-size="14.00">worker1_start</text>
</g>
<!-- M15&#45;&gt;M25 -->
<g id="edge78" class="edge">
<title>M15&#45;&gt;M25</title>
<path fill="none" stroke="black" d="M2175.74,-861.16C2183.52,-871.67 2189.22,-884.54 2181.45,-894.5 2177.37,-899.73 2169.17,-904.34 2158.64,-908.35"/>
<polygon fill="black" stroke="black" points="2157.65,-904.99 2149.32,-911.54 2159.91,-911.62 2157.65,-904.99"/>
<text xml:space="preserve" text-anchor="middle" x="2226.02" y="-881.2" font-family="Arial" font-size="14.00">worker2_start</text>
</g>
<!-- M16&#45;&gt;M6 -->
<g id="edge83" class="edge">
<title>M16&#45;&gt;M6</title>
<path fill="none" stroke="black" d="M2321.74,-222.49C2412.6,-233.73 2531.61,-247.32 2637.45,-255.75 2721.43,-262.44 2810.49,-268.03 2897.47,-272.66"/>
<polygon fill="black" stroke="black" points="2897.21,-276.15 2907.38,-273.18 2897.58,-269.16 2897.21,-276.15"/>
<text xml:space="preserve" text-anchor="middle" x="2680.95" y="-242.45" font-family="Arial" font-size="14.00">worker2_finish</text>
</g>
<!-- M16&#45;&gt;M7 -->
<g id="edge82" class="edge">
<title>M16&#45;&gt;M7</title>
<path fill="none" stroke="black" d="M1603.41,-213.66C973.38,-227.1 47.45,-253.48 47.45,-292.5 47.45,-750.75 47.45,-750.75 47.45,-750.75 47.45,-931.26 75.63,-987.55 180.45,-1134.5 198.5,-1159.8 259.96,-1209.49 286.45,-1225.75 415.62,-1305.01 582.96,-1345.74 710.93,-1366.49"/>
<polygon fill="black" stroke="black" points="710.1,-1369.9 720.53,-1368.02 711.2,-1362.99 710.1,-1369.9"/>
<text xml:space="preserve" text-anchor="middle" x="91.91" y="-789.95" font-family="Arial" font-size="14.00">worker1_finish</text>
</g>
<!-- M16&#45;&gt;M10 -->
<g id="edge81" class="edge">
<title>M16&#45;&gt;M10</title>
<path fill="none" stroke="black" d="M2131.95,-182.04C2118.48,-173.11 2108.84,-161.61 2116.45,-148.75 2118.74,-144.88 2121.6,-141.39 2124.84,-138.25"/>
<polygon fill="black" stroke="black" points="2126.85,-141.12 2132.39,-132.09 2122.42,-135.7 2126.85,-141.12"/>
<text xml:space="preserve" text-anchor="middle" x="2159.95" y="-151.2" font-family="Arial" font-size="14.00">worker0_finish</text>
</g>
<!-- M17&#45;&gt;M6 -->
<g id="edge86" class="edge">
<title>M17&#45;&gt;M6</title>
<path fill="none" stroke="black" d="M3422.92,-222.46C3429.16,-227.29 3434.77,-233.11 3438.45,-240 3442.06,-246.76 3442.78,-254.7 3442.11,-262.34"/>
<polygon fill="black" stroke="black" points="3438.69,-261.57 3440.47,-272.01 3445.59,-262.74 3438.69,-261.57"/>
<text xml:space="preserve" text-anchor="middle" x="3485.77" y="-242.45" font-family="Arial" font-size="14.00">worker3_finish</text>
</g>
<!-- M17&#45;&gt;M8 -->
<g id="edge85" class="edge">
<title>M17&#45;&gt;M8</title>
<path fill="none" stroke="black" d="M2860.91,-222.5C2323.72,-244.77 1558.75,-284.43 1510.45,-331.25 1505.71,-335.85 1436.45,-811.81 1436.45,-840 1436.45,-978.88 1436.45,-978.88 1436.45,-978.88 1436.45,-1023.21 1445.31,-1033.61 1454.45,-1077 1461.57,-1110.75 1468.42,-1118.24 1472.45,-1152.5 1473.27,-1159.45 1477.13,-1163.04 1472.45,-1168.25 1447.83,-1195.71 1332.08,-1158.79 1307.45,-1186.25 1268.65,-1229.51 1268.65,-1273.74 1307.45,-1317 1332.08,-1344.46 1438.15,-1321.45 1472.45,-1335 1495.71,-1344.18 1501.29,-1349.68 1517.45,-1368.75 1561.64,-1420.9 1538.94,-1465.86 1598.45,-1499.5 1640.45,-1523.24 1723.18,-1539.05 1817.52,-1549.55"/>
<polygon fill="black" stroke="black" points="1816.95,-1553.01 1827.27,-1550.61 1817.7,-1546.05 1816.95,-1553.01"/>
<text xml:space="preserve" text-anchor="middle" x="1479.95" y="-881.2" font-family="Arial" font-size="14.00">worker1_finish</text>
</g>
<!-- M17&#45;&gt;M11 -->
<g id="edge84" class="edge">
<title>M17&#45;&gt;M11</title>
<path fill="none" stroke="black" d="M3841.64,-222.49C3884.65,-227.16 3927.46,-232.92 3968.45,-240 4040.9,-252.52 4238.27,-275.72 4286.45,-331.25 4294.4,-340.41 4315.62,-535.4 4316.45,-547.5 4317.66,-565.01 4328.17,-573.93 4316.45,-587 4293.32,-612.79 4041.02,-618.45 4006.45,-620.75 3701.01,-641.06 3360.12,-650.49 3079.73,-654.73"/>
<polygon fill="black" stroke="black" points="3079.98,-651.23 3070.04,-654.88 3080.09,-658.23 3079.98,-651.23"/>
<text xml:space="preserve" text-anchor="middle" x="4347.44" y="-424.95" font-family="Arial" font-size="14.00">worker0_finish</text>
</g>
<!-- M18&#45;&gt;M6 -->
<g id="edge89" class="edge">
<title>M18&#45;&gt;M6</title>
<path fill="none" stroke="black" d="M3359.9,-364.7C3350.45,-354.7 3343.29,-342.26 3350.45,-331.25 3353.06,-327.24 3356.22,-323.66 3359.77,-320.47"/>
<polygon fill="black" stroke="black" points="3361.6,-323.47 3367.44,-314.63 3357.36,-317.9 3361.6,-323.47"/>
<text xml:space="preserve" text-anchor="middle" x="3393.95" y="-333.7" font-family="Arial" font-size="14.00">worker4_finish</text>
</g>
<!-- M18&#45;&gt;M9 -->
<g id="edge88" class="edge">
<title>M18&#45;&gt;M9</title>
<path fill="none" stroke="black" d="M3383.35,-404.99C3382.18,-429.17 3376.63,-470.54 3353.45,-495.75 3324.25,-527.5 3304.25,-518.84 3262.45,-529.5 3235.47,-536.38 3156.67,-526.44 3138.45,-547.5 3126.96,-560.78 3127.74,-573.09 3138.45,-587 3157.52,-611.77 3181.02,-586.82 3206.45,-605 3229.26,-621.31 3241.45,-629.46 3241.45,-657.5 3241.45,-1663.25 3241.45,-1663.25 3241.45,-1663.25 3241.45,-1698.11 3116.45,-1719.36 2966.72,-1732.31"/>
<polygon fill="black" stroke="black" points="2966.61,-1728.81 2956.94,-1733.14 2967.2,-1735.79 2966.61,-1728.81"/>
<text xml:space="preserve" text-anchor="middle" x="3284.95" y="-1063.7" font-family="Arial" font-size="14.00">worker1_finish</text>
</g>
<!-- M18&#45;&gt;M12 -->
<g id="edge87" class="edge">
<title>M18&#45;&gt;M12</title>
<path fill="none" stroke="black" d="M3299.53,-404.96C3248.78,-416.01 3182.66,-429.41 3123.45,-438.25 3081.57,-444.5 3036.9,-449.94 2993.5,-454.57"/>
<polygon fill="black" stroke="black" points="2993.29,-451.07 2983.71,-455.6 2994.02,-458.03 2993.29,-451.07"/>
<text xml:space="preserve" text-anchor="middle" x="3253.18" y="-424.95" font-family="Arial" font-size="14.00">worker0_finish</text>
</g>
<!-- M19&#45;&gt;M7 -->
<g id="edge92" class="edge">
<title>M19&#45;&gt;M7</title>
<path fill="none" stroke="black" d="M1966.32,-1459.53C1845.15,-1448.91 1690.35,-1435.94 1552.45,-1426.25 1466.08,-1420.18 1373.18,-1414.44 1285.45,-1409.39"/>
<polygon fill="black" stroke="black" points="1285.92,-1405.91 1275.74,-1408.83 1285.52,-1412.9 1285.92,-1405.91"/>
<text xml:space="preserve" text-anchor="middle" x="1785.35" y="-1428.7" font-family="Arial" font-size="14.00">worker3_finish</text>
</g>
<!-- M19&#45;&gt;M8 -->
<g id="edge91" class="edge">
<title>M19&#45;&gt;M8</title>
<path fill="none" stroke="black" d="M2173.73,-1499.75C2172.18,-1510.6 2172.38,-1523.85 2179.45,-1533.25 2182.45,-1537.23 2185.87,-1540.8 2189.62,-1543.99"/>
<polygon fill="black" stroke="black" points="2187.55,-1546.81 2197.69,-1549.87 2191.67,-1541.15 2187.55,-1546.81"/>
<text xml:space="preserve" text-anchor="middle" x="2222.95" y="-1519.95" font-family="Arial" font-size="14.00">worker2_finish</text>
</g>
<!-- M19&#45;&gt;M13 -->
<g id="edge90" class="edge">
<title>M19&#45;&gt;M13</title>
<path fill="none" stroke="black" d="M2390.9,-1459.51C2410.67,-1454.84 2430.14,-1449.09 2448.45,-1442 2544.72,-1404.75 2591.69,-1344.55 2569.45,-1243.75 2548.95,-1150.82 2545.97,-1096.21 2457.45,-1061.25 2441.46,-1054.93 2417.22,-1049.7 2388.28,-1045.36"/>
<polygon fill="black" stroke="black" points="2388.86,-1041.9 2378.47,-1043.95 2387.87,-1048.83 2388.86,-1041.9"/>
<text xml:space="preserve" text-anchor="middle" x="2615.88" y="-1246.2" font-family="Arial" font-size="14.00">worker0_finish</text>
</g>
<!-- M20&#45;&gt;M7 -->
<g id="edge95" class="edge">
<title>M20&#45;&gt;M7</title>
<path fill="none" stroke="black" d="M1675.62,-1317.48C1513.97,-1332.16 1291.83,-1352.33 1127.47,-1367.25"/>
<polygon fill="black" stroke="black" points="1127.39,-1363.74 1117.74,-1368.13 1128.02,-1370.72 1127.39,-1363.74"/>
<text xml:space="preserve" text-anchor="middle" x="1498.31" y="-1337.45" font-family="Arial" font-size="14.00">worker4_finish</text>
</g>
<!-- M20&#45;&gt;M9 -->
<g id="edge94" class="edge">
<title>M20&#45;&gt;M9</title>
<path fill="none" stroke="black" d="M2181.63,-1317.49C2363.18,-1337.38 2597.6,-1377.82 2791.45,-1460 2919.1,-1514.12 2981.3,-1519.07 3044.45,-1642.5 3052.45,-1658.13 3056.09,-1668.86 3044.45,-1682 3024.83,-1704.16 2902.52,-1720.77 2775.25,-1732.28"/>
<polygon fill="black" stroke="black" points="2775.27,-1728.76 2765.62,-1733.14 2775.89,-1735.74 2775.27,-1728.76"/>
<text xml:space="preserve" text-anchor="middle" x="2997.76" y="-1519.95" font-family="Arial" font-size="14.00">worker2_finish</text>
</g>
<!-- M20&#45;&gt;M14 -->
<g id="edge93" class="edge">
<title>M20&#45;&gt;M14</title>
<path fill="none" stroke="black" d="M1907.05,-1277.21C1911.29,-1271.92 1915.19,-1265.86 1917.45,-1259.5 1920.34,-1251.39 1918.3,-1243.08 1914.19,-1235.54"/>
<polygon fill="black" stroke="black" points="1917.18,-1233.72 1908.68,-1227.4 1911.39,-1237.64 1917.18,-1233.72"/>
<text xml:space="preserve" text-anchor="middle" x="1962.3" y="-1246.2" font-family="Arial" font-size="14.00">worker0_finish</text>
</g>
<!-- M21&#45;&gt;M8 -->
<g id="edge98" class="edge">
<title>M21&#45;&gt;M8</title>
<path fill="none" stroke="black" d="M2454.9,-1642.24C2448.33,-1630.97 2438.61,-1617.28 2426.45,-1608.75 2419.27,-1603.71 2411.4,-1599.35 2403.2,-1595.59"/>
<polygon fill="black" stroke="black" points="2404.65,-1592.4 2394.07,-1591.73 2401.92,-1598.85 2404.65,-1592.4"/>
<text xml:space="preserve" text-anchor="middle" x="2485.27" y="-1611.2" font-family="Arial" font-size="14.00">worker4_finish</text>
</g>
<!-- M21&#45;&gt;M9 -->
<g id="edge97" class="edge">
<title>M21&#45;&gt;M9</title>
<path fill="none" stroke="black" d="M2421.98,-1682.47C2408.77,-1691.34 2399.32,-1702.78 2406.45,-1715.75 2408.5,-1719.47 2411.1,-1722.86 2414.05,-1725.95"/>
<polygon fill="black" stroke="black" points="2411.62,-1728.47 2421.45,-1732.43 2416.23,-1723.21 2411.62,-1728.47"/>
<text xml:space="preserve" text-anchor="middle" x="2449.95" y="-1702.45" font-family="Arial" font-size="14.00">worker3_finish</text>
</g>
<!-- M21&#45;&gt;M15 -->
<g id="edge96" class="edge">
<title>M21&#45;&gt;M15</title>
<path fill="none" stroke="black" d="M2761.05,-1642.03C2787.12,-1637.33 2812.91,-1631.57 2837.45,-1624.5 2941.61,-1594.51 3034.45,-1589.14 3034.45,-1480.75 3034.45,-1480.75 3034.45,-1480.75 3034.45,-1205 3034.45,-1150.73 3013.71,-1138.64 2981.45,-1095 2912.8,-1002.12 2885.46,-986.1 2796.45,-912.5 2786.26,-904.07 2759.95,-883.07 2747.45,-878.75 2729.07,-872.4 2703.19,-867.12 2672.45,-862.74"/>
<polygon fill="black" stroke="black" points="2673.25,-859.32 2662.87,-861.43 2672.31,-866.25 2673.25,-859.32"/>
<text xml:space="preserve" text-anchor="middle" x="3077.95" y="-1246.2" font-family="Arial" font-size="14.00">worker0_finish</text>
</g>
<!-- M22&#45;&gt;M10 -->
<g id="edge101" class="edge">
<title>M22&#45;&gt;M10</title>
<path fill="none" stroke="black" d="M1842.99,-39.97C1887.97,-44.62 1933.46,-50.38 1976.45,-57.5 2020.82,-64.85 2069.62,-77.03 2108.69,-87.8"/>
<polygon fill="black" stroke="black" points="2107.67,-91.15 2118.25,-90.46 2109.55,-84.41 2107.67,-91.15"/>
<text xml:space="preserve" text-anchor="middle" x="2094.65" y="-59.95" font-family="Arial" font-size="14.00">worker3_finish</text>
</g>
<!-- M22&#45;&gt;M11 -->
<g id="edge100" class="edge">
<title>M22&#45;&gt;M11</title>
<path fill="none" stroke="black" d="M1523.44,-39.77C1543.93,-117.36 1621.89,-407.33 1650.45,-438.25 1723.68,-517.51 1995.6,-595.23 2100.45,-620.75 2126.09,-626.99 2152.9,-632.19 2179.96,-636.52"/>
<polygon fill="black" stroke="black" points="2179.24,-639.95 2189.66,-638.02 2180.31,-633.03 2179.24,-639.95"/>
<text xml:space="preserve" text-anchor="middle" x="1655.62" y="-333.7" font-family="Arial" font-size="14.00">worker2_finish</text>
</g>
<!-- M22&#45;&gt;M13 -->
<g id="edge99" class="edge">
<title>M22&#45;&gt;M13</title>
<path fill="none" stroke="black" d="M947.42,-37.23C620.4,-50.64 274.45,-73.46 274.45,-110 274.45,-340.12 274.45,-340.12 274.45,-340.12 274.45,-369.96 272.03,-383.74 293.45,-404.5 356.79,-465.87 984.55,-561.82 1061.45,-605 1112.36,-633.59 1208.72,-746.67 1250.45,-787.5 1324.7,-860.13 1330.41,-893.81 1416.45,-952 1447.74,-973.16 1457.75,-976.84 1494.45,-985.75 1521.3,-992.27 1564.27,-997.73 1614.57,-1002.27"/>
<polygon fill="black" stroke="black" points="1613.98,-1005.73 1624.25,-1003.12 1614.59,-998.76 1613.98,-1005.73"/>
<text xml:space="preserve" text-anchor="middle" x="799.84" y="-516.2" font-family="Arial" font-size="14.00">worker1_finish</text>
</g>
<!-- M23&#45;&gt;M10 -->
<g id="edge104" class="edge">
<title>M23&#45;&gt;M10</title>
<path fill="none" stroke="black" d="M3957.3,-39.99C3798.65,-51.1 3591.97,-64.55 3408.45,-73.25 3199.08,-83.17 2969.45,-90.9 2766.15,-96.65"/>
<polygon fill="black" stroke="black" points="2766.06,-93.15 2756.16,-96.94 2766.26,-100.15 2766.06,-93.15"/>
<text xml:space="preserve" text-anchor="middle" x="3719.39" y="-59.95" font-family="Arial" font-size="14.00">worker4_finish</text>
</g>
<!-- M23&#45;&gt;M12 -->
<g id="edge103" class="edge">
<title>M23&#45;&gt;M12</title>
<path fill="none" stroke="black" d="M4225.88,-39.57C4249.58,-101.02 4319.96,-294.77 4286.45,-347 4260.18,-387.95 4134.84,-427.22 4087.45,-438.25 4012.28,-455.75 3655.41,-464.98 3328.73,-469.81"/>
<polygon fill="black" stroke="black" points="3329.07,-466.3 3319.12,-469.95 3329.17,-473.3 3329.07,-466.3"/>
<text xml:space="preserve" text-anchor="middle" x="4333.96" y="-242.45" font-family="Arial" font-size="14.00">worker2_finish</text>
</g>
<!-- M23&#45;&gt;M14 -->
<g id="edge102" class="edge">
<title>M23&#45;&gt;M14</title>
<path fill="none" stroke="black" d="M4330.01,-39.98C4397.04,-54.82 4469.45,-78.2 4469.45,-110 4469.45,-522.62 4469.45,-522.62 4469.45,-522.62 4469.45,-553.16 4466.77,-565.14 4445.45,-587 4439.75,-592.85 4179.91,-692.92 4172.45,-696.25 3681.31,-915.16 3593.16,-1111.41 3058.45,-1168.25 2944.46,-1180.37 2703.84,-1188.94 2470.19,-1194.74"/>
<polygon fill="black" stroke="black" points="2470.14,-1191.24 2460.23,-1194.98 2470.31,-1198.24 2470.14,-1191.24"/>
<text xml:space="preserve" text-anchor="middle" x="4447.36" y="-607.45" font-family="Arial" font-size="14.00">worker1_finish</text>
</g>
<!-- M24&#45;&gt;M11 -->
<g id="edge107" class="edge">
<title>M24&#45;&gt;M11</title>
<path fill="none" stroke="black" d="M2201.09,-404.94C2177.84,-427.3 2147.32,-465.1 2166.45,-495.75 2214.23,-572.28 2309.86,-613.58 2386.09,-635.24"/>
<polygon fill="black" stroke="black" points="2385.16,-638.62 2395.73,-637.9 2387.02,-631.87 2385.16,-638.62"/>
<text xml:space="preserve" text-anchor="middle" x="2235.11" y="-516.2" font-family="Arial" font-size="14.00">worker4_finish</text>
</g>
<!-- M24&#45;&gt;M12 -->
<g id="edge106" class="edge">
<title>M24&#45;&gt;M12</title>
<path fill="none" stroke="black" d="M2481.82,-404.97C2517.17,-409.61 2552.84,-415.37 2586.45,-422.5 2620.33,-429.68 2657.11,-441.46 2686.86,-452.04"/>
<polygon fill="black" stroke="black" points="2685.46,-455.26 2696.06,-455.36 2687.84,-448.67 2685.46,-455.26"/>
<text xml:space="preserve" text-anchor="middle" x="2688.05" y="-424.95" font-family="Arial" font-size="14.00">worker3_finish</text>
</g>
<!-- M24&#45;&gt;M15 -->
<g id="edge105" class="edge">
<title>M24&#45;&gt;M15</title>
<path fill="none" stroke="black" d="M2037.56,-404.98C1961.69,-418.16 1891.45,-439.86 1891.45,-475 1891.45,-750.75 1891.45,-750.75 1891.45,-750.75 1891.45,-781.72 1957.09,-803.95 2023.16,-818.47"/>
<polygon fill="black" stroke="black" points="2022.2,-821.85 2032.71,-820.51 2023.66,-815 2022.2,-821.85"/>
<text xml:space="preserve" text-anchor="middle" x="1934.95" y="-607.45" font-family="Arial" font-size="14.00">worker1_finish</text>
</g>
<!-- M25&#45;&gt;M13 -->
<g id="edge110" class="edge">
<title>M25&#45;&gt;M13</title>
<path fill="none" stroke="black" d="M2055.83,-952.4C2063.56,-962.02 2069.61,-974.08 2065.45,-985.75 2064.43,-988.63 2063.06,-991.45 2061.49,-994.17"/>
<polygon fill="black" stroke="black" points="2058.73,-992.01 2055.91,-1002.22 2064.48,-995.99 2058.73,-992.01"/>
<text xml:space="preserve" text-anchor="middle" x="2110.3" y="-972.45" font-family="Arial" font-size="14.00">worker4_finish</text>
</g>
<!-- M25&#45;&gt;M14 -->
<g id="edge109" class="edge">
<title>M25&#45;&gt;M14</title>
<path fill="none" stroke="black" d="M2335.11,-952.48C2466.3,-964.02 2595.25,-980.95 2615.45,-1003.75 2627.09,-1016.89 2626.44,-1029.56 2615.45,-1043.25 2605.61,-1055.52 2191.23,-1142.36 1992.14,-1183.5"/>
<polygon fill="black" stroke="black" points="1991.65,-1180.02 1982.56,-1185.47 1993.07,-1186.88 1991.65,-1180.02"/>
<text xml:space="preserve" text-anchor="middle" x="2593.99" y="-1063.7" font-family="Arial" font-size="14.00">worker3_finish</text>
</g>
<!-- M25&#45;&gt;M15 -->
<g id="edge108" class="edge">
<title>M25&#45;&gt;M15</title>
<path fill="none" stroke="black" d="M2002.58,-912.13C1989.87,-902.32 1980.33,-890.08 1989.45,-878.75 1993.78,-873.37 2002.02,-868.74 2012.62,-864.76"/>
<polygon fill="black" stroke="black" points="2013.65,-868.11 2022.03,-861.62 2011.43,-861.47 2013.65,-868.11"/>
<text xml:space="preserve" text-anchor="middle" x="2032.95" y="-881.2" font-family="Arial" font-size="14.00">worker2_finish</text>
</g>
</g>
</svg>
