<?xml version="1.0" encoding="UTF-8" standalone="no"?>
<!DOCTYPE svg PUBLIC "-//W3C//DTD SVG 1.1//EN"
 "http://www.w3.org/Graphics/SVG/1.1/DTD/svg11.dtd">
<!-- Generated by graphviz version 14.0.4 (20251115.1723)
 -->
<!-- Title: ReachabilityGraph Pages: 1 -->
<svg width="212pt" height="255pt"
 viewBox="0.00 0.00 212.00 255.00" xmlns="http://www.w3.org/2000/svg" xmlns:xlink="http://www.w3.org/1999/xlink">
<g id="graph0" class="graph" transform="scale(1 1) rotate(0) translate(4 250.5)">
<title>ReachabilityGraph</title>
<polygon fill="white" stroke="none" points="-4,4 -4,-250.5 208.25,-250.5 208.25,4 -4,4"/>
<text xml:space="preserve" text-anchor="middle" x="102.12" y="-229.2" font-family="Times,serif" font-size="14.00">Deadlock Detection &#45; Reachability</text>
<!-- M0 -->
<g id="node1" class="node">
<title>M0</title>
<polygon fill="lightblue" stroke="black" points="161.5,-222 42.75,-222 42.75,-182.5 161.5,-182.5 161.5,-222"/>
<text xml:space="preserve" text-anchor="middle" x="102.12" y="-204.7" font-family="Arial" font-size="14.00">M0 (initial)</text>
<text xml:space="preserve" text-anchor="middle" x="102.12" y="-188.95" font-family="Arial" font-size="14.00">{p1:1, p2:0, p3:0}</text>
</g>
<!-- M1 -->
<g id="node2" class="node">
<title>M1</title>
<polygon fill="white" stroke="black" points="161.5,-130.75 42.75,-130.75 42.75,-91.25 161.5,-91.25 161.5,-130.75"/>
<text xml:space="preserve" text-anchor="middle" x="102.12" y="-113.45" font-family="Arial" font-size="14.00">M1</text>
<text xml:space="preserve" text-anchor="middle" x="102.12" y="-97.7" font-family="Arial" font-size="14.00">{p1:0, p2:1, p3:0}</text>
</g>
<!-- M0&#45;&gt;M1 -->
<g id="edge1" class="edge">
<title>M0&#45;&gt;M1</title>
<path fill="none" stroke="black" d="M102.12,-182.32C102.12,-170.8 102.12,-155.82 102.12,-142.65"/>
<polygon fill="black" stroke="black" points="105.63,-142.72 102.13,-132.72 98.63,-142.72 105.63,-142.72"/>
<text xml:space="preserve" text-anchor="middle" x="107.75" y="-151.2" font-family="Arial" font-size="14.00">t1</text>
</g>
<!-- M2 -->
<g id="node3" class="node">
<title>M2</title>
<polygon fill="lightcoral" stroke="black" points="161.5,-39.5 42.75,-39.5 42.75,0 161.5,0 161.5,-39.5"/>
<text xml:space="preserve" text-anchor="middle" x="102.12" y="-22.2" font-family="Arial" font-size="14.00">M2 (deadlock)</text>
<text xml:space="preserve" text-anchor="middle" x="102.12" y="-6.45" font-family="Arial" font-size="14.00">{p1:0, p2:0, p3:1}</text>
</g>
<!-- M1&#45;&gt;M2 -->
<g id="edge2" class="edge">
<title>M1&#45;&gt;M2</title>
<path fill="none" stroke="black" d="M102.12,-91.07C102.12,-79.55 102.12,-64.57 102.12,-51.4"/>
<polygon fill="black" stroke="black" points="105.63,-51.47 102.13,-41.47 98.63,-51.47 105.63,-51.47"/>
<text xml:space="preserve" text-anchor="middle" x="107.75" y="-59.95" font-family="Arial" font-size="14.00">t2</text>
</g>
</g>
</svg>
