<?xml version="1.0" encoding="UTF-8" standalone="no"?>
<!DOCTYPE svg PUBLIC "-//W3C//DTD SVG 1.1//EN"
 "http://www.w3.org/Graphics/SVG/1.1/DTD/svg11.dtd">
<!-- Generated by graphviz version 14.0.4 (20251115.1723)
 -->
<!-- Title: PetriNet Pages: 1 -->
<svg width="428pt" height="88pt"
 viewBox="0.00 0.00 428.00 88.00" xmlns="http://www.w3.org/2000/svg" xmlns:xlink="http://www.w3.org/1999/xlink">
<g id="graph0" class="graph" transform="scale(1 1) rotate(0) translate(4 84.36)">
<title>PetriNet</title>
<polygon fill="white" stroke="none" points="-4,4 -4,-84.36 423.58,-84.36 423.58,4 -4,4"/>
<text xml:space="preserve" text-anchor="middle" x="209.79" y="-63.06" font-family="Times,serif" font-size="14.00">Deadlock Detection &#45; Structure</text>
<!-- p1 -->
<g id="node1" class="node">
<title>p1</title>
<ellipse fill="lightblue" stroke="black" cx="27.93" cy="-27.93" rx="27.93" ry="27.93"/>
<text xml:space="preserve" text-anchor="middle" x="27.93" y="-30.38" font-family="Arial" font-size="14.00">p1</text>
<text xml:space="preserve" text-anchor="middle" x="27.93" y="-14.63" font-family="Arial" font-size="14.00">1</text>
</g>
<!-- t1 -->
<g id="node4" class="node">
<title>t1</title>
<polygon fill="lightgreen" stroke="black" points="145.86,-45.93 91.86,-45.93 91.86,-9.93 145.86,-9.93 145.86,-45.93"/>
<text xml:space="preserve" text-anchor="middle" x="118.86" y="-22.51" font-family="Arial" font-size="14.00">t1</text>
</g>
<!-- p1&#45;&gt;t1 -->
<g id="edge1" class="edge">
<title>p1&#45;&gt;t1</title>
<path fill="none" stroke="black" d="M56.1,-27.93C63.65,-27.93 71.98,-27.93 80.03,-27.93"/>
<polygon fill="black" stroke="black" points="79.96,-31.43 89.96,-27.93 79.96,-24.43 79.96,-31.43"/>
</g>
<!-- p2 -->
<g id="node2" class="node">
<title>p2</title>
<ellipse fill="white" stroke="black" cx="209.79" cy="-27.93" rx="27.93" ry="27.93"/>
<text xml:space="preserve" text-anchor="middle" x="209.79" y="-30.38" font-family="Arial" font-size="14.00">p2</text>
<text xml:space="preserve" text-anchor="middle" x="209.79" y="-14.63" font-family="Arial" font-size="14.00">0</text>
</g>
<!-- t2 -->
<g id="node5" class="node">
<title>t2</title>
<polygon fill="lightgray" stroke="black" points="327.72,-45.93 273.72,-45.93 273.72,-9.93 327.72,-9.93 327.72,-45.93"/>
<text xml:space="preserve" text-anchor="middle" x="300.72" y="-22.51" font-family="Arial" font-size="14.00">t2</text>
</g>
<!-- p2&#45;&gt;t2 -->
<g id="edge3" class="edge">
<title>p2&#45;&gt;t2</title>
<path fill="none" stroke="black" d="M237.96,-27.93C245.51,-27.93 253.85,-27.93 261.89,-27.93"/>
<polygon fill="black" stroke="black" points="261.82,-31.43 271.82,-27.93 261.82,-24.43 261.82,-31.43"/>
</g>
<!-- p3 -->
<g id="node3" class="node">
<title>p3</title>
<ellipse fill="white" stroke="black" cx="391.65" cy="-27.93" rx="27.93" ry="27.93"/>
<text xml:space="preserve" text-anchor="middle" x="391.65" y="-30.38" font-family="Arial" font-size="14.00">p3</text>
<text xml:space="preserve" text-anchor="middle" x="391.65" y="-14.63" font-family="Arial" font-size="14.00">0</text>
</g>
<!-- t1&#45;&gt;p2 -->
<g id="edge2" class="edge">
<title>t1&#45;&gt;p2</title>
<path fill="none" stroke="black" d="M146.06,-27.93C153.65,-27.93 162.11,-27.93 170.28,-27.93"/>
<polygon fill="black" stroke="black" points="170.03,-31.43 180.03,-27.93 170.03,-24.43 170.03,-31.43"/>
</g>
<!-- t2&#45;&gt;p3 -->
<g id="edge4" class="edge">
<title>t2&#45;&gt;p3</title>
<path fill="none" stroke="black" d="M327.92,-27.93C335.52,-27.93 343.97,-27.93 352.14,-27.93"/>
<polygon fill="black" stroke="black" points="351.89,-31.43 361.89,-27.93 351.89,-24.43 351.89,-31.43"/>
</g>
</g>
</svg>
