<?xml version="1.0" encoding="UTF-8" standalone="no"?>
<!DOCTYPE svg PUBLIC "-//W3C//DTD SVG 1.1//EN"
 "http://www.w3.org/Graphics/SVG/1.1/DTD/svg11.dtd">
<!-- Generated by graphviz version 14.0.4 (20251115.1723)
 -->
<!-- Title: PetriNet Pages: 1 -->
<svg width="1936pt" height="396pt"
 viewBox="0.00 0.00 1936.00 396.00" xmlns="http://www.w3.org/2000/svg" xmlns:xlink="http://www.w3.org/1999/xlink">
<g id="graph0" class="graph" transform="scale(1 1) rotate(0) translate(4 392.15)">
<title>PetriNet</title>
<polygon fill="white" stroke="none" points="-4,4 -4,-392.15 1932.4,-392.15 1932.4,4 -4,4"/>
<text xml:space="preserve" text-anchor="middle" x="964.2" y="-370.85" font-family="Times,serif" font-size="14.00">Dining Philosophers (Deadlock) &#45; Structure</text>
<!-- fork1 -->
<g id="node1" class="node">
<title>fork1</title>
<ellipse fill="lightblue" stroke="black" cx="32.53" cy="-57" rx="32.53" ry="32.53"/>
<text xml:space="preserve" text-anchor="middle" x="32.53" y="-59.45" font-family="Arial" font-size="14.00">fork1</text>
<text xml:space="preserve" text-anchor="middle" x="32.53" y="-43.7" font-family="Arial" font-size="14.00">1</text>
</g>
<!-- phil1_take_left -->
<g id="node9" class="node">
<title>phil1_take_left</title>
<polygon fill="lightgreen" stroke="black" points="204.05,-204 101.05,-204 101.05,-168 204.05,-168 204.05,-204"/>
<text xml:space="preserve" text-anchor="middle" x="152.55" y="-180.57" font-family="Arial" font-size="14.00">phil1_take_left</text>
</g>
<!-- fork1&#45;&gt;phil1_take_left -->
<g id="edge2" class="edge">
<title>fork1&#45;&gt;phil1_take_left</title>
<path fill="none" stroke="black" d="M55.17,-80.66C75.47,-102.85 105.79,-135.99 126.99,-159.15"/>
<polygon fill="black" stroke="black" points="124.27,-161.37 133.61,-166.38 129.44,-156.64 124.27,-161.37"/>
</g>
<!-- phil2_take_right -->
<g id="node13" class="node">
<title>phil2_take_right</title>
<polygon fill="lightgray" stroke="black" points="1459.34,-185 1348.09,-185 1348.09,-149 1459.34,-149 1459.34,-185"/>
<text xml:space="preserve" text-anchor="middle" x="1403.71" y="-161.57" font-family="Arial" font-size="14.00">phil2_take_right</text>
</g>
<!-- fork1&#45;&gt;phil2_take_right -->
<g id="edge15" class="edge">
<title>fork1&#45;&gt;phil2_take_right</title>
<path fill="none" stroke="black" d="M65.32,-53.38C116.58,-47.87 220.71,-38 309.23,-38 309.23,-38 309.23,-38 1085.23,-38 1189.19,-38 1218.88,-48.96 1312.09,-95 1335.87,-106.75 1359.22,-125.52 1376.26,-140.95"/>
<polygon fill="black" stroke="black" points="1373.75,-143.39 1383.46,-147.63 1378.51,-138.26 1373.75,-143.39"/>
</g>
<!-- fork2 -->
<g id="node2" class="node">
<title>fork2</title>
<ellipse fill="lightblue" stroke="black" cx="927.08" cy="-171" rx="32.53" ry="32.53"/>
<text xml:space="preserve" text-anchor="middle" x="927.08" y="-173.45" font-family="Arial" font-size="14.00">fork2</text>
<text xml:space="preserve" text-anchor="middle" x="927.08" y="-157.7" font-family="Arial" font-size="14.00">1</text>
</g>
<!-- phil1_take_right -->
<g id="node10" class="node">
<title>phil1_take_right</title>
<polygon fill="lightgray" stroke="black" points="527.66,-204 416.41,-204 416.41,-168 527.66,-168 527.66,-204"/>
<text xml:space="preserve" text-anchor="middle" x="472.04" y="-180.57" font-family="Arial" font-size="14.00">phil1_take_right</text>
</g>
<!-- fork2&#45;&gt;phil1_take_right -->
<g id="edge5" class="edge">
<title>fork2&#45;&gt;phil1_take_right</title>
<path fill="none" stroke="black" d="M897.54,-184.99C835.9,-213.34 686.01,-272.15 563.66,-239 542.93,-233.38 522.08,-221.7 505.61,-210.73"/>
<polygon fill="black" stroke="black" points="507.92,-208.07 497.7,-205.27 503.94,-213.83 507.92,-208.07"/>
</g>
<!-- phil2_take_left -->
<g id="node12" class="node">
<title>phil2_take_left</title>
<polygon fill="lightgreen" stroke="black" points="1135.73,-192 1032.73,-192 1032.73,-156 1135.73,-156 1135.73,-192"/>
<text xml:space="preserve" text-anchor="middle" x="1084.23" y="-168.57" font-family="Arial" font-size="14.00">phil2_take_left</text>
</g>
<!-- fork2&#45;&gt;phil2_take_left -->
<g id="edge12" class="edge">
<title>fork2&#45;&gt;phil2_take_left</title>
<path fill="none" stroke="black" d="M959.85,-171.61C977.43,-171.95 999.89,-172.39 1020.83,-172.79"/>
<polygon fill="black" stroke="black" points="1020.68,-176.29 1030.74,-172.99 1020.81,-169.29 1020.68,-176.29"/>
</g>
<!-- phil1_thinking -->
<g id="node3" class="node">
<title>phil1_thinking</title>
<ellipse fill="lightblue" stroke="black" cx="927.08" cy="-294" rx="69.65" ry="69.65"/>
<text xml:space="preserve" text-anchor="middle" x="927.08" y="-296.45" font-family="Arial" font-size="14.00">phil1_thinking</text>
<text xml:space="preserve" text-anchor="middle" x="927.08" y="-280.7" font-family="Arial" font-size="14.00">1</text>
</g>
<!-- phil1_thinking&#45;&gt;phil1_take_left -->
<g id="edge1" class="edge">
<title>phil1_thinking&#45;&gt;phil1_take_left</title>
<path fill="none" stroke="black" d="M856.98,-294.72C796.45,-295.3 706.1,-296 627.42,-296 471.04,-296 471.04,-296 471.04,-296 367.46,-296 333.91,-308.82 240.05,-265 214.4,-253.02 191.06,-230.71 175.12,-212.84"/>
<polygon fill="black" stroke="black" points="178.08,-210.92 168.89,-205.64 172.78,-215.49 178.08,-210.92"/>
</g>
<!-- phil1_has_left -->
<g id="node4" class="node">
<title>phil1_has_left</title>
<ellipse fill="white" stroke="black" cx="310.23" cy="-186" rx="70.18" ry="70.18"/>
<text xml:space="preserve" text-anchor="middle" x="310.23" y="-188.45" font-family="Arial" font-size="14.00">phil1_has_left</text>
<text xml:space="preserve" text-anchor="middle" x="310.23" y="-172.7" font-family="Arial" font-size="14.00">0</text>
</g>
<!-- phil1_has_left&#45;&gt;phil1_take_right -->
<g id="edge4" class="edge">
<title>phil1_has_left&#45;&gt;phil1_take_right</title>
<path fill="none" stroke="black" d="M380.86,-186C388.77,-186 396.82,-186 404.69,-186"/>
<polygon fill="black" stroke="black" points="404.54,-189.5 414.54,-186 404.54,-182.5 404.54,-189.5"/>
</g>
<!-- phil1_eating -->
<g id="node5" class="node">
<title>phil1_eating</title>
<ellipse fill="white" stroke="black" cx="626.42" cy="-167" rx="62.76" ry="62.76"/>
<text xml:space="preserve" text-anchor="middle" x="626.42" y="-169.45" font-family="Arial" font-size="14.00">phil1_eating</text>
<text xml:space="preserve" text-anchor="middle" x="626.42" y="-153.7" font-family="Arial" font-size="14.00">0</text>
</g>
<!-- phil1_release -->
<g id="node11" class="node">
<title>phil1_release</title>
<polygon fill="lightgray" stroke="black" points="821.43,-187 725.18,-187 725.18,-151 821.43,-151 821.43,-187"/>
<text xml:space="preserve" text-anchor="middle" x="773.3" y="-163.57" font-family="Arial" font-size="14.00">phil1_release</text>
</g>
<!-- phil1_eating&#45;&gt;phil1_release -->
<g id="edge7" class="edge">
<title>phil1_eating&#45;&gt;phil1_release</title>
<path fill="none" stroke="black" d="M689.28,-167.85C697.44,-167.97 705.78,-168.08 713.87,-168.19"/>
<polygon fill="black" stroke="black" points="713.55,-171.69 723.6,-168.33 713.64,-164.69 713.55,-171.69"/>
</g>
<!-- phil2_thinking -->
<g id="node6" class="node">
<title>phil2_thinking</title>
<ellipse fill="lightblue" stroke="black" cx="1858.75" cy="-197" rx="69.65" ry="69.65"/>
<text xml:space="preserve" text-anchor="middle" x="1858.75" y="-199.45" font-family="Arial" font-size="14.00">phil2_thinking</text>
<text xml:space="preserve" text-anchor="middle" x="1858.75" y="-183.7" font-family="Arial" font-size="14.00">1</text>
</g>
<!-- phil2_thinking&#45;&gt;phil2_take_left -->
<g id="edge11" class="edge">
<title>phil2_thinking&#45;&gt;phil2_take_left</title>
<path fill="none" stroke="black" d="M1793.66,-222.81C1733.96,-244.51 1641.96,-272 1559.09,-272 1402.71,-272 1402.71,-272 1402.71,-272 1299.7,-272 1266.15,-294.16 1171.73,-253 1145.61,-241.62 1122.18,-219.04 1106.31,-200.92"/>
<polygon fill="black" stroke="black" points="1109.26,-198.99 1100.12,-193.61 1103.91,-203.51 1109.26,-198.99"/>
</g>
<!-- phil2_has_left -->
<g id="node7" class="node">
<title>phil2_has_left</title>
<ellipse fill="white" stroke="black" cx="1241.91" cy="-174" rx="70.18" ry="70.18"/>
<text xml:space="preserve" text-anchor="middle" x="1241.91" y="-176.45" font-family="Arial" font-size="14.00">phil2_has_left</text>
<text xml:space="preserve" text-anchor="middle" x="1241.91" y="-160.7" font-family="Arial" font-size="14.00">0</text>
</g>
<!-- phil2_has_left&#45;&gt;phil2_take_right -->
<g id="edge14" class="edge">
<title>phil2_has_left&#45;&gt;phil2_take_right</title>
<path fill="none" stroke="black" d="M1312.07,-170.97C1320.21,-170.61 1328.5,-170.25 1336.6,-169.9"/>
<polygon fill="black" stroke="black" points="1336.54,-173.4 1346.37,-169.47 1336.23,-166.41 1336.54,-173.4"/>
</g>
<!-- phil2_eating -->
<g id="node8" class="node">
<title>phil2_eating</title>
<ellipse fill="white" stroke="black" cx="1558.09" cy="-167" rx="62.76" ry="62.76"/>
<text xml:space="preserve" text-anchor="middle" x="1558.09" y="-169.45" font-family="Arial" font-size="14.00">phil2_eating</text>
<text xml:space="preserve" text-anchor="middle" x="1558.09" y="-153.7" font-family="Arial" font-size="14.00">0</text>
</g>
<!-- phil2_release -->
<g id="node14" class="node">
<title>phil2_release</title>
<polygon fill="lightgray" stroke="black" points="1753.1,-140 1656.85,-140 1656.85,-104 1753.1,-104 1753.1,-140"/>
<text xml:space="preserve" text-anchor="middle" x="1704.97" y="-116.58" font-family="Arial" font-size="14.00">phil2_release</text>
</g>
<!-- phil2_eating&#45;&gt;phil2_release -->
<g id="edge17" class="edge">
<title>phil2_eating&#45;&gt;phil2_release</title>
<path fill="none" stroke="black" d="M1618.44,-148.57C1627.44,-145.77 1636.72,-142.89 1645.7,-140.1"/>
<polygon fill="black" stroke="black" points="1646.5,-143.52 1655.01,-137.21 1644.42,-136.83 1646.5,-143.52"/>
</g>
<!-- phil1_take_left&#45;&gt;phil1_has_left -->
<g id="edge3" class="edge">
<title>phil1_take_left&#45;&gt;phil1_has_left</title>
<path fill="none" stroke="black" d="M204.53,-186C212.18,-186 220.23,-186 228.33,-186"/>
<polygon fill="black" stroke="black" points="228.25,-189.5 238.25,-186 228.25,-182.5 228.25,-189.5"/>
</g>
<!-- phil1_take_right&#45;&gt;phil1_eating -->
<g id="edge6" class="edge">
<title>phil1_take_right&#45;&gt;phil1_eating</title>
<path fill="none" stroke="black" d="M528.05,-179.14C536.02,-178.15 544.33,-177.11 552.58,-176.08"/>
<polygon fill="black" stroke="black" points="552.78,-179.58 562.27,-174.87 551.91,-172.64 552.78,-179.58"/>
</g>
<!-- phil1_release&#45;&gt;fork1 -->
<g id="edge9" class="edge">
<title>phil1_release&#45;&gt;fork1</title>
<path fill="none" stroke="black" d="M757.97,-150.76C742.93,-133.1 717.56,-107.25 689.18,-95 600.64,-56.78 569.47,-76 473.04,-76 309.23,-76 309.23,-76 309.23,-76 226.76,-76 130.74,-67.43 76.55,-61.81"/>
<polygon fill="black" stroke="black" points="77.14,-58.35 66.82,-60.78 76.4,-65.31 77.14,-58.35"/>
</g>
<!-- phil1_release&#45;&gt;fork2 -->
<g id="edge10" class="edge">
<title>phil1_release&#45;&gt;fork2</title>
<path fill="none" stroke="black" d="M821.91,-169.63C841.49,-169.89 864,-170.18 883.08,-170.43"/>
<polygon fill="black" stroke="black" points="882.9,-173.93 892.94,-170.56 882.99,-166.93 882.9,-173.93"/>
</g>
<!-- phil1_release&#45;&gt;phil1_thinking -->
<g id="edge8" class="edge">
<title>phil1_release&#45;&gt;phil1_thinking</title>
<path fill="none" stroke="black" d="M796.7,-187.44C814.47,-202.08 840.2,-223.28 864.05,-242.92"/>
<polygon fill="black" stroke="black" points="861.62,-245.45 871.56,-249.1 866.07,-240.05 861.62,-245.45"/>
</g>
<!-- phil2_take_left&#45;&gt;phil2_has_left -->
<g id="edge13" class="edge">
<title>phil2_take_left&#45;&gt;phil2_has_left</title>
<path fill="none" stroke="black" d="M1136.2,-174C1143.86,-174 1151.91,-174 1160,-174"/>
<polygon fill="black" stroke="black" points="1159.92,-177.5 1169.92,-174 1159.92,-170.5 1159.92,-177.5"/>
</g>
<!-- phil2_take_right&#45;&gt;phil2_eating -->
<g id="edge16" class="edge">
<title>phil2_take_right&#45;&gt;phil2_eating</title>
<path fill="none" stroke="black" d="M1459.72,-167C1467.49,-167 1475.57,-167 1483.61,-167"/>
<polygon fill="black" stroke="black" points="1483.41,-170.5 1493.41,-167 1483.41,-163.5 1483.41,-170.5"/>
</g>
<!-- phil2_release&#45;&gt;fork1 -->
<g id="edge19" class="edge">
<title>phil2_release&#45;&gt;fork1</title>
<path fill="none" stroke="black" d="M1678.58,-103.74C1628.7,-69.7 1513.28,0 1404.71,0 309.23,0 309.23,0 309.23,0 224.36,0 127.77,-26.23 74.41,-43.1"/>
<polygon fill="black" stroke="black" points="73.59,-39.69 65.14,-46.08 75.74,-46.35 73.59,-39.69"/>
</g>
<!-- phil2_release&#45;&gt;fork2 -->
<g id="edge20" class="edge">
<title>phil2_release&#45;&gt;fork2</title>
<path fill="none" stroke="black" d="M1656.56,-104.56C1645.01,-100.88 1632.59,-97.39 1620.85,-95 1526.36,-75.76 1501.14,-76 1404.71,-76 1240.91,-76 1240.91,-76 1240.91,-76 1138.31,-76 1024.64,-123.36 966.68,-151.2"/>
<polygon fill="black" stroke="black" points="965.34,-147.96 957.88,-155.49 968.4,-154.25 965.34,-147.96"/>
</g>
<!-- phil2_release&#45;&gt;phil2_thinking -->
<g id="edge18" class="edge">
<title>phil2_release&#45;&gt;phil2_thinking</title>
<path fill="none" stroke="black" d="M1743.1,-140.35C1756.01,-146.72 1770.96,-154.11 1785.71,-161.4"/>
<polygon fill="black" stroke="black" points="1784,-164.46 1794.51,-165.75 1787.1,-158.18 1784,-164.46"/>
</g>
</g>
</svg>
