<?xml version="1.0" encoding="UTF-8" standalone="no"?>
<!DOCTYPE svg PUBLIC "-//W3C//DTD SVG 1.1//EN"
 "http://www.w3.org/Graphics/SVG/1.1/DTD/svg11.dtd">
<!-- Generated by graphviz version 14.0.4 (20251115.1723)
 -->
<!-- Title: ReachabilityGraph Pages: 1 -->
<svg width="2159pt" height="255pt"
 viewBox="0.00 0.00 2159.00 255.00" xmlns="http://www.w3.org/2000/svg" xmlns:xlink="http://www.w3.org/1999/xlink">
<g id="graph0" class="graph" transform="scale(1 1) rotate(0) translate(4 250.5)">
<title>ReachabilityGraph</title>
<polygon fill="white" stroke="none" points="-4,4 -4,-250.5 2154.5,-250.5 2154.5,4 -4,4"/>
<text xml:space="preserve" text-anchor="middle" x="1075.25" y="-229.2" font-family="Times,serif" font-size="14.00">Dining Philosophers (Deadlock) &#45; Reachability</text>
<!-- M0 -->
<g id="node1" class="node">
<title>M0</title>
<polygon fill="lightblue" stroke="black" points="1461.5,-222 757,-222 757,-182.5 1461.5,-182.5 1461.5,-222"/>
<text xml:space="preserve" text-anchor="middle" x="1109.25" y="-204.7" font-family="Arial" font-size="14.00">M0 (initial)</text>
<text xml:space="preserve" text-anchor="middle" x="1109.25" y="-188.95" font-family="Arial" font-size="14.00">{fork1:1, fork2:1, phil1_eating:0, phil1_has_left:0, phil1_thinking:1, phil2_eating:0, phil2_has_left:0, phil2_thinking:1}</text>
</g>
<!-- M1 -->
<g id="node2" class="node">
<title>M1</title>
<polygon fill="white" stroke="black" points="848.5,-130.75 144,-130.75 144,-91.25 848.5,-91.25 848.5,-130.75"/>
<text xml:space="preserve" text-anchor="middle" x="496.25" y="-113.45" font-family="Arial" font-size="14.00">M1</text>
<text xml:space="preserve" text-anchor="middle" x="496.25" y="-97.7" font-family="Arial" font-size="14.00">{fork1:0, fork2:1, phil1_eating:0, phil1_has_left:1, phil1_thinking:0, phil2_eating:0, phil2_has_left:0, phil2_thinking:1}</text>
</g>
<!-- M0&#45;&gt;M1 -->
<g id="edge1" class="edge">
<title>M0&#45;&gt;M1</title>
<path fill="none" stroke="black" d="M918.91,-182.02C874.33,-176.9 827.06,-170.97 783.25,-164.5 723.49,-155.68 657.11,-143.68 603.27,-133.38"/>
<polygon fill="black" stroke="black" points="603.94,-129.95 593.46,-131.5 602.62,-136.82 603.94,-129.95"/>
<text xml:space="preserve" text-anchor="middle" x="826.75" y="-151.2" font-family="Arial" font-size="14.00">phil1_take_left</text>
</g>
<!-- M2 -->
<g id="node3" class="node">
<title>M2</title>
<polygon fill="white" stroke="black" points="1687.5,-130.75 983,-130.75 983,-91.25 1687.5,-91.25 1687.5,-130.75"/>
<text xml:space="preserve" text-anchor="middle" x="1335.25" y="-113.45" font-family="Arial" font-size="14.00">M2</text>
<text xml:space="preserve" text-anchor="middle" x="1335.25" y="-97.7" font-family="Arial" font-size="14.00">{fork1:1, fork2:0, phil1_eating:0, phil1_has_left:0, phil1_thinking:1, phil2_eating:0, phil2_has_left:1, phil2_thinking:0}</text>
</g>
<!-- M0&#45;&gt;M2 -->
<g id="edge2" class="edge">
<title>M0&#45;&gt;M2</title>
<path fill="none" stroke="black" d="M1157.73,-182.1C1192.44,-168.4 1239.36,-149.87 1276.24,-135.3"/>
<polygon fill="black" stroke="black" points="1277.42,-138.6 1285.44,-131.67 1274.85,-132.09 1277.42,-138.6"/>
<text xml:space="preserve" text-anchor="middle" x="1279.28" y="-151.2" font-family="Arial" font-size="14.00">phil2_take_left</text>
</g>
<!-- M3 -->
<g id="node4" class="node">
<title>M3</title>
<polygon fill="white" stroke="black" points="704.5,-39.5 0,-39.5 0,0 704.5,0 704.5,-39.5"/>
<text xml:space="preserve" text-anchor="middle" x="352.25" y="-22.2" font-family="Arial" font-size="14.00">M3</text>
<text xml:space="preserve" text-anchor="middle" x="352.25" y="-6.45" font-family="Arial" font-size="14.00">{fork1:0, fork2:0, phil1_eating:1, phil1_has_left:0, phil1_thinking:0, phil2_eating:0, phil2_has_left:0, phil2_thinking:1}</text>
</g>
<!-- M1&#45;&gt;M3 -->
<g id="edge3" class="edge">
<title>M1&#45;&gt;M3</title>
<path fill="none" stroke="black" d="M465.36,-90.85C444.1,-77.68 415.65,-60.04 392.6,-45.76"/>
<polygon fill="black" stroke="black" points="394.72,-42.96 384.38,-40.66 391.03,-48.91 394.72,-42.96"/>
<text xml:space="preserve" text-anchor="middle" x="480.5" y="-59.95" font-family="Arial" font-size="14.00">phil1_take_right</text>
</g>
<!-- M4 -->
<g id="node5" class="node">
<title>M4</title>
<polygon fill="lightcoral" stroke="black" points="1427.5,-39.5 723,-39.5 723,0 1427.5,0 1427.5,-39.5"/>
<text xml:space="preserve" text-anchor="middle" x="1075.25" y="-22.2" font-family="Arial" font-size="14.00">M4 (deadlock)</text>
<text xml:space="preserve" text-anchor="middle" x="1075.25" y="-6.45" font-family="Arial" font-size="14.00">{fork1:0, fork2:0, phil1_eating:0, phil1_has_left:1, phil1_thinking:0, phil2_eating:0, phil2_has_left:1, phil2_thinking:0}</text>
</g>
<!-- M1&#45;&gt;M4 -->
<g id="edge4" class="edge">
<title>M1&#45;&gt;M4</title>
<path fill="none" stroke="black" d="M620.82,-90.8C714.49,-76.36 842.74,-56.59 939.11,-41.74"/>
<polygon fill="black" stroke="black" points="939.55,-45.21 948.9,-40.23 938.49,-38.29 939.55,-45.21"/>
<text xml:space="preserve" text-anchor="middle" x="863.92" y="-59.95" font-family="Arial" font-size="14.00">phil2_take_left</text>
</g>
<!-- M2&#45;&gt;M4 -->
<g id="edge5" class="edge">
<title>M2&#45;&gt;M4</title>
<path fill="none" stroke="black" d="M1279.47,-90.85C1239.12,-77 1184.41,-58.22 1141.78,-43.59"/>
<polygon fill="black" stroke="black" points="1142.96,-40.29 1132.37,-40.36 1140.69,-46.91 1142.96,-40.29"/>
<text xml:space="preserve" text-anchor="middle" x="1264.32" y="-59.95" font-family="Arial" font-size="14.00">phil1_take_left</text>
</g>
<!-- M5 -->
<g id="node6" class="node">
<title>M5</title>
<polygon fill="white" stroke="black" points="2150.5,-39.5 1446,-39.5 1446,0 2150.5,0 2150.5,-39.5"/>
<text xml:space="preserve" text-anchor="middle" x="1798.25" y="-22.2" font-family="Arial" font-size="14.00">M5</text>
<text xml:space="preserve" text-anchor="middle" x="1798.25" y="-6.45" font-family="Arial" font-size="14.00">{fork1:0, fork2:0, phil1_eating:0, phil1_has_left:0, phil1_thinking:1, phil2_eating:1, phil2_has_left:0, phil2_thinking:0}</text>
</g>
<!-- M2&#45;&gt;M5 -->
<g id="edge6" class="edge">
<title>M2&#45;&gt;M5</title>
<path fill="none" stroke="black" d="M1434.86,-90.8C1509.08,-76.49 1610.45,-56.95 1687.26,-42.14"/>
<polygon fill="black" stroke="black" points="1687.77,-45.61 1696.93,-40.28 1686.45,-38.74 1687.77,-45.61"/>
<text xml:space="preserve" text-anchor="middle" x="1642.1" y="-59.95" font-family="Arial" font-size="14.00">phil2_take_right</text>
</g>
<!-- M3&#45;&gt;M0 -->
<g id="edge7" class="edge">
<title>M3&#45;&gt;M0</title>
<path fill="none" stroke="black" d="M602.33,-39.99C705.84,-51.16 812.15,-67.77 857.25,-91.25 878.52,-102.32 873.8,-117.83 894,-130.75 927.85,-152.39 968.96,-167.99 1006.15,-178.92"/>
<polygon fill="black" stroke="black" points="1005,-182.23 1015.58,-181.61 1006.92,-175.5 1005,-182.23"/>
<text xml:space="preserve" text-anchor="middle" x="934.12" y="-105.58" font-family="Arial" font-size="14.00">phil1_release</text>
</g>
<!-- M5&#45;&gt;M0 -->
<g id="edge8" class="edge">
<title>M5&#45;&gt;M0</title>
<path fill="none" stroke="black" d="M1786.84,-39.73C1770.36,-65.25 1737.32,-109.82 1696.25,-130.75 1650.04,-154.3 1548.86,-170.24 1443.29,-180.91"/>
<polygon fill="black" stroke="black" points="1443.18,-177.41 1433.58,-181.88 1443.87,-184.37 1443.18,-177.41"/>
<text xml:space="preserve" text-anchor="middle" x="1786.16" y="-105.58" font-family="Arial" font-size="14.00">phil2_release</text>
</g>
</g>
</svg>
