<?xml version="1.0" encoding="UTF-8" standalone="no"?>
<!DOCTYPE svg PUBLIC "-//W3C//DTD SVG 1.1//EN"
 "http://www.w3.org/Graphics/SVG/1.1/DTD/svg11.dtd">
<!-- Generated by graphviz version 14.0.4 (20251115.1723)
 -->
<!-- Title: ReachabilityGraph Pages: 1 -->
<svg width="302pt" height="346pt"
 viewBox="0.00 0.00 302.00 346.00" xmlns="http://www.w3.org/2000/svg" xmlns:xlink="http://www.w3.org/1999/xlink">
<g id="graph0" class="graph" transform="scale(1 1) rotate(0) translate(4 341.75)">
<title>ReachabilityGraph</title>
<polygon fill="white" stroke="none" points="-4,4 -4,-341.75 298.25,-341.75 298.25,4 -4,4"/>
<text xml:space="preserve" text-anchor="middle" x="147.12" y="-320.45" font-family="Times,serif" font-size="14.00">Weighted Arcs (Chemical Reaction) &#45; Reachability</text>
<!-- M0 -->
<g id="node1" class="node">
<title>M0</title>
<polygon fill="lightblue" stroke="black" points="216.25,-313.25 78,-313.25 78,-273.75 216.25,-273.75 216.25,-313.25"/>
<text xml:space="preserve" text-anchor="middle" x="147.12" y="-295.95" font-family="Arial" font-size="14.00">M0 (initial)</text>
<text xml:space="preserve" text-anchor="middle" x="147.12" y="-280.2" font-family="Arial" font-size="14.00">{H2:6, H2O:0, O2:3}</text>
</g>
<!-- M1 -->
<g id="node2" class="node">
<title>M1</title>
<polygon fill="white" stroke="black" points="216.25,-222 78,-222 78,-182.5 216.25,-182.5 216.25,-222"/>
<text xml:space="preserve" text-anchor="middle" x="147.12" y="-204.7" font-family="Arial" font-size="14.00">M1</text>
<text xml:space="preserve" text-anchor="middle" x="147.12" y="-188.95" font-family="Arial" font-size="14.00">{H2:4, H2O:2, O2:2}</text>
</g>
<!-- M0&#45;&gt;M1 -->
<g id="edge1" class="edge">
<title>M0&#45;&gt;M1</title>
<path fill="none" stroke="black" d="M147.12,-273.57C147.12,-262.05 147.12,-247.07 147.12,-233.9"/>
<polygon fill="black" stroke="black" points="150.63,-233.97 147.13,-223.97 143.63,-233.97 150.63,-233.97"/>
<text xml:space="preserve" text-anchor="middle" x="162.12" y="-242.45" font-family="Arial" font-size="14.00">react</text>
</g>
<!-- M2 -->
<g id="node3" class="node">
<title>M2</title>
<polygon fill="white" stroke="black" points="216.25,-130.75 78,-130.75 78,-91.25 216.25,-91.25 216.25,-130.75"/>
<text xml:space="preserve" text-anchor="middle" x="147.12" y="-113.45" font-family="Arial" font-size="14.00">M2</text>
<text xml:space="preserve" text-anchor="middle" x="147.12" y="-97.7" font-family="Arial" font-size="14.00">{H2:2, H2O:4, O2:1}</text>
</g>
<!-- M1&#45;&gt;M2 -->
<g id="edge2" class="edge">
<title>M1&#45;&gt;M2</title>
<path fill="none" stroke="black" d="M147.12,-182.32C147.12,-170.8 147.12,-155.82 147.12,-142.65"/>
<polygon fill="black" stroke="black" points="150.63,-142.72 147.13,-132.72 143.63,-142.72 150.63,-142.72"/>
<text xml:space="preserve" text-anchor="middle" x="162.12" y="-151.2" font-family="Arial" font-size="14.00">react</text>
</g>
<!-- M3 -->
<g id="node4" class="node">
<title>M3</title>
<polygon fill="lightcoral" stroke="black" points="216.25,-39.5 78,-39.5 78,0 216.25,0 216.25,-39.5"/>
<text xml:space="preserve" text-anchor="middle" x="147.12" y="-22.2" font-family="Arial" font-size="14.00">M3 (deadlock)</text>
<text xml:space="preserve" text-anchor="middle" x="147.12" y="-6.45" font-family="Arial" font-size="14.00">{H2:0, H2O:6, O2:0}</text>
</g>
<!-- M2&#45;&gt;M3 -->
<g id="edge3" class="edge">
<title>M2&#45;&gt;M3</title>
<path fill="none" stroke="black" d="M147.12,-91.07C147.12,-79.55 147.12,-64.57 147.12,-51.4"/>
<polygon fill="black" stroke="black" points="150.63,-51.47 147.13,-41.47 143.63,-51.47 150.63,-51.47"/>
<text xml:space="preserve" text-anchor="middle" x="162.12" y="-59.95" font-family="Arial" font-size="14.00">react</text>
</g>
</g>
</svg>
