<?xml version="1.0" encoding="UTF-8" standalone="no"?>
<!DOCTYPE svg PUBLIC "-//W3C//DTD SVG 1.1//EN"
 "http://www.w3.org/Graphics/SVG/1.1/DTD/svg11.dtd">
<!-- Generated by graphviz version 14.0.4 (20251115.1723)
 -->
<!-- Title: PetriNet Pages: 1 -->
<svg width="284pt" height="162pt"
 viewBox="0.00 0.00 284.00 162.00" xmlns="http://www.w3.org/2000/svg" xmlns:xlink="http://www.w3.org/1999/xlink">
<g id="graph0" class="graph" transform="scale(1 1) rotate(0) translate(4 158.36)">
<title>PetriNet</title>
<polygon fill="white" stroke="none" points="-4,4 -4,-158.36 279.5,-158.36 279.5,4 -4,4"/>
<text xml:space="preserve" text-anchor="middle" x="137.75" y="-137.06" font-family="Times,serif" font-size="14.00">Weighted Arcs (Chemical Reaction) &#45; Structure</text>
<!-- H2 -->
<g id="node1" class="node">
<title>H2</title>
<ellipse fill="lightblue" stroke="black" cx="35.78" cy="-101.93" rx="27.93" ry="27.93"/>
<text xml:space="preserve" text-anchor="middle" x="35.78" y="-104.38" font-family="Arial" font-size="14.00">H2</text>
<text xml:space="preserve" text-anchor="middle" x="35.78" y="-88.63" font-family="Arial" font-size="14.00">6</text>
</g>
<!-- react -->
<g id="node4" class="node">
<title>react</title>
<polygon fill="lightgreen" stroke="black" points="161.21,-82.93 107.21,-82.93 107.21,-46.93 161.21,-46.93 161.21,-82.93"/>
<text xml:space="preserve" text-anchor="middle" x="134.21" y="-59.51" font-family="Arial" font-size="14.00">react</text>
</g>
<!-- H2&#45;&gt;react -->
<g id="edge1" class="edge">
<title>H2&#45;&gt;react</title>
<path fill="none" stroke="black" d="M62.37,-92.11C72.77,-88.12 84.99,-83.43 96.33,-79.08"/>
<polygon fill="black" stroke="black" points="97.34,-82.45 105.42,-75.6 94.83,-75.91 97.34,-82.45"/>
<text xml:space="preserve" text-anchor="middle" x="85.46" y="-86.99" font-family="Arial" font-size="14.00">2</text>
</g>
<!-- O2 -->
<g id="node2" class="node">
<title>O2</title>
<ellipse fill="lightblue" stroke="black" cx="35.78" cy="-27.93" rx="27.93" ry="27.93"/>
<text xml:space="preserve" text-anchor="middle" x="35.78" y="-30.38" font-family="Arial" font-size="14.00">O2</text>
<text xml:space="preserve" text-anchor="middle" x="35.78" y="-14.63" font-family="Arial" font-size="14.00">3</text>
</g>
<!-- O2&#45;&gt;react -->
<g id="edge2" class="edge">
<title>O2&#45;&gt;react</title>
<path fill="none" stroke="black" d="M62.37,-37.75C72.77,-41.74 84.99,-46.43 96.33,-50.78"/>
<polygon fill="black" stroke="black" points="94.83,-53.95 105.42,-54.27 97.34,-47.42 94.83,-53.95"/>
</g>
<!-- H2O -->
<g id="node3" class="node">
<title>H2O</title>
<ellipse fill="white" stroke="black" cx="236.18" cy="-64.93" rx="31.47" ry="31.47"/>
<text xml:space="preserve" text-anchor="middle" x="236.18" y="-67.38" font-family="Arial" font-size="14.00">H2O</text>
<text xml:space="preserve" text-anchor="middle" x="236.18" y="-51.63" font-family="Arial" font-size="14.00">0</text>
</g>
<!-- react&#45;&gt;H2O -->
<g id="edge3" class="edge">
<title>react&#45;&gt;H2O</title>
<path fill="none" stroke="black" d="M161.48,-64.93C171.17,-64.93 182.4,-64.93 193.13,-64.93"/>
<polygon fill="black" stroke="black" points="192.97,-68.43 202.97,-64.93 192.97,-61.43 192.97,-68.43"/>
<text xml:space="preserve" text-anchor="middle" x="182.96" y="-67.38" font-family="Arial" font-size="14.00">2</text>
</g>
</g>
</svg>
