<?xml version="1.0" encoding="UTF-8" standalone="no"?>
<!DOCTYPE svg PUBLIC "-//W3C//DTD SVG 1.1//EN"
 "http://www.w3.org/Graphics/SVG/1.1/DTD/svg11.dtd">
<!-- Generated by graphviz version 14.0.4 (20251115.1723)
 -->
<!-- Title: ReachabilityGraph Pages: 1 -->
<svg width="532pt" height="163pt"
 viewBox="0.00 0.00 532.00 163.00" xmlns="http://www.w3.org/2000/svg" xmlns:xlink="http://www.w3.org/1999/xlink">
<g id="graph0" class="graph" transform="scale(1 1) rotate(0) translate(4 159.25)">
<title>ReachabilityGraph</title>
<polygon fill="white" stroke="none" points="-4,4 -4,-159.25 528,-159.25 528,4 -4,4"/>
<text xml:space="preserve" text-anchor="middle" x="262" y="-137.95" font-family="Times,serif" font-size="14.00">Transition Priorities &#45; Reachability</text>
<!-- M0 -->
<g id="node1" class="node">
<title>M0</title>
<polygon fill="lightblue" stroke="black" points="388,-130.75 135,-130.75 135,-91.25 388,-91.25 388,-130.75"/>
<text xml:space="preserve" text-anchor="middle" x="261.5" y="-113.45" font-family="Arial" font-size="14.00">M0 (initial)</text>
<text xml:space="preserve" text-anchor="middle" x="261.5" y="-97.7" font-family="Arial" font-size="14.00">{high_got_it:0, low_got_it:0, resource:1}</text>
</g>
<!-- M1 -->
<g id="node2" class="node">
<title>M1</title>
<polygon fill="lightcoral" stroke="black" points="253,-39.5 0,-39.5 0,0 253,0 253,-39.5"/>
<text xml:space="preserve" text-anchor="middle" x="126.5" y="-22.2" font-family="Arial" font-size="14.00">M1 (deadlock)</text>
<text xml:space="preserve" text-anchor="middle" x="126.5" y="-6.45" font-family="Arial" font-size="14.00">{high_got_it:1, low_got_it:0, resource:0}</text>
</g>
<!-- M0&#45;&gt;M1 -->
<g id="edge1" class="edge">
<title>M0&#45;&gt;M1</title>
<path fill="none" stroke="black" d="M232.54,-90.85C212.79,-77.79 186.41,-60.36 164.91,-46.14"/>
<polygon fill="black" stroke="black" points="166.95,-43.29 156.68,-40.7 163.09,-49.13 166.95,-43.29"/>
<text xml:space="preserve" text-anchor="middle" x="238.83" y="-59.95" font-family="Arial" font-size="14.00">high_priority</text>
</g>
<!-- M2 -->
<g id="node3" class="node">
<title>M2</title>
<polygon fill="lightcoral" stroke="black" points="524,-39.5 271,-39.5 271,0 524,0 524,-39.5"/>
<text xml:space="preserve" text-anchor="middle" x="397.5" y="-22.2" font-family="Arial" font-size="14.00">M2 (deadlock)</text>
<text xml:space="preserve" text-anchor="middle" x="397.5" y="-6.45" font-family="Arial" font-size="14.00">{high_got_it:0, low_got_it:1, resource:0}</text>
</g>
<!-- M0&#45;&gt;M2 -->
<g id="edge2" class="edge">
<title>M0&#45;&gt;M2</title>
<path fill="none" stroke="black" d="M290.68,-90.85C310.57,-77.79 337.14,-60.36 358.81,-46.14"/>
<polygon fill="black" stroke="black" points="360.67,-49.11 367.11,-40.7 356.83,-43.26 360.67,-49.11"/>
<text xml:space="preserve" text-anchor="middle" x="371.77" y="-59.95" font-family="Arial" font-size="14.00">low_priority</text>
</g>
</g>
</svg>
