<?xml version="1.0" encoding="UTF-8" standalone="no"?>
<!DOCTYPE svg PUBLIC "-//W3C//DTD SVG 1.1//EN"
 "http://www.w3.org/Graphics/SVG/1.1/DTD/svg11.dtd">
<!-- Generated by graphviz version 14.0.4 (20251115.1723)
 -->
<!-- Title: PetriNet Pages: 1 -->
<svg width="382pt" height="275pt"
 viewBox="0.00 0.00 382.00 275.00" xmlns="http://www.w3.org/2000/svg" xmlns:xlink="http://www.w3.org/1999/xlink">
<g id="graph0" class="graph" transform="scale(1 1) rotate(0) translate(4 270.75)">
<title>PetriNet</title>
<polygon fill="white" stroke="none" points="-4,4 -4,-270.75 378.34,-270.75 378.34,4 -4,4"/>
<text xml:space="preserve" text-anchor="middle" x="187.17" y="-249.45" font-family="Times,serif" font-size="14.00">Transition Priorities &#45; Structure</text>
<!-- resource -->
<g id="node1" class="node">
<title>resource</title>
<ellipse fill="lightblue" stroke="black" cx="48.44" cy="-122.98" rx="48.44" ry="48.44"/>
<text xml:space="preserve" text-anchor="middle" x="48.44" y="-125.43" font-family="Arial" font-size="14.00">resource</text>
<text xml:space="preserve" text-anchor="middle" x="48.44" y="-109.68" font-family="Arial" font-size="14.00">1</text>
</g>
<!-- low_priority -->
<g id="node4" class="node">
<title>low_priority</title>
<polygon fill="lightgreen" stroke="black" points="219.75,-186.98 135.5,-186.98 135.5,-150.98 219.75,-150.98 219.75,-186.98"/>
<text xml:space="preserve" text-anchor="middle" x="177.62" y="-163.56" font-family="Arial" font-size="14.00">low_priority</text>
</g>
<!-- resource&#45;&gt;low_priority -->
<g id="edge1" class="edge">
<title>resource&#45;&gt;low_priority</title>
<path fill="none" stroke="black" d="M94.28,-139.2C104.05,-142.73 114.46,-146.5 124.49,-150.13"/>
<polygon fill="black" stroke="black" points="123.15,-153.36 133.74,-153.47 125.53,-146.78 123.15,-153.36"/>
</g>
<!-- high_priority -->
<g id="node5" class="node">
<title>high_priority</title>
<polygon fill="lightgreen" stroke="black" points="222.37,-113.98 132.87,-113.98 132.87,-77.98 222.37,-77.98 222.37,-113.98"/>
<text xml:space="preserve" text-anchor="middle" x="177.62" y="-90.56" font-family="Arial" font-size="14.00">high_priority</text>
</g>
<!-- resource&#45;&gt;high_priority -->
<g id="edge3" class="edge">
<title>resource&#45;&gt;high_priority</title>
<path fill="none" stroke="black" d="M96.07,-113.08C104.36,-111.32 113.05,-109.48 121.54,-107.68"/>
<polygon fill="black" stroke="black" points="121.99,-111.16 131.05,-105.66 120.54,-104.31 121.99,-111.16"/>
</g>
<!-- low_got_it -->
<g id="node2" class="node">
<title>low_got_it</title>
<ellipse fill="white" stroke="black" cx="316.36" cy="-187.98" rx="54.27" ry="54.27"/>
<text xml:space="preserve" text-anchor="middle" x="316.36" y="-190.43" font-family="Arial" font-size="14.00">low_got_it</text>
<text xml:space="preserve" text-anchor="middle" x="316.36" y="-174.68" font-family="Arial" font-size="14.00">0</text>
</g>
<!-- high_got_it -->
<g id="node3" class="node">
<title>high_got_it</title>
<ellipse fill="white" stroke="black" cx="316.36" cy="-57.98" rx="57.98" ry="57.98"/>
<text xml:space="preserve" text-anchor="middle" x="316.36" y="-60.43" font-family="Arial" font-size="14.00">high_got_it</text>
<text xml:space="preserve" text-anchor="middle" x="316.36" y="-44.68" font-family="Arial" font-size="14.00">0</text>
</g>
<!-- low_priority&#45;&gt;low_got_it -->
<g id="edge2" class="edge">
<title>low_priority&#45;&gt;low_got_it</title>
<path fill="none" stroke="black" d="M220.02,-174.73C229.83,-176.1 240.53,-177.58 251.09,-179.05"/>
<polygon fill="black" stroke="black" points="250.57,-182.51 260.96,-180.42 251.53,-175.58 250.57,-182.51"/>
</g>
<!-- high_priority&#45;&gt;high_got_it -->
<g id="edge4" class="edge">
<title>high_priority&#45;&gt;high_got_it</title>
<path fill="none" stroke="black" d="M222.64,-83.75C231.19,-81.37 240.32,-78.84 249.39,-76.31"/>
<polygon fill="black" stroke="black" points="250.24,-79.71 258.93,-73.66 248.36,-72.97 250.24,-79.71"/>
</g>
</g>
</svg>
