<?xml version="1.0" encoding="UTF-8" standalone="no"?>
<!DOCTYPE svg PUBLIC "-//W3C//DTD SVG 1.1//EN"
 "http://www.w3.org/Graphics/SVG/1.1/DTD/svg11.dtd">
<!-- Generated by graphviz version 14.0.4 (20251115.1723)
 -->
<!-- Title: PregelDataflow Pages: 1 -->
<svg width="849pt" height="282pt"
 viewBox="0.00 0.00 849.00 282.00" xmlns="http://www.w3.org/2000/svg" xmlns:xlink="http://www.w3.org/1999/xlink">
<g id="graph0" class="graph" transform="scale(1 1) rotate(0) translate(4 278.25)">
<title>PregelDataflow</title>
<polygon fill="white" stroke="none" points="-4,4 -4,-278.25 844.75,-278.25 844.75,4 -4,4"/>
<text xml:space="preserve" text-anchor="middle" x="420.38" y="-256.95" font-family="Times,serif" font-size="14.00">PageRank Dataflow</text>
<!-- vertex_A -->
<g id="node1" class="node">
<title>vertex_A</title>
<path fill="lightgreen" stroke="black" d="M57.25,-112C57.25,-112 12,-112 12,-112 6,-112 0,-106 0,-100 0,-100 0,-88 0,-88 0,-82 6,-76 12,-76 12,-76 57.25,-76 57.25,-76 63.25,-76 69.25,-82 69.25,-88 69.25,-88 69.25,-100 69.25,-100 69.25,-106 63.25,-112 57.25,-112"/>
<text xml:space="preserve" text-anchor="middle" x="34.62" y="-88.58" font-family="Arial" font-size="14.00">vertex_A</text>
</g>
<!-- vertex_A&#45;&gt;vertex_A -->
<g id="edge1" class="edge">
<title>vertex_A&#45;&gt;vertex_A</title>
<path fill="none" stroke="black" d="M20.7,-112.15C18.55,-121.54 23.2,-130 34.62,-130 41.05,-130 45.34,-127.32 47.47,-123.31"/>
<polygon fill="black" stroke="black" points="50.92,-123.95 48.41,-113.66 43.96,-123.27 50.92,-123.95"/>
<text xml:space="preserve" text-anchor="middle" x="34.62" y="-132.45" font-family="Arial" font-size="14.00">rank_A</text>
</g>
<!-- vertex_B -->
<g id="node2" class="node">
<title>vertex_B</title>
<path fill="lightgreen" stroke="black" d="M211.25,-216C211.25,-216 166,-216 166,-216 160,-216 154,-210 154,-204 154,-204 154,-192 154,-192 154,-186 160,-180 166,-180 166,-180 211.25,-180 211.25,-180 217.25,-180 223.25,-186 223.25,-192 223.25,-192 223.25,-204 223.25,-204 223.25,-210 217.25,-216 211.25,-216"/>
<text xml:space="preserve" text-anchor="middle" x="188.62" y="-192.57" font-family="Arial" font-size="14.00">vertex_B</text>
</g>
<!-- vertex_A&#45;&gt;vertex_B -->
<g id="edge6" class="edge">
<title>vertex_A&#45;&gt;vertex_B</title>
<path fill="none" stroke="black" d="M45.99,-112.22C55.17,-126.9 69.79,-147.15 87.25,-160 103.73,-172.13 124.55,-180.85 142.94,-186.85"/>
<polygon fill="black" stroke="black" points="141.7,-190.12 152.29,-189.71 143.75,-183.43 141.7,-190.12"/>
<text xml:space="preserve" text-anchor="middle" x="111.62" y="-186.19" font-family="Arial" font-size="14.00">inbox_B</text>
</g>
<!-- vertex_C -->
<g id="node3" class="node">
<title>vertex_C</title>
<path fill="lightgreen" stroke="black" d="M366.75,-140C366.75,-140 320.75,-140 320.75,-140 314.75,-140 308.75,-134 308.75,-128 308.75,-128 308.75,-116 308.75,-116 308.75,-110 314.75,-104 320.75,-104 320.75,-104 366.75,-104 366.75,-104 372.75,-104 378.75,-110 378.75,-116 378.75,-116 378.75,-128 378.75,-128 378.75,-134 372.75,-140 366.75,-140"/>
<text xml:space="preserve" text-anchor="middle" x="343.75" y="-116.58" font-family="Arial" font-size="14.00">vertex_C</text>
</g>
<!-- vertex_A&#45;&gt;vertex_C -->
<g id="edge8" class="edge">
<title>vertex_A&#45;&gt;vertex_C</title>
<path fill="none" stroke="black" d="M69.49,-107.5C75.35,-109.53 81.43,-111.46 87.25,-113 174.91,-136.13 200.2,-131.34 290.75,-127 292.8,-126.9 294.9,-126.78 297.01,-126.64"/>
<polygon fill="black" stroke="black" points="297.17,-130.14 306.87,-125.89 296.63,-123.16 297.17,-130.14"/>
<text xml:space="preserve" text-anchor="middle" x="188.62" y="-133.06" font-family="Arial" font-size="14.00">inbox_C</text>
</g>
<!-- vertex_B&#45;&gt;vertex_B -->
<g id="edge5" class="edge">
<title>vertex_B&#45;&gt;vertex_B</title>
<path fill="none" stroke="black" d="M174.7,-216.15C172.55,-225.54 177.2,-234 188.62,-234 195.05,-234 199.34,-231.32 201.47,-227.31"/>
<polygon fill="black" stroke="black" points="204.92,-227.95 202.41,-217.66 197.96,-227.27 204.92,-227.95"/>
<text xml:space="preserve" text-anchor="middle" x="188.62" y="-236.45" font-family="Arial" font-size="14.00">rank_B</text>
</g>
<!-- vertex_B&#45;&gt;vertex_C -->
<g id="edge9" class="edge">
<title>vertex_B&#45;&gt;vertex_C</title>
<path fill="none" stroke="black" d="M223.66,-186.21C243.66,-178.8 269.17,-168.48 290.75,-157 296.6,-153.89 302.6,-150.28 308.36,-146.59"/>
<polygon fill="black" stroke="black" points="310.09,-149.64 316.49,-141.19 306.22,-143.81 310.09,-149.64"/>
<text xml:space="preserve" text-anchor="middle" x="266" y="-181.64" font-family="Arial" font-size="14.00">inbox_C</text>
</g>
<!-- vertex_D -->
<g id="node4" class="node">
<title>vertex_D</title>
<path fill="lightgreen" stroke="black" d="M522.25,-140C522.25,-140 476.25,-140 476.25,-140 470.25,-140 464.25,-134 464.25,-128 464.25,-128 464.25,-116 464.25,-116 464.25,-110 470.25,-104 476.25,-104 476.25,-104 522.25,-104 522.25,-104 528.25,-104 534.25,-110 534.25,-116 534.25,-116 534.25,-128 534.25,-128 534.25,-134 528.25,-140 522.25,-140"/>
<text xml:space="preserve" text-anchor="middle" x="499.25" y="-116.58" font-family="Arial" font-size="14.00">vertex_D</text>
</g>
<!-- vertex_B&#45;&gt;vertex_D -->
<g id="edge11" class="edge">
<title>vertex_B&#45;&gt;vertex_D</title>
<path fill="none" stroke="black" d="M223.39,-198.4C243.07,-198.37 268.35,-197.87 290.75,-196 330.15,-192.71 341.09,-195.04 378.75,-183 406.84,-174.02 436.38,-159 459.06,-146.12"/>
<polygon fill="black" stroke="black" points="460.76,-149.18 467.65,-141.13 457.25,-143.12 460.76,-149.18"/>
<text xml:space="preserve" text-anchor="middle" x="343.75" y="-197.12" font-family="Arial" font-size="14.00">inbox_D</text>
</g>
<!-- vertex_C&#45;&gt;vertex_A -->
<g id="edge2" class="edge">
<title>vertex_C&#45;&gt;vertex_A</title>
<path fill="none" stroke="black" d="M308.27,-117.67C284.42,-114.77 251.94,-110.99 223.25,-108.25 174.62,-103.61 118.79,-99.53 80.76,-96.94"/>
<polygon fill="black" stroke="black" points="81.28,-93.46 71.06,-96.28 80.81,-100.45 81.28,-93.46"/>
<text xml:space="preserve" text-anchor="middle" x="188.62" y="-110.7" font-family="Arial" font-size="14.00">inbox_A</text>
</g>
<!-- vertex_C&#45;&gt;vertex_C -->
<g id="edge7" class="edge">
<title>vertex_C&#45;&gt;vertex_C</title>
<path fill="none" stroke="black" d="M329.68,-140.15C327.52,-149.54 332.21,-158 343.75,-158 350.24,-158 354.57,-155.32 356.72,-151.31"/>
<polygon fill="black" stroke="black" points="360.17,-151.95 357.67,-141.66 353.21,-151.27 360.17,-151.95"/>
<text xml:space="preserve" text-anchor="middle" x="343.75" y="-160.45" font-family="Arial" font-size="14.00">rank_C</text>
</g>
<!-- vertex_C&#45;&gt;vertex_D -->
<g id="edge12" class="edge">
<title>vertex_C&#45;&gt;vertex_D</title>
<path fill="none" stroke="black" d="M379.2,-122C400.82,-122 428.97,-122 452.46,-122"/>
<polygon fill="black" stroke="black" points="452.4,-125.5 462.4,-122 452.4,-118.5 452.4,-125.5"/>
<text xml:space="preserve" text-anchor="middle" x="421.5" y="-124.45" font-family="Arial" font-size="14.00">inbox_D</text>
</g>
<!-- vertex_D&#45;&gt;vertex_D -->
<g id="edge10" class="edge">
<title>vertex_D&#45;&gt;vertex_D</title>
<path fill="none" stroke="black" d="M485.25,-140.15C483.1,-149.54 487.76,-158 499.25,-158 505.71,-158 510.01,-155.32 512.16,-151.31"/>
<polygon fill="black" stroke="black" points="515.61,-151.95 513.1,-141.66 508.65,-151.27 515.61,-151.95"/>
<text xml:space="preserve" text-anchor="middle" x="499.25" y="-160.45" font-family="Arial" font-size="14.00">rank_D</text>
</g>
<!-- vertex_E -->
<g id="node5" class="node">
<title>vertex_E</title>
<path fill="lightgreen" stroke="black" d="M676.25,-66C676.25,-66 631,-66 631,-66 625,-66 619,-60 619,-54 619,-54 619,-42 619,-42 619,-36 625,-30 631,-30 631,-30 676.25,-30 676.25,-30 682.25,-30 688.25,-36 688.25,-42 688.25,-42 688.25,-54 688.25,-54 688.25,-60 682.25,-66 676.25,-66"/>
<text xml:space="preserve" text-anchor="middle" x="653.62" y="-42.58" font-family="Arial" font-size="14.00">vertex_E</text>
</g>
<!-- vertex_D&#45;&gt;vertex_E -->
<g id="edge14" class="edge">
<title>vertex_D&#45;&gt;vertex_E</title>
<path fill="none" stroke="black" d="M534.45,-105.39C556.31,-94.78 584.87,-80.9 608.44,-69.46"/>
<polygon fill="black" stroke="black" points="609.72,-72.73 617.18,-65.21 606.66,-66.43 609.72,-72.73"/>
<text xml:space="preserve" text-anchor="middle" x="576.62" y="-98.4" font-family="Arial" font-size="14.00">inbox_E</text>
</g>
<!-- vertex_E&#45;&gt;vertex_A -->
<g id="edge3" class="edge">
<title>vertex_E&#45;&gt;vertex_A</title>
<path fill="none" stroke="black" d="M618.73,-48C587.86,-48 540.99,-48 500.25,-48 187.62,-48 187.62,-48 187.62,-48 150.18,-48 109.68,-60.95 79.91,-73.11"/>
<polygon fill="black" stroke="black" points="78.7,-69.82 70.85,-76.93 81.42,-76.27 78.7,-69.82"/>
<text xml:space="preserve" text-anchor="middle" x="343.75" y="-50.45" font-family="Arial" font-size="14.00">inbox_A</text>
</g>
<!-- vertex_E&#45;&gt;vertex_E -->
<g id="edge13" class="edge">
<title>vertex_E&#45;&gt;vertex_E</title>
<path fill="none" stroke="black" d="M639.76,-66.15C637.63,-75.54 642.25,-84 653.62,-84 660.02,-84 664.28,-81.32 666.41,-77.31"/>
<polygon fill="black" stroke="black" points="669.86,-77.95 667.34,-67.66 662.9,-77.28 669.86,-77.95"/>
<text xml:space="preserve" text-anchor="middle" x="653.62" y="-86.45" font-family="Arial" font-size="14.00">rank_E</text>
</g>
<!-- vertex_F -->
<g id="node6" class="node">
<title>vertex_F</title>
<path fill="lightgreen" stroke="black" d="M828.75,-36C828.75,-36 784.25,-36 784.25,-36 778.25,-36 772.25,-30 772.25,-24 772.25,-24 772.25,-12 772.25,-12 772.25,-6 778.25,0 784.25,0 784.25,0 828.75,0 828.75,0 834.75,0 840.75,-6 840.75,-12 840.75,-12 840.75,-24 840.75,-24 840.75,-30 834.75,-36 828.75,-36"/>
<text xml:space="preserve" text-anchor="middle" x="806.5" y="-12.57" font-family="Arial" font-size="14.00">vertex_F</text>
</g>
<!-- vertex_E&#45;&gt;vertex_F -->
<g id="edge16" class="edge">
<title>vertex_E&#45;&gt;vertex_F</title>
<path fill="none" stroke="black" d="M688.48,-41.27C709.74,-37.04 737.4,-31.54 760.49,-26.95"/>
<polygon fill="black" stroke="black" points="761.14,-30.39 770.27,-25.01 759.78,-23.52 761.14,-30.39"/>
<text xml:space="preserve" text-anchor="middle" x="730.25" y="-39.89" font-family="Arial" font-size="14.00">inbox_F</text>
</g>
<!-- vertex_F&#45;&gt;vertex_A -->
<g id="edge4" class="edge">
<title>vertex_F&#45;&gt;vertex_A</title>
<path fill="none" stroke="black" d="M771.75,-12.36C741.25,-7.75 695.06,-2 654.62,-2 187.62,-2 187.62,-2 187.62,-2 136.47,-2 87.8,-40.61 59.87,-67.81"/>
<polygon fill="black" stroke="black" points="57.53,-65.2 52.95,-74.75 62.49,-70.13 57.53,-65.2"/>
<text xml:space="preserve" text-anchor="middle" x="421.5" y="-4.45" font-family="Arial" font-size="14.00">inbox_A</text>
</g>
<!-- vertex_F&#45;&gt;vertex_F -->
<g id="edge15" class="edge">
<title>vertex_F&#45;&gt;vertex_F</title>
<path fill="none" stroke="black" d="M792.71,-36.15C790.58,-45.54 795.18,-54 806.5,-54 812.87,-54 817.11,-51.32 819.22,-47.31"/>
<polygon fill="black" stroke="black" points="822.68,-47.95 820.15,-37.66 815.71,-47.28 822.68,-47.95"/>
<text xml:space="preserve" text-anchor="middle" x="806.5" y="-56.45" font-family="Arial" font-size="14.00">rank_F</text>
</g>
</g>
</svg>
