<?xml version="1.0" encoding="UTF-8" standalone="no"?>
<!DOCTYPE svg PUBLIC "-//W3C//DTD SVG 1.1//EN"
 "http://www.w3.org/Graphics/SVG/1.1/DTD/svg11.dtd">
<!-- Generated by graphviz version 14.0.4 (20251115.1723)
 -->
<!-- Title: PregelGraph Pages: 1 -->
<svg width="3257pt" height="425pt"
 viewBox="0.00 0.00 3257.00 425.00" xmlns="http://www.w3.org/2000/svg" xmlns:xlink="http://www.w3.org/1999/xlink">
<g id="graph0" class="graph" transform="scale(1 1) rotate(0) translate(4 420.57)">
<title>PregelGraph</title>
<polygon fill="white" stroke="none" points="-4,4 -4,-420.57 3253.44,-420.57 3253.44,4 -4,4"/>
<text xml:space="preserve" text-anchor="middle" x="1624.72" y="-399.27" font-family="Times,serif" font-size="14.00">PageRank Graph</text>
<!-- ch_rank_A -->
<g id="node1" class="node">
<title>ch_rank_A</title>
<ellipse fill="lightblue" stroke="black" cx="150.79" cy="-329.07" rx="150.79" ry="39.07"/>
<text xml:space="preserve" text-anchor="middle" x="150.79" y="-339.39" font-family="Arial" font-size="14.00">rank_A</text>
<text xml:space="preserve" text-anchor="middle" x="150.79" y="-323.64" font-family="Arial" font-size="14.00">[LastValue]</text>
<text xml:space="preserve" text-anchor="middle" x="150.79" y="-307.89" font-family="Arial" font-size="14.00">{&#39;rank&#39;: 0.2555673827176243, &#39;...</text>
</g>
<!-- node_vertex_A -->
<g id="node13" class="node">
<title>node_vertex_A</title>
<path fill="lightgreen" stroke="black" d="M442.08,-348.82C442.08,-348.82 375.83,-348.82 375.83,-348.82 369.83,-348.82 363.83,-342.82 363.83,-336.82 363.83,-336.82 363.83,-321.32 363.83,-321.32 363.83,-315.32 369.83,-309.32 375.83,-309.32 375.83,-309.32 442.08,-309.32 442.08,-309.32 448.08,-309.32 454.08,-315.32 454.08,-321.32 454.08,-321.32 454.08,-336.82 454.08,-336.82 454.08,-342.82 448.08,-348.82 442.08,-348.82"/>
<text xml:space="preserve" text-anchor="middle" x="408.96" y="-331.52" font-family="Arial" font-size="14.00">vertex_A</text>
<text xml:space="preserve" text-anchor="middle" x="408.96" y="-315.77" font-family="Arial" font-size="14.00">(succeeded)</text>
</g>
<!-- ch_rank_A&#45;&gt;node_vertex_A -->
<g id="edge1" class="edge">
<title>ch_rank_A&#45;&gt;node_vertex_A</title>
<path fill="none" stroke="blue" stroke-dasharray="5,2" d="M301.69,-331.4C316.6,-331.4 331.51,-331.3 345.83,-331.07 347.89,-331.03 349.98,-331 352.09,-330.95"/>
<polygon fill="blue" stroke="blue" points="352.08,-334.45 361.99,-330.71 351.91,-327.45 352.08,-334.45"/>
</g>
<!-- ch_inbox_A -->
<g id="node2" class="node">
<title>ch_inbox_A</title>
<ellipse fill="lightcoral" stroke="black" cx="3095.47" cy="-138.07" rx="70.18" ry="39.07"/>
<text xml:space="preserve" text-anchor="middle" x="3095.47" y="-148.39" font-family="Arial" font-size="14.00">inbox_A</text>
<text xml:space="preserve" text-anchor="middle" x="3095.47" y="-132.64" font-family="Arial" font-size="14.00">[Accumulator]</text>
<text xml:space="preserve" text-anchor="middle" x="3095.47" y="-116.89" font-family="Arial" font-size="14.00">0.0</text>
</g>
<!-- ch_inbox_A&#45;&gt;node_vertex_A -->
<g id="edge2" class="edge">
<title>ch_inbox_A&#45;&gt;node_vertex_A</title>
<path fill="none" stroke="blue" stroke-dasharray="5,2" d="M3077.29,-176.09C3042.37,-246.95 2955.93,-392.07 2833.62,-392.07 587.01,-392.07 587.01,-392.07 587.01,-392.07 539.65,-392.07 489.07,-371.81 454.15,-354.27"/>
<polygon fill="blue" stroke="blue" points="456.12,-351.35 445.63,-349.87 452.91,-357.57 456.12,-351.35"/>
</g>
<!-- ch_rank_B -->
<g id="node3" class="node">
<title>ch_rank_B</title>
<ellipse fill="lightblue" stroke="black" cx="1028.23" cy="-229.07" rx="150.79" ry="39.07"/>
<text xml:space="preserve" text-anchor="middle" x="1028.23" y="-239.39" font-family="Arial" font-size="14.00">rank_B</text>
<text xml:space="preserve" text-anchor="middle" x="1028.23" y="-223.64" font-family="Arial" font-size="14.00">[LastValue]</text>
<text xml:space="preserve" text-anchor="middle" x="1028.23" y="-207.89" font-family="Arial" font-size="14.00">{&#39;rank&#39;: 0.1336160954767337, &#39;...</text>
</g>
<!-- node_vertex_B -->
<g id="node14" class="node">
<title>node_vertex_B</title>
<path fill="lightgreen" stroke="black" d="M800.94,-278.82C800.94,-278.82 734.69,-278.82 734.69,-278.82 728.69,-278.82 722.69,-272.82 722.69,-266.82 722.69,-266.82 722.69,-251.32 722.69,-251.32 722.69,-245.32 728.69,-239.32 734.69,-239.32 734.69,-239.32 800.94,-239.32 800.94,-239.32 806.94,-239.32 812.94,-245.32 812.94,-251.32 812.94,-251.32 812.94,-266.82 812.94,-266.82 812.94,-272.82 806.94,-278.82 800.94,-278.82"/>
<text xml:space="preserve" text-anchor="middle" x="767.82" y="-261.52" font-family="Arial" font-size="14.00">vertex_B</text>
<text xml:space="preserve" text-anchor="middle" x="767.82" y="-245.77" font-family="Arial" font-size="14.00">(succeeded)</text>
</g>
<!-- ch_rank_B&#45;&gt;node_vertex_B -->
<g id="edge3" class="edge">
<title>ch_rank_B&#45;&gt;node_vertex_B</title>
<path fill="none" stroke="blue" stroke-dasharray="5,2" d="M878.09,-233.65C862.11,-235.26 846.15,-237.36 830.94,-240.07 828.78,-240.45 826.58,-240.89 824.37,-241.37"/>
<polygon fill="blue" stroke="blue" points="823.66,-237.94 814.76,-243.7 825.31,-244.74 823.66,-237.94"/>
</g>
<!-- ch_inbox_B -->
<g id="node4" class="node">
<title>ch_inbox_B</title>
<ellipse fill="lightcoral" stroke="black" cx="588.01" cy="-261.07" rx="70.18" ry="39.07"/>
<text xml:space="preserve" text-anchor="middle" x="588.01" y="-271.39" font-family="Arial" font-size="14.00">inbox_B</text>
<text xml:space="preserve" text-anchor="middle" x="588.01" y="-255.64" font-family="Arial" font-size="14.00">[Accumulator]</text>
<text xml:space="preserve" text-anchor="middle" x="588.01" y="-239.89" font-family="Arial" font-size="14.00">0.0</text>
</g>
<!-- ch_inbox_B&#45;&gt;node_vertex_B -->
<g id="edge4" class="edge">
<title>ch_inbox_B&#45;&gt;node_vertex_B</title>
<path fill="none" stroke="blue" stroke-dasharray="5,2" d="M658.52,-260.29C675.93,-260.09 694.38,-259.88 711.03,-259.7"/>
<polygon fill="blue" stroke="blue" points="710.76,-263.2 720.72,-259.59 710.68,-256.2 710.76,-263.2"/>
</g>
<!-- ch_rank_C -->
<g id="node5" class="node">
<title>ch_rank_C</title>
<ellipse fill="lightblue" stroke="black" cx="1552.25" cy="-325.07" rx="153.97" ry="39.07"/>
<text xml:space="preserve" text-anchor="middle" x="1552.25" y="-335.39" font-family="Arial" font-size="14.00">rank_C</text>
<text xml:space="preserve" text-anchor="middle" x="1552.25" y="-319.64" font-family="Arial" font-size="14.00">[LastValue]</text>
<text xml:space="preserve" text-anchor="middle" x="1552.25" y="-303.89" font-family="Arial" font-size="14.00">{&#39;rank&#39;: 0.19040295900779777, ...</text>
</g>
<!-- node_vertex_C -->
<g id="node15" class="node">
<title>node_vertex_C</title>
<path fill="lightgreen" stroke="black" d="M1321.77,-311.82C1321.77,-311.82 1255.52,-311.82 1255.52,-311.82 1249.52,-311.82 1243.52,-305.82 1243.52,-299.82 1243.52,-299.82 1243.52,-284.32 1243.52,-284.32 1243.52,-278.32 1249.52,-272.32 1255.52,-272.32 1255.52,-272.32 1321.77,-272.32 1321.77,-272.32 1327.77,-272.32 1333.77,-278.32 1333.77,-284.32 1333.77,-284.32 1333.77,-299.82 1333.77,-299.82 1333.77,-305.82 1327.77,-311.82 1321.77,-311.82"/>
<text xml:space="preserve" text-anchor="middle" x="1288.65" y="-294.52" font-family="Arial" font-size="14.00">vertex_C</text>
<text xml:space="preserve" text-anchor="middle" x="1288.65" y="-278.77" font-family="Arial" font-size="14.00">(succeeded)</text>
</g>
<!-- ch_rank_C&#45;&gt;node_vertex_C -->
<g id="edge5" class="edge">
<title>ch_rank_C&#45;&gt;node_vertex_C</title>
<path fill="none" stroke="blue" stroke-dasharray="5,2" d="M1413.52,-307.69C1389.31,-304.64 1365.43,-301.63 1345.18,-299.07"/>
<polygon fill="blue" stroke="blue" points="1345.89,-295.63 1335.53,-297.86 1345.01,-302.58 1345.89,-295.63"/>
</g>
<!-- ch_inbox_C -->
<g id="node6" class="node">
<title>ch_inbox_C</title>
<ellipse fill="lightcoral" stroke="black" cx="1028.23" cy="-325.07" rx="70.18" ry="39.07"/>
<text xml:space="preserve" text-anchor="middle" x="1028.23" y="-335.39" font-family="Arial" font-size="14.00">inbox_C</text>
<text xml:space="preserve" text-anchor="middle" x="1028.23" y="-319.64" font-family="Arial" font-size="14.00">[Accumulator]</text>
<text xml:space="preserve" text-anchor="middle" x="1028.23" y="-303.89" font-family="Arial" font-size="14.00">0.0</text>
</g>
<!-- ch_inbox_C&#45;&gt;node_vertex_C -->
<g id="edge6" class="edge">
<title>ch_inbox_C&#45;&gt;node_vertex_C</title>
<path fill="none" stroke="blue" stroke-dasharray="5,2" d="M1097.13,-316.4C1139.18,-311.03 1192.52,-304.22 1232.06,-299.17"/>
<polygon fill="blue" stroke="blue" points="1232.36,-302.66 1241.84,-297.92 1231.48,-295.71 1232.36,-302.66"/>
</g>
<!-- ch_rank_D -->
<g id="node7" class="node">
<title>ch_rank_D</title>
<ellipse fill="lightblue" stroke="black" cx="2051.19" cy="-191.07" rx="153.97" ry="39.07"/>
<text xml:space="preserve" text-anchor="middle" x="2051.19" y="-201.39" font-family="Arial" font-size="14.00">rank_D</text>
<text xml:space="preserve" text-anchor="middle" x="2051.19" y="-185.64" font-family="Arial" font-size="14.00">[LastValue]</text>
<text xml:space="preserve" text-anchor="middle" x="2051.19" y="-169.89" font-family="Arial" font-size="14.00">{&#39;rank&#39;: 0.16270816861292095, ...</text>
</g>
<!-- node_vertex_D -->
<g id="node16" class="node">
<title>node_vertex_D</title>
<path fill="lightgreen" stroke="black" d="M1821.47,-178.82C1821.47,-178.82 1755.22,-178.82 1755.22,-178.82 1749.22,-178.82 1743.22,-172.82 1743.22,-166.82 1743.22,-166.82 1743.22,-151.32 1743.22,-151.32 1743.22,-145.32 1749.22,-139.32 1755.22,-139.32 1755.22,-139.32 1821.47,-139.32 1821.47,-139.32 1827.47,-139.32 1833.47,-145.32 1833.47,-151.32 1833.47,-151.32 1833.47,-166.82 1833.47,-166.82 1833.47,-172.82 1827.47,-178.82 1821.47,-178.82"/>
<text xml:space="preserve" text-anchor="middle" x="1788.34" y="-161.52" font-family="Arial" font-size="14.00">vertex_D</text>
<text xml:space="preserve" text-anchor="middle" x="1788.34" y="-145.77" font-family="Arial" font-size="14.00">(succeeded)</text>
</g>
<!-- ch_rank_D&#45;&gt;node_vertex_D -->
<g id="edge7" class="edge">
<title>ch_rank_D&#45;&gt;node_vertex_D</title>
<path fill="none" stroke="blue" stroke-dasharray="5,2" d="M1911.72,-174.08C1888.13,-171.19 1864.89,-168.34 1845.11,-165.91"/>
<polygon fill="blue" stroke="blue" points="1845.74,-162.46 1835.39,-164.72 1844.89,-169.41 1845.74,-162.46"/>
</g>
<!-- ch_inbox_D -->
<g id="node8" class="node">
<title>ch_inbox_D</title>
<ellipse fill="lightcoral" stroke="black" cx="1552.25" cy="-162.07" rx="70.18" ry="39.07"/>
<text xml:space="preserve" text-anchor="middle" x="1552.25" y="-172.39" font-family="Arial" font-size="14.00">inbox_D</text>
<text xml:space="preserve" text-anchor="middle" x="1552.25" y="-156.64" font-family="Arial" font-size="14.00">[Accumulator]</text>
<text xml:space="preserve" text-anchor="middle" x="1552.25" y="-140.89" font-family="Arial" font-size="14.00">0.0</text>
</g>
<!-- ch_inbox_D&#45;&gt;node_vertex_D -->
<g id="edge8" class="edge">
<title>ch_inbox_D&#45;&gt;node_vertex_D</title>
<path fill="none" stroke="blue" stroke-dasharray="5,2" d="M1622.85,-161.18C1657.57,-160.73 1699,-160.2 1731.59,-159.78"/>
<polygon fill="blue" stroke="blue" points="1731.26,-163.29 1741.21,-159.66 1731.17,-156.29 1731.26,-163.29"/>
</g>
<!-- ch_rank_E -->
<g id="node9" class="node">
<title>ch_rank_E</title>
<ellipse fill="lightblue" stroke="black" cx="2572.95" cy="-191.07" rx="150.79" ry="39.07"/>
<text xml:space="preserve" text-anchor="middle" x="2572.95" y="-201.39" font-family="Arial" font-size="14.00">rank_E</text>
<text xml:space="preserve" text-anchor="middle" x="2572.95" y="-185.64" font-family="Arial" font-size="14.00">[LastValue]</text>
<text xml:space="preserve" text-anchor="middle" x="2572.95" y="-169.89" font-family="Arial" font-size="14.00">{&#39;rank&#39;: 0.1633020449444049, &#39;...</text>
</g>
<!-- node_vertex_E -->
<g id="node17" class="node">
<title>node_vertex_E</title>
<path fill="lightgreen" stroke="black" d="M2347.16,-143.82C2347.16,-143.82 2280.91,-143.82 2280.91,-143.82 2274.91,-143.82 2268.91,-137.82 2268.91,-131.82 2268.91,-131.82 2268.91,-116.32 2268.91,-116.32 2268.91,-110.32 2274.91,-104.32 2280.91,-104.32 2280.91,-104.32 2347.16,-104.32 2347.16,-104.32 2353.16,-104.32 2359.16,-110.32 2359.16,-116.32 2359.16,-116.32 2359.16,-131.82 2359.16,-131.82 2359.16,-137.82 2353.16,-143.82 2347.16,-143.82"/>
<text xml:space="preserve" text-anchor="middle" x="2314.04" y="-126.52" font-family="Arial" font-size="14.00">vertex_E</text>
<text xml:space="preserve" text-anchor="middle" x="2314.04" y="-110.77" font-family="Arial" font-size="14.00">(succeeded)</text>
</g>
<!-- ch_rank_E&#45;&gt;node_vertex_E -->
<g id="edge9" class="edge">
<title>ch_rank_E&#45;&gt;node_vertex_E</title>
<path fill="none" stroke="blue" stroke-dasharray="5,2" d="M2465.34,-163.26C2432.77,-154.77 2398.27,-145.77 2370.54,-138.54"/>
<polygon fill="blue" stroke="blue" points="2371.52,-135.18 2360.96,-136.04 2369.75,-141.95 2371.52,-135.18"/>
</g>
<!-- ch_inbox_E -->
<g id="node10" class="node">
<title>ch_inbox_E</title>
<ellipse fill="lightcoral" stroke="black" cx="2051.19" cy="-95.07" rx="70.18" ry="39.07"/>
<text xml:space="preserve" text-anchor="middle" x="2051.19" y="-105.39" font-family="Arial" font-size="14.00">inbox_E</text>
<text xml:space="preserve" text-anchor="middle" x="2051.19" y="-89.64" font-family="Arial" font-size="14.00">[Accumulator]</text>
<text xml:space="preserve" text-anchor="middle" x="2051.19" y="-73.89" font-family="Arial" font-size="14.00">0.0</text>
</g>
<!-- ch_inbox_E&#45;&gt;node_vertex_E -->
<g id="edge10" class="edge">
<title>ch_inbox_E&#45;&gt;node_vertex_E</title>
<path fill="none" stroke="blue" stroke-dasharray="5,2" d="M2120.38,-102.65C2162.97,-107.38 2217.13,-113.4 2257.17,-117.86"/>
<polygon fill="blue" stroke="blue" points="2256.76,-121.33 2267.08,-118.96 2257.53,-114.38 2256.76,-121.33"/>
</g>
<!-- ch_rank_F -->
<g id="node11" class="node">
<title>ch_rank_F</title>
<ellipse fill="lightblue" stroke="black" cx="3095.47" cy="-39.07" rx="153.97" ry="39.07"/>
<text xml:space="preserve" text-anchor="middle" x="3095.47" y="-49.39" font-family="Arial" font-size="14.00">rank_F</text>
<text xml:space="preserve" text-anchor="middle" x="3095.47" y="-33.64" font-family="Arial" font-size="14.00">[LastValue]</text>
<text xml:space="preserve" text-anchor="middle" x="3095.47" y="-17.89" font-family="Arial" font-size="14.00">{&#39;rank&#39;: 0.09440334924051821, ...</text>
</g>
<!-- node_vertex_F -->
<g id="node18" class="node">
<title>node_vertex_F</title>
<path fill="lightgreen" stroke="black" d="M2865.74,-74.82C2865.74,-74.82 2799.49,-74.82 2799.49,-74.82 2793.49,-74.82 2787.49,-68.82 2787.49,-62.82 2787.49,-62.82 2787.49,-47.32 2787.49,-47.32 2787.49,-41.32 2793.49,-35.32 2799.49,-35.32 2799.49,-35.32 2865.74,-35.32 2865.74,-35.32 2871.74,-35.32 2877.74,-41.32 2877.74,-47.32 2877.74,-47.32 2877.74,-62.82 2877.74,-62.82 2877.74,-68.82 2871.74,-74.82 2865.74,-74.82"/>
<text xml:space="preserve" text-anchor="middle" x="2832.62" y="-57.52" font-family="Arial" font-size="14.00">vertex_F</text>
<text xml:space="preserve" text-anchor="middle" x="2832.62" y="-41.77" font-family="Arial" font-size="14.00">(succeeded)</text>
</g>
<!-- ch_rank_F&#45;&gt;node_vertex_F -->
<g id="edge11" class="edge">
<title>ch_rank_F&#45;&gt;node_vertex_F</title>
<path fill="none" stroke="blue" stroke-dasharray="5,2" d="M2944.88,-30.42C2928.25,-31.13 2911.6,-32.58 2895.74,-35.07 2893.56,-35.41 2891.35,-35.82 2889.13,-36.28"/>
<polygon fill="blue" stroke="blue" points="2888.38,-32.85 2879.48,-38.6 2890.02,-39.66 2888.38,-32.85"/>
</g>
<!-- ch_inbox_F -->
<g id="node12" class="node">
<title>ch_inbox_F</title>
<ellipse fill="lightcoral" stroke="black" cx="2572.95" cy="-57.07" rx="70.18" ry="39.07"/>
<text xml:space="preserve" text-anchor="middle" x="2572.95" y="-67.39" font-family="Arial" font-size="14.00">inbox_F</text>
<text xml:space="preserve" text-anchor="middle" x="2572.95" y="-51.64" font-family="Arial" font-size="14.00">[Accumulator]</text>
<text xml:space="preserve" text-anchor="middle" x="2572.95" y="-35.89" font-family="Arial" font-size="14.00">0.0</text>
</g>
<!-- ch_inbox_F&#45;&gt;node_vertex_F -->
<g id="edge12" class="edge">
<title>ch_inbox_F&#45;&gt;node_vertex_F</title>
<path fill="none" stroke="blue" stroke-dasharray="5,2" d="M2643.34,-56.53C2684.99,-56.21 2737.26,-55.8 2776.14,-55.5"/>
<polygon fill="blue" stroke="blue" points="2775.76,-59 2785.73,-55.42 2775.71,-52 2775.76,-59"/>
</g>
<!-- node_vertex_A&#45;&gt;ch_rank_A -->
<g id="edge13" class="edge">
<title>node_vertex_A&#45;&gt;ch_rank_A</title>
<path fill="none" stroke="green" d="M363.48,-314.76C357.6,-313.34 351.61,-312.13 345.83,-311.32 328.57,-308.9 310.4,-308.18 292.39,-308.56"/>
<polygon fill="green" stroke="green" points="292.28,-305.06 282.41,-308.9 292.52,-312.06 292.28,-305.06"/>
<text xml:space="preserve" text-anchor="middle" x="332.71" y="-313.77" font-family="Arial" font-size="14.00">rank</text>
</g>
<!-- node_vertex_A&#45;&gt;ch_inbox_B -->
<g id="edge14" class="edge">
<title>node_vertex_A&#45;&gt;ch_inbox_B</title>
<path fill="none" stroke="green" d="M450.06,-308.96C457.32,-305.58 464.87,-302.23 472.08,-299.32 485.83,-293.76 500.73,-288.37 515.1,-283.46"/>
<polygon fill="green" stroke="green" points="516.15,-286.8 524.52,-280.29 513.92,-280.16 516.15,-286.8"/>
<text xml:space="preserve" text-anchor="middle" x="485.96" y="-301.77" font-family="Arial" font-size="14.00">to_B</text>
</g>
<!-- node_vertex_A&#45;&gt;ch_inbox_C -->
<g id="edge15" class="edge">
<title>node_vertex_A&#45;&gt;ch_inbox_C</title>
<path fill="none" stroke="green" d="M454.35,-328.78C557.49,-328.11 814.56,-326.45 946.42,-325.59"/>
<polygon fill="green" stroke="green" points="946.13,-329.09 956.11,-325.53 946.09,-322.09 946.13,-329.09"/>
<text xml:space="preserve" text-anchor="middle" x="690.44" y="-329.75" font-family="Arial" font-size="14.00">to_C</text>
</g>
<!-- node_vertex_B&#45;&gt;ch_rank_B -->
<g id="edge16" class="edge">
<title>node_vertex_B&#45;&gt;ch_rank_B</title>
<path fill="none" stroke="green" d="M813.24,-253.91C831.93,-251.74 854.85,-249.08 878.67,-246.31"/>
<polygon fill="green" stroke="green" points="879.01,-249.8 888.54,-245.17 878.2,-242.85 879.01,-249.8"/>
<text xml:space="preserve" text-anchor="middle" x="845.19" y="-254.27" font-family="Arial" font-size="14.00">rank</text>
</g>
<!-- node_vertex_B&#45;&gt;ch_inbox_C -->
<g id="edge17" class="edge">
<title>node_vertex_B&#45;&gt;ch_inbox_C</title>
<path fill="none" stroke="green" d="M813.24,-270.41C851.63,-280.22 907.91,-294.59 953.12,-306.14"/>
<polygon fill="green" stroke="green" points="952.04,-309.47 962.59,-308.56 953.77,-302.69 952.04,-309.47"/>
<text xml:space="preserve" text-anchor="middle" x="845.19" y="-282.87" font-family="Arial" font-size="14.00">to_C</text>
</g>
<!-- node_vertex_B&#45;&gt;ch_inbox_D -->
<g id="edge18" class="edge">
<title>node_vertex_B&#45;&gt;ch_inbox_D</title>
<path fill="none" stroke="green" d="M788.72,-239.04C809.03,-220.1 842.47,-192.87 877.44,-181.07 1083.29,-111.6 1344.93,-132.89 1473.19,-149.84"/>
<polygon fill="green" stroke="green" points="1472.55,-153.29 1482.93,-151.16 1473.49,-146.35 1472.55,-153.29"/>
<text xml:space="preserve" text-anchor="middle" x="1211.27" y="-135.51" font-family="Arial" font-size="14.00">to_D</text>
</g>
<!-- node_vertex_C&#45;&gt;ch_inbox_A -->
<g id="edge20" class="edge">
<title>node_vertex_C&#45;&gt;ch_inbox_A</title>
<path fill="none" stroke="green" d="M1333.86,-282.78C1385.69,-272.71 1474.3,-258.07 1551.25,-258.07 1551.25,-258.07 1551.25,-258.07 2833.62,-258.07 2913,-258.07 2994.55,-211.64 3044.86,-176.54"/>
<polygon fill="green" stroke="green" points="3046.83,-179.43 3052.95,-170.79 3042.78,-173.73 3046.83,-179.43"/>
<text xml:space="preserve" text-anchor="middle" x="2237.04" y="-260.52" font-family="Arial" font-size="14.00">to_A</text>
</g>
<!-- node_vertex_C&#45;&gt;ch_rank_C -->
<g id="edge19" class="edge">
<title>node_vertex_C&#45;&gt;ch_rank_C</title>
<path fill="none" stroke="green" d="M1334.05,-300.29C1340,-301.29 1346.03,-302.24 1351.77,-303.07 1366.62,-305.2 1382.11,-307.23 1397.62,-309.15"/>
<polygon fill="green" stroke="green" points="1397.05,-312.6 1407.4,-310.34 1397.89,-305.66 1397.05,-312.6"/>
<text xml:space="preserve" text-anchor="middle" x="1366.02" y="-309.21" font-family="Arial" font-size="14.00">rank</text>
</g>
<!-- node_vertex_C&#45;&gt;ch_inbox_D -->
<g id="edge21" class="edge">
<title>node_vertex_C&#45;&gt;ch_inbox_D</title>
<path fill="none" stroke="green" d="M1304.81,-272.03C1316.33,-258.05 1333.31,-239.88 1351.77,-228.32 1389.37,-204.77 1436.24,-188.65 1475.1,-178.21"/>
<polygon fill="green" stroke="green" points="1475.58,-181.7 1484.37,-175.79 1473.81,-174.93 1475.58,-181.7"/>
<text xml:space="preserve" text-anchor="middle" x="1366.02" y="-230.77" font-family="Arial" font-size="14.00">to_D</text>
</g>
<!-- node_vertex_D&#45;&gt;ch_rank_D -->
<g id="edge22" class="edge">
<title>node_vertex_D&#45;&gt;ch_rank_D</title>
<path fill="none" stroke="green" d="M1833.74,-167.32C1839.69,-168.31 1845.72,-169.26 1851.47,-170.07 1865.7,-172.08 1880.54,-173.99 1895.4,-175.78"/>
<polygon fill="green" stroke="green" points="1894.92,-179.24 1905.26,-176.94 1895.74,-172.29 1894.92,-179.24"/>
<text xml:space="preserve" text-anchor="middle" x="1865.34" y="-176.12" font-family="Arial" font-size="14.00">rank</text>
</g>
<!-- node_vertex_D&#45;&gt;ch_inbox_E -->
<g id="edge23" class="edge">
<title>node_vertex_D&#45;&gt;ch_inbox_E</title>
<path fill="none" stroke="green" d="M1833.89,-148.14C1872.74,-138.61 1929.89,-124.58 1975.69,-113.35"/>
<polygon fill="green" stroke="green" points="1976.42,-116.77 1985.3,-110.99 1974.75,-109.97 1976.42,-116.77"/>
<text xml:space="preserve" text-anchor="middle" x="1865.34" y="-146.05" font-family="Arial" font-size="14.00">to_E</text>
</g>
<!-- node_vertex_E&#45;&gt;ch_inbox_A -->
<g id="edge25" class="edge">
<title>node_vertex_E&#45;&gt;ch_inbox_A</title>
<path fill="none" stroke="green" d="M2359.46,-124.87C2486.09,-127.14 2850.23,-133.68 3013.53,-136.61"/>
<polygon fill="green" stroke="green" points="3013.36,-140.11 3023.43,-136.79 3013.49,-133.11 3013.36,-140.11"/>
<text xml:space="preserve" text-anchor="middle" x="2755.62" y="-134.64" font-family="Arial" font-size="14.00">to_A</text>
</g>
<!-- node_vertex_E&#45;&gt;ch_rank_E -->
<g id="edge24" class="edge">
<title>node_vertex_E&#45;&gt;ch_rank_E</title>
<path fill="none" stroke="green" d="M2346.98,-144.19C2356.41,-149.39 2366.94,-154.52 2377.16,-158.07 2392.58,-163.42 2408.99,-167.93 2425.5,-171.71"/>
<polygon fill="green" stroke="green" points="2424.36,-175.04 2434.88,-173.77 2425.86,-168.21 2424.36,-175.04"/>
<text xml:space="preserve" text-anchor="middle" x="2390.66" y="-168.44" font-family="Arial" font-size="14.00">rank</text>
</g>
<!-- node_vertex_E&#45;&gt;ch_inbox_F -->
<g id="edge26" class="edge">
<title>node_vertex_E&#45;&gt;ch_inbox_F</title>
<path fill="none" stroke="green" d="M2353.17,-103.92C2360.96,-100.34 2369.21,-96.93 2377.16,-94.32 2414.51,-82.03 2457.29,-73.3 2493.24,-67.39"/>
<polygon fill="green" stroke="green" points="2493.34,-70.91 2502.66,-65.88 2492.24,-64 2493.34,-70.91"/>
<text xml:space="preserve" text-anchor="middle" x="2390.66" y="-96.77" font-family="Arial" font-size="14.00">to_F</text>
</g>
<!-- node_vertex_F&#45;&gt;ch_inbox_A -->
<g id="edge28" class="edge">
<title>node_vertex_F&#45;&gt;ch_inbox_A</title>
<path fill="none" stroke="green" d="M2878.16,-69.24C2917.9,-81.89 2976.79,-100.62 3023.09,-115.36"/>
<polygon fill="green" stroke="green" points="3021.94,-118.66 3032.53,-118.36 3024.06,-111.99 3021.94,-118.66"/>
<text xml:space="preserve" text-anchor="middle" x="2909.62" y="-84.36" font-family="Arial" font-size="14.00">to_A</text>
</g>
<!-- node_vertex_F&#45;&gt;ch_rank_F -->
<g id="edge27" class="edge">
<title>node_vertex_F&#45;&gt;ch_rank_F</title>
<path fill="none" stroke="green" d="M2878.16,-52.34C2894.31,-51.35 2913.61,-50.16 2933.95,-48.91"/>
<polygon fill="green" stroke="green" points="2934.07,-52.41 2943.83,-48.31 2933.64,-45.43 2934.07,-52.41"/>
<text xml:space="preserve" text-anchor="middle" x="2909.62" y="-53.65" font-family="Arial" font-size="14.00">rank</text>
</g>
</g>
</svg>
