<?xml version="1.0" encoding="UTF-8" standalone="no"?>
<!DOCTYPE svg PUBLIC "-//W3C//DTD SVG 1.1//EN"
 "http://www.w3.org/Graphics/SVG/1.1/DTD/svg11.dtd">
<!-- Generated by graphviz version 14.0.4 (20251115.1723)
 -->
<!-- Title: PregelGraph Pages: 1 -->
<svg width="2011pt" height="429pt"
 viewBox="0.00 0.00 2011.00 429.00" xmlns="http://www.w3.org/2000/svg" xmlns:xlink="http://www.w3.org/1999/xlink">
<g id="graph0" class="graph" transform="scale(1 1) rotate(0) translate(4 424.57)">
<title>PregelGraph</title>
<polygon fill="white" stroke="none" points="-4,4 -4,-424.57 2007.2,-424.57 2007.2,4 -4,4"/>
<text xml:space="preserve" text-anchor="middle" x="1001.6" y="-403.27" font-family="Times,serif" font-size="14.00">Maximum Value Graph</text>
<!-- ch_vertex_1 -->
<g id="node1" class="node">
<title>ch_vertex_1</title>
<ellipse fill="lightblue" stroke="black" cx="58.51" cy="-71" rx="58.51" ry="39.07"/>
<text xml:space="preserve" text-anchor="middle" x="58.51" y="-81.33" font-family="Arial" font-size="14.00">vertex_1</text>
<text xml:space="preserve" text-anchor="middle" x="58.51" y="-65.58" font-family="Arial" font-size="14.00">[LastValue]</text>
<text xml:space="preserve" text-anchor="middle" x="58.51" y="-49.83" font-family="Arial" font-size="14.00">3</text>
</g>
<!-- node_node_1 -->
<g id="node10" class="node">
<title>node_node_1</title>
<path fill="lightgreen" stroke="black" d="M232.28,-90.75C232.28,-90.75 166.03,-90.75 166.03,-90.75 160.03,-90.75 154.03,-84.75 154.03,-78.75 154.03,-78.75 154.03,-63.25 154.03,-63.25 154.03,-57.25 160.03,-51.25 166.03,-51.25 166.03,-51.25 232.28,-51.25 232.28,-51.25 238.28,-51.25 244.28,-57.25 244.28,-63.25 244.28,-63.25 244.28,-78.75 244.28,-78.75 244.28,-84.75 238.28,-90.75 232.28,-90.75"/>
<text xml:space="preserve" text-anchor="middle" x="199.15" y="-73.45" font-family="Arial" font-size="14.00">node_1</text>
<text xml:space="preserve" text-anchor="middle" x="199.15" y="-57.7" font-family="Arial" font-size="14.00">(succeeded)</text>
</g>
<!-- ch_vertex_1&#45;&gt;node_node_1 -->
<g id="edge1" class="edge">
<title>ch_vertex_1&#45;&gt;node_node_1</title>
<path fill="none" stroke="blue" stroke-dasharray="5,2" d="M117.5,-71C125.78,-71 134.27,-71 142.49,-71"/>
<polygon fill="blue" stroke="blue" points="142.38,-74.5 152.38,-71 142.38,-67.5 142.38,-74.5"/>
</g>
<!-- ch_vertex_2 -->
<g id="node2" class="node">
<title>ch_vertex_2</title>
<ellipse fill="lightblue" stroke="black" cx="446.86" cy="-273" rx="58.51" ry="39.07"/>
<text xml:space="preserve" text-anchor="middle" x="446.86" y="-283.32" font-family="Arial" font-size="14.00">vertex_2</text>
<text xml:space="preserve" text-anchor="middle" x="446.86" y="-267.57" font-family="Arial" font-size="14.00">[LastValue]</text>
<text xml:space="preserve" text-anchor="middle" x="446.86" y="-251.82" font-family="Arial" font-size="14.00">6</text>
</g>
<!-- node_node_2 -->
<g id="node11" class="node">
<title>node_node_2</title>
<path fill="lightgreen" stroke="black" d="M687.45,-292.75C687.45,-292.75 621.2,-292.75 621.2,-292.75 615.2,-292.75 609.2,-286.75 609.2,-280.75 609.2,-280.75 609.2,-265.25 609.2,-265.25 609.2,-259.25 615.2,-253.25 621.2,-253.25 621.2,-253.25 687.45,-253.25 687.45,-253.25 693.45,-253.25 699.45,-259.25 699.45,-265.25 699.45,-265.25 699.45,-280.75 699.45,-280.75 699.45,-286.75 693.45,-292.75 687.45,-292.75"/>
<text xml:space="preserve" text-anchor="middle" x="654.32" y="-275.45" font-family="Arial" font-size="14.00">node_2</text>
<text xml:space="preserve" text-anchor="middle" x="654.32" y="-259.7" font-family="Arial" font-size="14.00">(succeeded)</text>
</g>
<!-- ch_vertex_2&#45;&gt;node_node_2 -->
<g id="edge3" class="edge">
<title>ch_vertex_2&#45;&gt;node_node_2</title>
<path fill="none" stroke="blue" stroke-dasharray="5,2" d="M505.64,-273C534.43,-273 569.09,-273 597.6,-273"/>
<polygon fill="blue" stroke="blue" points="597.48,-276.5 607.48,-273 597.48,-269.5 597.48,-276.5"/>
</g>
<!-- ch_vertex_3 -->
<g id="node3" class="node">
<title>ch_vertex_3</title>
<ellipse fill="lightblue" stroke="black" cx="1389.95" cy="-239" rx="58.51" ry="39.07"/>
<text xml:space="preserve" text-anchor="middle" x="1389.95" y="-249.32" font-family="Arial" font-size="14.00">vertex_3</text>
<text xml:space="preserve" text-anchor="middle" x="1389.95" y="-233.57" font-family="Arial" font-size="14.00">[LastValue]</text>
<text xml:space="preserve" text-anchor="middle" x="1389.95" y="-217.82" font-family="Arial" font-size="14.00">2</text>
</g>
<!-- node_node_3 -->
<g id="node12" class="node">
<title>node_node_3</title>
<path fill="lightgreen" stroke="black" d="M1663.28,-191.75C1663.28,-191.75 1597.03,-191.75 1597.03,-191.75 1591.03,-191.75 1585.03,-185.75 1585.03,-179.75 1585.03,-179.75 1585.03,-164.25 1585.03,-164.25 1585.03,-158.25 1591.03,-152.25 1597.03,-152.25 1597.03,-152.25 1663.28,-152.25 1663.28,-152.25 1669.28,-152.25 1675.28,-158.25 1675.28,-164.25 1675.28,-164.25 1675.28,-179.75 1675.28,-179.75 1675.28,-185.75 1669.28,-191.75 1663.28,-191.75"/>
<text xml:space="preserve" text-anchor="middle" x="1630.16" y="-174.45" font-family="Arial" font-size="14.00">node_3</text>
<text xml:space="preserve" text-anchor="middle" x="1630.16" y="-158.7" font-family="Arial" font-size="14.00">(succeeded)</text>
</g>
<!-- ch_vertex_3&#45;&gt;node_node_3 -->
<g id="edge5" class="edge">
<title>ch_vertex_3&#45;&gt;node_node_3</title>
<path fill="none" stroke="blue" stroke-dasharray="5,2" d="M1444.41,-223.96C1482.94,-213.13 1534.81,-198.54 1573.78,-187.58"/>
<polygon fill="blue" stroke="blue" points="1574.53,-191 1583.21,-184.92 1572.63,-184.26 1574.53,-191"/>
</g>
<!-- ch_vertex_4 -->
<g id="node4" class="node">
<title>ch_vertex_4</title>
<ellipse fill="lightblue" stroke="black" cx="902.03" cy="-143" rx="58.51" ry="39.07"/>
<text xml:space="preserve" text-anchor="middle" x="902.03" y="-153.32" font-family="Arial" font-size="14.00">vertex_4</text>
<text xml:space="preserve" text-anchor="middle" x="902.03" y="-137.57" font-family="Arial" font-size="14.00">[LastValue]</text>
<text xml:space="preserve" text-anchor="middle" x="902.03" y="-121.83" font-family="Arial" font-size="14.00">1</text>
</g>
<!-- node_node_4 -->
<g id="node13" class="node">
<title>node_node_4</title>
<path fill="lightgreen" stroke="black" d="M1175.36,-124.75C1175.36,-124.75 1109.11,-124.75 1109.11,-124.75 1103.11,-124.75 1097.11,-118.75 1097.11,-112.75 1097.11,-112.75 1097.11,-97.25 1097.11,-97.25 1097.11,-91.25 1103.11,-85.25 1109.11,-85.25 1109.11,-85.25 1175.36,-85.25 1175.36,-85.25 1181.36,-85.25 1187.36,-91.25 1187.36,-97.25 1187.36,-97.25 1187.36,-112.75 1187.36,-112.75 1187.36,-118.75 1181.36,-124.75 1175.36,-124.75"/>
<text xml:space="preserve" text-anchor="middle" x="1142.24" y="-107.45" font-family="Arial" font-size="14.00">node_4</text>
<text xml:space="preserve" text-anchor="middle" x="1142.24" y="-91.7" font-family="Arial" font-size="14.00">(succeeded)</text>
</g>
<!-- ch_vertex_4&#45;&gt;node_node_4 -->
<g id="edge7" class="edge">
<title>ch_vertex_4&#45;&gt;node_node_4</title>
<path fill="none" stroke="blue" stroke-dasharray="5,2" d="M959.48,-133.99C997.51,-127.93 1047.45,-119.96 1085.36,-113.91"/>
<polygon fill="blue" stroke="blue" points="1085.89,-117.37 1095.22,-112.34 1084.79,-110.46 1085.89,-117.37"/>
</g>
<!-- ch_messages_1 -->
<g id="node5" class="node">
<title>ch_messages_1</title>
<ellipse fill="lightyellow" stroke="black" cx="1877.87" cy="-357" rx="125.33" ry="39.07"/>
<text xml:space="preserve" text-anchor="middle" x="1877.87" y="-367.32" font-family="Arial" font-size="14.00">messages_1</text>
<text xml:space="preserve" text-anchor="middle" x="1877.87" y="-351.57" font-family="Arial" font-size="14.00">[Topic]</text>
<text xml:space="preserve" text-anchor="middle" x="1877.87" y="-335.82" font-family="Arial" font-size="14.00">[6, 2, 3, 6, 6, 6, 6, 6, 6, 6,...</text>
</g>
<!-- ch_messages_1&#45;&gt;node_node_1 -->
<g id="edge2" class="edge">
<title>ch_messages_1&#45;&gt;node_node_1</title>
<path fill="none" stroke="blue" stroke-dasharray="5,2" d="M1775.2,-379.87C1731.16,-387.92 1678.86,-395 1631.16,-395 445.86,-395 445.86,-395 445.86,-395 299.51,-395 229.06,-182.54 207.55,-101.71"/>
<polygon fill="blue" stroke="blue" points="211,-101.05 205.11,-92.25 204.22,-102.8 211,-101.05"/>
</g>
<!-- ch_messages_2 -->
<g id="node6" class="node">
<title>ch_messages_2</title>
<ellipse fill="lightyellow" stroke="black" cx="446.86" cy="-105" rx="125.33" ry="39.07"/>
<text xml:space="preserve" text-anchor="middle" x="446.86" y="-115.33" font-family="Arial" font-size="14.00">messages_2</text>
<text xml:space="preserve" text-anchor="middle" x="446.86" y="-99.58" font-family="Arial" font-size="14.00">[Topic]</text>
<text xml:space="preserve" text-anchor="middle" x="446.86" y="-83.83" font-family="Arial" font-size="14.00">[3, 1, 6, 6, 6, 6, 6, 6, 6, 6,...</text>
</g>
<!-- ch_messages_2&#45;&gt;node_node_2 -->
<g id="edge4" class="edge">
<title>ch_messages_2&#45;&gt;node_node_2</title>
<path fill="none" stroke="blue" stroke-dasharray="5,2" d="M492.7,-141.66C531.07,-173.03 585.43,-217.49 620.04,-245.78"/>
<polygon fill="blue" stroke="blue" points="617.69,-248.38 627.64,-252 622.12,-242.96 617.69,-248.38"/>
</g>
<!-- ch_messages_3 -->
<g id="node7" class="node">
<title>ch_messages_3</title>
<ellipse fill="lightyellow" stroke="black" cx="1389.95" cy="-105" rx="125.33" ry="39.07"/>
<text xml:space="preserve" text-anchor="middle" x="1389.95" y="-115.33" font-family="Arial" font-size="14.00">messages_3</text>
<text xml:space="preserve" text-anchor="middle" x="1389.95" y="-99.58" font-family="Arial" font-size="14.00">[Topic]</text>
<text xml:space="preserve" text-anchor="middle" x="1389.95" y="-83.83" font-family="Arial" font-size="14.00">[3, 1, 6, 6, 6, 6, 6, 6, 6, 6,...</text>
</g>
<!-- ch_messages_3&#45;&gt;node_node_3 -->
<g id="edge6" class="edge">
<title>ch_messages_3&#45;&gt;node_node_3</title>
<path fill="none" stroke="blue" stroke-dasharray="5,2" d="M1484.07,-131.19C1514.33,-139.7 1546.94,-148.87 1573.56,-156.36"/>
<polygon fill="blue" stroke="blue" points="1572.55,-159.71 1583.13,-159.05 1574.45,-152.98 1572.55,-159.71"/>
</g>
<!-- ch_messages_4 -->
<g id="node8" class="node">
<title>ch_messages_4</title>
<ellipse fill="lightyellow" stroke="black" cx="902.03" cy="-239" rx="125.33" ry="39.07"/>
<text xml:space="preserve" text-anchor="middle" x="902.03" y="-249.32" font-family="Arial" font-size="14.00">messages_4</text>
<text xml:space="preserve" text-anchor="middle" x="902.03" y="-233.57" font-family="Arial" font-size="14.00">[Topic]</text>
<text xml:space="preserve" text-anchor="middle" x="902.03" y="-217.82" font-family="Arial" font-size="14.00">[6, 2, 3, 6, 6, 6, 6, 6, 6, 6,...</text>
</g>
<!-- ch_messages_4&#45;&gt;node_node_4 -->
<g id="edge8" class="edge">
<title>ch_messages_4&#45;&gt;node_node_4</title>
<path fill="none" stroke="blue" stroke-dasharray="5,2" d="M993.96,-212.16C1005.92,-206.33 1017.45,-199.34 1027.36,-191 1039.26,-180.99 1034.31,-171.93 1045.36,-161 1057.4,-149.11 1072.44,-138.79 1087.03,-130.36"/>
<polygon fill="blue" stroke="blue" points="1088.63,-133.48 1095.68,-125.57 1085.24,-127.35 1088.63,-133.48"/>
</g>
<!-- ch_global_max -->
<g id="node9" class="node">
<title>ch_global_max</title>
<ellipse fill="lightgreen" stroke="black" cx="1877.87" cy="-72" rx="81.85" ry="39.07"/>
<text xml:space="preserve" text-anchor="middle" x="1877.87" y="-82.33" font-family="Arial" font-size="14.00">global_max</text>
<text xml:space="preserve" text-anchor="middle" x="1877.87" y="-66.58" font-family="Arial" font-size="14.00">[BinaryOperator]</text>
<text xml:space="preserve" text-anchor="middle" x="1877.87" y="-50.83" font-family="Arial" font-size="14.00">6</text>
</g>
<!-- node_node_1&#45;&gt;ch_messages_2 -->
<g id="edge9" class="edge">
<title>node_node_1&#45;&gt;ch_messages_2</title>
<path fill="none" stroke="green" d="M244.65,-77.16C266.16,-80.13 293.18,-83.87 320.37,-87.63"/>
<polygon fill="green" stroke="green" points="319.72,-91.08 330.1,-88.98 320.67,-84.14 319.72,-91.08"/>
<text xml:space="preserve" text-anchor="middle" x="282.9" y="-87.4" font-family="Arial" font-size="14.00">msg_2</text>
</g>
<!-- node_node_1&#45;&gt;ch_messages_3 -->
<g id="edge10" class="edge">
<title>node_node_1&#45;&gt;ch_messages_3</title>
<path fill="none" stroke="green" d="M244.75,-61.37C293.79,-51.63 375.06,-38 445.86,-38 445.86,-38 445.86,-38 739.07,-38 924.09,-38 1137.18,-65.2 1267.45,-84.94"/>
<polygon fill="green" stroke="green" points="1266.72,-88.37 1277.13,-86.42 1267.78,-81.45 1266.72,-88.37"/>
<text xml:space="preserve" text-anchor="middle" x="738.07" y="-40.45" font-family="Arial" font-size="14.00">msg_3</text>
</g>
<!-- node_node_1&#45;&gt;ch_global_max -->
<g id="edge11" class="edge">
<title>node_node_1&#45;&gt;ch_global_max</title>
<path fill="none" stroke="green" d="M242.57,-50.84C290.72,-29.85 372.15,0 445.86,0 445.86,0 445.86,0 1631.16,0 1692.74,0 1759.62,-21.08 1808.03,-40.43"/>
<polygon fill="green" stroke="green" points="1806.71,-43.67 1817.29,-44.21 1809.35,-37.19 1806.71,-43.67"/>
<text xml:space="preserve" text-anchor="middle" x="1062.24" y="-2.45" font-family="Arial" font-size="14.00">gmax</text>
</g>
<!-- node_node_2&#45;&gt;ch_messages_1 -->
<g id="edge12" class="edge">
<title>node_node_2&#45;&gt;ch_messages_1</title>
<path fill="none" stroke="green" d="M676.76,-293.06C688.07,-302.59 702.65,-313.33 717.45,-320 793.33,-354.19 817.8,-357 901.03,-357 901.03,-357 901.03,-357 1631.16,-357 1666.67,-357 1705.06,-357 1740.71,-357"/>
<polygon fill="green" stroke="green" points="1740.67,-360.5 1750.67,-357 1740.67,-353.5 1740.67,-360.5"/>
<text xml:space="preserve" text-anchor="middle" x="1225.99" y="-359.45" font-family="Arial" font-size="14.00">msg_1</text>
</g>
<!-- node_node_2&#45;&gt;ch_messages_4 -->
<g id="edge13" class="edge">
<title>node_node_2&#45;&gt;ch_messages_4</title>
<path fill="none" stroke="green" d="M699.82,-266.84C721.33,-263.87 748.35,-260.13 775.54,-256.37"/>
<polygon fill="green" stroke="green" points="775.84,-259.86 785.27,-255.02 774.88,-252.92 775.84,-259.86"/>
<text xml:space="preserve" text-anchor="middle" x="738.07" y="-266.33" font-family="Arial" font-size="14.00">msg_4</text>
</g>
<!-- node_node_2&#45;&gt;ch_global_max -->
<g id="edge14" class="edge">
<title>node_node_2&#45;&gt;ch_global_max</title>
<path fill="none" stroke="green" d="M699.92,-282.63C748.96,-292.37 830.23,-306 901.03,-306 901.03,-306 901.03,-306 1226.99,-306 1355.4,-306 1391.86,-322.43 1515.28,-287 1622.47,-256.24 1640.19,-224.46 1734.53,-165 1762.78,-147.2 1793.85,-126.97 1819.74,-109.94"/>
<polygon fill="green" stroke="green" points="1821.34,-113.08 1827.76,-104.65 1817.49,-107.23 1821.34,-113.08"/>
<text xml:space="preserve" text-anchor="middle" x="1225.99" y="-308.45" font-family="Arial" font-size="14.00">gmax</text>
</g>
<!-- node_node_3&#45;&gt;ch_messages_1 -->
<g id="edge15" class="edge">
<title>node_node_3&#45;&gt;ch_messages_1</title>
<path fill="none" stroke="green" d="M1657.92,-192.15C1696.53,-221.22 1768.78,-275.62 1819.7,-313.96"/>
<polygon fill="green" stroke="green" points="1817.33,-316.55 1827.43,-319.77 1821.54,-310.96 1817.33,-316.55"/>
<text xml:space="preserve" text-anchor="middle" x="1713.91" y="-250.38" font-family="Arial" font-size="14.00">msg_1</text>
</g>
<!-- node_node_3&#45;&gt;ch_messages_4 -->
<g id="edge16" class="edge">
<title>node_node_3&#45;&gt;ch_messages_4</title>
<path fill="none" stroke="green" d="M1584.75,-173.17C1516.01,-175.24 1379.78,-180.37 1264.61,-191 1185.01,-198.35 1095.98,-210.12 1026.18,-220.17"/>
<polygon fill="green" stroke="green" points="1026.05,-216.65 1016.65,-221.55 1027.05,-223.58 1026.05,-216.65"/>
<text xml:space="preserve" text-anchor="middle" x="1225.99" y="-199.26" font-family="Arial" font-size="14.00">msg_4</text>
</g>
<!-- node_node_3&#45;&gt;ch_global_max -->
<g id="edge17" class="edge">
<title>node_node_3&#45;&gt;ch_global_max</title>
<path fill="none" stroke="green" d="M1675.66,-153.89C1711.4,-139.34 1762.35,-118.61 1804.03,-101.65"/>
<polygon fill="green" stroke="green" points="1805.34,-104.89 1813.28,-97.88 1802.7,-98.41 1805.34,-104.89"/>
<text xml:space="preserve" text-anchor="middle" x="1713.91" y="-147.63" font-family="Arial" font-size="14.00">gmax</text>
</g>
<!-- node_node_4&#45;&gt;ch_messages_2 -->
<g id="edge18" class="edge">
<title>node_node_4&#45;&gt;ch_messages_2</title>
<path fill="none" stroke="green" d="M1096.68,-100.18C1075.68,-98.14 1050.27,-96 1027.36,-95 874.84,-88.32 699.54,-93.07 582.05,-98.05"/>
<polygon fill="green" stroke="green" points="582.21,-94.54 572.37,-98.46 582.51,-101.53 582.21,-94.54"/>
<text xml:space="preserve" text-anchor="middle" x="738.07" y="-95.96" font-family="Arial" font-size="14.00">msg_2</text>
</g>
<!-- node_node_4&#45;&gt;ch_messages_3 -->
<g id="edge19" class="edge">
<title>node_node_4&#45;&gt;ch_messages_3</title>
<path fill="none" stroke="green" d="M1187.74,-105C1206.48,-105 1229.4,-105 1252.97,-105"/>
<polygon fill="green" stroke="green" points="1252.69,-108.5 1262.69,-105 1252.69,-101.5 1252.69,-108.5"/>
<text xml:space="preserve" text-anchor="middle" x="1225.99" y="-107.45" font-family="Arial" font-size="14.00">msg_3</text>
</g>
<!-- node_node_4&#45;&gt;ch_global_max -->
<g id="edge20" class="edge">
<title>node_node_4&#45;&gt;ch_global_max</title>
<path fill="none" stroke="green" d="M1183.1,-84.82C1206.25,-74.24 1236.35,-62.39 1264.61,-57 1448.26,-22.01 1668.46,-42.16 1788.37,-58.21"/>
<polygon fill="green" stroke="green" points="1787.78,-61.66 1798.16,-59.55 1788.72,-54.73 1787.78,-61.66"/>
<text xml:space="preserve" text-anchor="middle" x="1550.16" y="-41.39" font-family="Arial" font-size="14.00">gmax</text>
</g>
</g>
</svg>
