<?xml version="1.0" encoding="UTF-8" standalone="no"?>
<!DOCTYPE svg PUBLIC "-//W3C//DTD SVG 1.1//EN"
 "http://www.w3.org/Graphics/SVG/1.1/DTD/svg11.dtd">
<!-- Generated by graphviz version 14.0.4 (20251115.1723)
 -->
<!-- Title: PregelDataflow Pages: 1 -->
<svg width="592pt" height="154pt"
 viewBox="0.00 0.00 592.00 154.00" xmlns="http://www.w3.org/2000/svg" xmlns:xlink="http://www.w3.org/1999/xlink">
<g id="graph0" class="graph" transform="scale(1 1) rotate(0) translate(4 149.99)">
<title>PregelDataflow</title>
<polygon fill="white" stroke="none" points="-4,4 -4,-149.99 587.75,-149.99 587.75,4 -4,4"/>
<text xml:space="preserve" text-anchor="middle" x="291.88" y="-128.69" font-family="Times,serif" font-size="14.00">Maximum Value Dataflow</text>
<!-- node_1 -->
<g id="node1" class="node">
<title>node_1</title>
<path fill="lightgreen" stroke="black" d="M49,-78.18C49,-78.18 12,-78.18 12,-78.18 6,-78.18 0,-72.18 0,-66.18 0,-66.18 0,-54.18 0,-54.18 0,-48.18 6,-42.18 12,-42.18 12,-42.18 49,-42.18 49,-42.18 55,-42.18 61,-48.18 61,-54.18 61,-54.18 61,-66.18 61,-66.18 61,-72.18 55,-78.18 49,-78.18"/>
<text xml:space="preserve" text-anchor="middle" x="30.5" y="-54.75" font-family="Arial" font-size="14.00">node_1</text>
</g>
<!-- node_2 -->
<g id="node2" class="node">
<title>node_2</title>
<path fill="lightgreen" stroke="black" d="M223.25,-121.18C223.25,-121.18 186.25,-121.18 186.25,-121.18 180.25,-121.18 174.25,-115.18 174.25,-109.18 174.25,-109.18 174.25,-97.18 174.25,-97.18 174.25,-91.18 180.25,-85.18 186.25,-85.18 186.25,-85.18 223.25,-85.18 223.25,-85.18 229.25,-85.18 235.25,-91.18 235.25,-97.18 235.25,-97.18 235.25,-109.18 235.25,-109.18 235.25,-115.18 229.25,-121.18 223.25,-121.18"/>
<text xml:space="preserve" text-anchor="middle" x="204.75" y="-97.75" font-family="Arial" font-size="14.00">node_2</text>
</g>
<!-- node_1&#45;&gt;node_2 -->
<g id="edge3" class="edge">
<title>node_1&#45;&gt;node_2</title>
<path fill="none" stroke="black" d="M51.82,-78.47C59.75,-84.55 69.27,-90.66 79,-94.18 105.71,-103.83 137.69,-105.97 162.58,-105.75"/>
<polygon fill="black" stroke="black" points="162.4,-109.26 172.31,-105.53 162.24,-102.26 162.4,-109.26"/>
<text xml:space="preserve" text-anchor="middle" x="117.62" y="-108.19" font-family="Arial" font-size="14.00">messages_2</text>
</g>
<!-- node_3 -->
<g id="node3" class="node">
<title>node_3</title>
<path fill="lightgreen" stroke="black" d="M571.75,-78.18C571.75,-78.18 534.75,-78.18 534.75,-78.18 528.75,-78.18 522.75,-72.18 522.75,-66.18 522.75,-66.18 522.75,-54.18 522.75,-54.18 522.75,-48.18 528.75,-42.18 534.75,-42.18 534.75,-42.18 571.75,-42.18 571.75,-42.18 577.75,-42.18 583.75,-48.18 583.75,-54.18 583.75,-54.18 583.75,-66.18 583.75,-66.18 583.75,-72.18 577.75,-78.18 571.75,-78.18"/>
<text xml:space="preserve" text-anchor="middle" x="553.25" y="-54.75" font-family="Arial" font-size="14.00">node_3</text>
</g>
<!-- node_1&#45;&gt;node_3 -->
<g id="edge5" class="edge">
<title>node_1&#45;&gt;node_3</title>
<path fill="none" stroke="black" d="M61.4,-59.47C67.24,-59.35 73.31,-59.25 79,-59.18 233.88,-57.33 272.61,-58.4 427.5,-58.18 461.83,-58.13 470.42,-57.46 504.75,-58.18 506.8,-58.22 508.89,-58.28 511.01,-58.34"/>
<polygon fill="black" stroke="black" points="510.73,-61.83 520.84,-58.68 510.97,-54.83 510.73,-61.83"/>
<text xml:space="preserve" text-anchor="middle" x="291.88" y="-60.62" font-family="Arial" font-size="14.00">messages_3</text>
</g>
<!-- node_2&#45;&gt;node_1 -->
<g id="edge1" class="edge">
<title>node_2&#45;&gt;node_1</title>
<path fill="none" stroke="black" d="M174,-85.76C168.26,-82.96 162.18,-80.35 156.25,-78.43 129.1,-69.65 97.26,-65.08 72.53,-62.71"/>
<polygon fill="black" stroke="black" points="73.15,-59.25 62.88,-61.87 72.54,-66.22 73.15,-59.25"/>
<text xml:space="preserve" text-anchor="middle" x="117.62" y="-80.88" font-family="Arial" font-size="14.00">messages_1</text>
</g>
<!-- node_4 -->
<g id="node4" class="node">
<title>node_4</title>
<path fill="lightgreen" stroke="black" d="M397.5,-121.18C397.5,-121.18 360.5,-121.18 360.5,-121.18 354.5,-121.18 348.5,-115.18 348.5,-109.18 348.5,-109.18 348.5,-97.18 348.5,-97.18 348.5,-91.18 354.5,-85.18 360.5,-85.18 360.5,-85.18 397.5,-85.18 397.5,-85.18 403.5,-85.18 409.5,-91.18 409.5,-97.18 409.5,-97.18 409.5,-109.18 409.5,-109.18 409.5,-115.18 403.5,-121.18 397.5,-121.18"/>
<text xml:space="preserve" text-anchor="middle" x="379" y="-97.75" font-family="Arial" font-size="14.00">node_4</text>
</g>
<!-- node_2&#45;&gt;node_4 -->
<g id="edge7" class="edge">
<title>node_2&#45;&gt;node_4</title>
<path fill="none" stroke="black" d="M235.36,-103.18C263.34,-103.18 305.56,-103.18 336.81,-103.18"/>
<polygon fill="black" stroke="black" points="336.69,-106.68 346.69,-103.18 336.69,-99.68 336.69,-106.68"/>
<text xml:space="preserve" text-anchor="middle" x="291.88" y="-105.63" font-family="Arial" font-size="14.00">messages_4</text>
</g>
<!-- node_3&#45;&gt;node_1 -->
<g id="edge2" class="edge">
<title>node_3&#45;&gt;node_1</title>
<path fill="none" stroke="black" d="M527.66,-41.86C520.58,-37.38 512.63,-33.05 504.75,-30.18 431.31,-3.42 408.48,-11.72 330.5,-6.43 218.48,1.17 184.49,8.26 79,-30.18 74.57,-31.79 70.11,-33.87 65.8,-36.18"/>
<polygon fill="black" stroke="black" points="64.26,-33.02 57.4,-41.1 67.8,-39.06 64.26,-33.02"/>
<text xml:space="preserve" text-anchor="middle" x="291.88" y="-8.88" font-family="Arial" font-size="14.00">messages_1</text>
</g>
<!-- node_3&#45;&gt;node_4 -->
<g id="edge8" class="edge">
<title>node_3&#45;&gt;node_4</title>
<path fill="none" stroke="black" d="M522.48,-60.03C496.71,-60.73 458.75,-63.76 427.5,-74.43 423.53,-75.79 419.53,-77.51 415.63,-79.45"/>
<polygon fill="black" stroke="black" points="414.05,-76.32 406.96,-84.2 417.41,-82.46 414.05,-76.32"/>
<text xml:space="preserve" text-anchor="middle" x="466.12" y="-76.88" font-family="Arial" font-size="14.00">messages_4</text>
</g>
<!-- node_4&#45;&gt;node_2 -->
<g id="edge4" class="edge">
<title>node_4&#45;&gt;node_2</title>
<path fill="none" stroke="black" d="M348.21,-91.7C342.42,-89.92 336.33,-88.37 330.5,-87.43 296.61,-81.96 287.14,-81.96 253.25,-87.43 251.06,-87.78 248.84,-88.22 246.61,-88.73"/>
<polygon fill="black" stroke="black" points="245.75,-85.33 237,-91.3 247.57,-92.09 245.75,-85.33"/>
<text xml:space="preserve" text-anchor="middle" x="291.88" y="-89.88" font-family="Arial" font-size="14.00">messages_2</text>
</g>
<!-- node_4&#45;&gt;node_3 -->
<g id="edge6" class="edge">
<title>node_4&#45;&gt;node_3</title>
<path fill="none" stroke="black" d="M409.92,-105.49C435.8,-106.46 473.81,-105.36 504.75,-94.18 510.98,-91.93 517.13,-88.61 522.83,-84.92"/>
<polygon fill="black" stroke="black" points="524.55,-87.98 530.69,-79.35 520.51,-82.27 524.55,-87.98"/>
<text xml:space="preserve" text-anchor="middle" x="466.12" y="-108.19" font-family="Arial" font-size="14.00">messages_3</text>
</g>
</g>
</svg>
