<?xml version="1.0" encoding="UTF-8" standalone="no"?>
<!DOCTYPE svg PUBLIC "-//W3C//DTD SVG 1.1//EN"
 "http://www.w3.org/Graphics/SVG/1.1/DTD/svg11.dtd">
<!-- Generated by graphviz version 14.0.4 (20251115.1723)
 -->
<!-- Title: PregelDataflow Pages: 1 -->
<svg width="194pt" height="231pt"
 viewBox="0.00 0.00 194.00 231.00" xmlns="http://www.w3.org/2000/svg" xmlns:xlink="http://www.w3.org/1999/xlink">
<g id="graph0" class="graph" transform="scale(1 1) rotate(0) translate(4 226.5)">
<title>PregelDataflow</title>
<polygon fill="white" stroke="none" points="-4,4 -4,-226.5 190.25,-226.5 190.25,4 -4,4"/>
<text xml:space="preserve" text-anchor="middle" x="93.12" y="-205.2" font-family="Times,serif" font-size="14.00">Parallel Computation Dataflow</text>
<!-- worker_1 -->
<g id="node1" class="node">
<title>worker_1</title>
<path fill="lightgreen" stroke="black" d="M116.88,-36C116.88,-36 69.38,-36 69.38,-36 63.38,-36 57.38,-30 57.38,-24 57.38,-24 57.38,-12 57.38,-12 57.38,-6 63.38,0 69.38,0 69.38,0 116.88,0 116.88,0 122.88,0 128.88,-6 128.88,-12 128.88,-12 128.88,-24 128.88,-24 128.88,-30 122.88,-36 116.88,-36"/>
<text xml:space="preserve" text-anchor="middle" x="93.12" y="-12.57" font-family="Arial" font-size="14.00">worker_1</text>
</g>
<!-- worker_2 -->
<g id="node2" class="node">
<title>worker_2</title>
<path fill="lightgreen" stroke="black" d="M116.88,-90C116.88,-90 69.38,-90 69.38,-90 63.38,-90 57.38,-84 57.38,-78 57.38,-78 57.38,-66 57.38,-66 57.38,-60 63.38,-54 69.38,-54 69.38,-54 116.88,-54 116.88,-54 122.88,-54 128.88,-60 128.88,-66 128.88,-66 128.88,-78 128.88,-78 128.88,-84 122.88,-90 116.88,-90"/>
<text xml:space="preserve" text-anchor="middle" x="93.12" y="-66.58" font-family="Arial" font-size="14.00">worker_2</text>
</g>
<!-- worker_3 -->
<g id="node3" class="node">
<title>worker_3</title>
<path fill="lightgreen" stroke="black" d="M116.88,-144C116.88,-144 69.38,-144 69.38,-144 63.38,-144 57.38,-138 57.38,-132 57.38,-132 57.38,-120 57.38,-120 57.38,-114 63.38,-108 69.38,-108 69.38,-108 116.88,-108 116.88,-108 122.88,-108 128.88,-114 128.88,-120 128.88,-120 128.88,-132 128.88,-132 128.88,-138 122.88,-144 116.88,-144"/>
<text xml:space="preserve" text-anchor="middle" x="93.12" y="-120.58" font-family="Arial" font-size="14.00">worker_3</text>
</g>
<!-- worker_4 -->
<g id="node4" class="node">
<title>worker_4</title>
<path fill="lightgreen" stroke="black" d="M116.88,-198C116.88,-198 69.38,-198 69.38,-198 63.38,-198 57.38,-192 57.38,-186 57.38,-186 57.38,-174 57.38,-174 57.38,-168 63.38,-162 69.38,-162 69.38,-162 116.88,-162 116.88,-162 122.88,-162 128.88,-168 128.88,-174 128.88,-174 128.88,-186 128.88,-186 128.88,-192 122.88,-198 116.88,-198"/>
<text xml:space="preserve" text-anchor="middle" x="93.12" y="-174.57" font-family="Arial" font-size="14.00">worker_4</text>
</g>
</g>
</svg>
