<?xml version="1.0" encoding="UTF-8" standalone="no"?>
<!DOCTYPE svg PUBLIC "-//W3C//DTD SVG 1.1//EN"
 "http://www.w3.org/Graphics/SVG/1.1/DTD/svg11.dtd">
<!-- Generated by graphviz version 14.0.4 (20251115.1723)
 -->
<!-- Title: PregelGraph Pages: 1 -->
<svg width="631pt" height="495pt"
 viewBox="0.00 0.00 631.00 495.00" xmlns="http://www.w3.org/2000/svg" xmlns:xlink="http://www.w3.org/1999/xlink">
<g id="graph0" class="graph" transform="scale(1 1) rotate(0) translate(4 490.64)">
<title>PregelGraph</title>
<polygon fill="white" stroke="none" points="-4,4 -4,-490.64 626.85,-490.64 626.85,4 -4,4"/>
<text xml:space="preserve" text-anchor="middle" x="311.42" y="-469.34" font-family="Times,serif" font-size="14.00">Parallel Computation Graph</text>
<!-- ch_data_source -->
<g id="node1" class="node">
<title>ch_data_source</title>
<ellipse fill="lightblue" stroke="black" cx="127.99" cy="-214.07" rx="127.99" ry="39.07"/>
<text xml:space="preserve" text-anchor="middle" x="127.99" y="-224.39" font-family="Arial" font-size="14.00">data_source</text>
<text xml:space="preserve" text-anchor="middle" x="127.99" y="-208.64" font-family="Arial" font-size="14.00">[LastValue]</text>
<text xml:space="preserve" text-anchor="middle" x="127.99" y="-192.89" font-family="Arial" font-size="14.00">[1, 2, 3, 4, 5, 6, 7, 8, 9, 10...</text>
</g>
<!-- node_worker_1 -->
<g id="node7" class="node">
<title>node_worker_1</title>
<path fill="lightgreen" stroke="black" d="M371.22,-271.82C371.22,-271.82 304.97,-271.82 304.97,-271.82 298.97,-271.82 292.97,-265.82 292.97,-259.82 292.97,-259.82 292.97,-244.32 292.97,-244.32 292.97,-238.32 298.97,-232.32 304.97,-232.32 304.97,-232.32 371.22,-232.32 371.22,-232.32 377.22,-232.32 383.22,-238.32 383.22,-244.32 383.22,-244.32 383.22,-259.82 383.22,-259.82 383.22,-265.82 377.22,-271.82 371.22,-271.82"/>
<text xml:space="preserve" text-anchor="middle" x="338.1" y="-254.52" font-family="Arial" font-size="14.00">worker_1</text>
<text xml:space="preserve" text-anchor="middle" x="338.1" y="-238.77" font-family="Arial" font-size="14.00">(succeeded)</text>
</g>
<!-- ch_data_source&#45;&gt;node_worker_1 -->
<g id="edge1" class="edge">
<title>ch_data_source&#45;&gt;node_worker_1</title>
<path fill="none" stroke="blue" stroke-dasharray="5,2" d="M238.53,-234.07C253.52,-236.81 268.36,-239.52 281.8,-241.97"/>
<polygon fill="blue" stroke="blue" points="280.78,-245.34 291.25,-243.7 282.04,-238.46 280.78,-245.34"/>
</g>
<!-- node_worker_2 -->
<g id="node8" class="node">
<title>node_worker_2</title>
<path fill="lightgreen" stroke="black" d="M371.22,-370.82C371.22,-370.82 304.97,-370.82 304.97,-370.82 298.97,-370.82 292.97,-364.82 292.97,-358.82 292.97,-358.82 292.97,-343.32 292.97,-343.32 292.97,-337.32 298.97,-331.32 304.97,-331.32 304.97,-331.32 371.22,-331.32 371.22,-331.32 377.22,-331.32 383.22,-337.32 383.22,-343.32 383.22,-343.32 383.22,-358.82 383.22,-358.82 383.22,-364.82 377.22,-370.82 371.22,-370.82"/>
<text xml:space="preserve" text-anchor="middle" x="338.1" y="-353.52" font-family="Arial" font-size="14.00">worker_2</text>
<text xml:space="preserve" text-anchor="middle" x="338.1" y="-337.77" font-family="Arial" font-size="14.00">(succeeded)</text>
</g>
<!-- ch_data_source&#45;&gt;node_worker_2 -->
<g id="edge2" class="edge">
<title>ch_data_source&#45;&gt;node_worker_2</title>
<path fill="none" stroke="blue" stroke-dasharray="5,2" d="M183.12,-249.71C218.7,-273.13 264.49,-303.27 296.86,-324.58"/>
<polygon fill="blue" stroke="blue" points="294.9,-327.48 305.18,-330.06 298.75,-321.63 294.9,-327.48"/>
</g>
<!-- node_worker_3 -->
<g id="node9" class="node">
<title>node_worker_3</title>
<path fill="lightgreen" stroke="black" d="M371.22,-134.82C371.22,-134.82 304.97,-134.82 304.97,-134.82 298.97,-134.82 292.97,-128.82 292.97,-122.82 292.97,-122.82 292.97,-107.32 292.97,-107.32 292.97,-101.32 298.97,-95.32 304.97,-95.32 304.97,-95.32 371.22,-95.32 371.22,-95.32 377.22,-95.32 383.22,-101.32 383.22,-107.32 383.22,-107.32 383.22,-122.82 383.22,-122.82 383.22,-128.82 377.22,-134.82 371.22,-134.82"/>
<text xml:space="preserve" text-anchor="middle" x="338.1" y="-117.52" font-family="Arial" font-size="14.00">worker_3</text>
<text xml:space="preserve" text-anchor="middle" x="338.1" y="-101.77" font-family="Arial" font-size="14.00">(succeeded)</text>
</g>
<!-- ch_data_source&#45;&gt;node_worker_3 -->
<g id="edge3" class="edge">
<title>ch_data_source&#45;&gt;node_worker_3</title>
<path fill="none" stroke="blue" stroke-dasharray="5,2" d="M198.28,-181.1C226.47,-167.69 258.5,-152.46 284.68,-140"/>
<polygon fill="blue" stroke="blue" points="285.88,-143.31 293.41,-135.85 282.87,-136.99 285.88,-143.31"/>
</g>
<!-- node_worker_4 -->
<g id="node10" class="node">
<title>node_worker_4</title>
<path fill="lightgreen" stroke="black" d="M371.22,-213.82C371.22,-213.82 304.97,-213.82 304.97,-213.82 298.97,-213.82 292.97,-207.82 292.97,-201.82 292.97,-201.82 292.97,-186.32 292.97,-186.32 292.97,-180.32 298.97,-174.32 304.97,-174.32 304.97,-174.32 371.22,-174.32 371.22,-174.32 377.22,-174.32 383.22,-180.32 383.22,-186.32 383.22,-186.32 383.22,-201.82 383.22,-201.82 383.22,-207.82 377.22,-213.82 371.22,-213.82"/>
<text xml:space="preserve" text-anchor="middle" x="338.1" y="-196.52" font-family="Arial" font-size="14.00">worker_4</text>
<text xml:space="preserve" text-anchor="middle" x="338.1" y="-180.77" font-family="Arial" font-size="14.00">(succeeded)</text>
</g>
<!-- ch_data_source&#45;&gt;node_worker_4 -->
<g id="edge4" class="edge">
<title>ch_data_source&#45;&gt;node_worker_4</title>
<path fill="none" stroke="blue" stroke-dasharray="5,2" d="M250.65,-202.38C261.27,-201.35 271.64,-200.36 281.3,-199.43"/>
<polygon fill="blue" stroke="blue" points="281.57,-202.92 291.19,-198.48 280.9,-195.95 281.57,-202.92"/>
</g>
<!-- ch_worker_1_out -->
<g id="node2" class="node">
<title>ch_worker_1_out</title>
<ellipse fill="lightblue" stroke="black" cx="539.41" cy="-327.07" rx="69.12" ry="39.07"/>
<text xml:space="preserve" text-anchor="middle" x="539.41" y="-337.39" font-family="Arial" font-size="14.00">worker_1_out</text>
<text xml:space="preserve" text-anchor="middle" x="539.41" y="-321.64" font-family="Arial" font-size="14.00">[LastValue]</text>
<text xml:space="preserve" text-anchor="middle" x="539.41" y="-305.89" font-family="Arial" font-size="14.00">[1, 2, 3]</text>
</g>
<!-- ch_worker_2_out -->
<g id="node3" class="node">
<title>ch_worker_2_out</title>
<ellipse fill="lightblue" stroke="black" cx="539.41" cy="-423.07" rx="69.12" ry="39.07"/>
<text xml:space="preserve" text-anchor="middle" x="539.41" y="-433.39" font-family="Arial" font-size="14.00">worker_2_out</text>
<text xml:space="preserve" text-anchor="middle" x="539.41" y="-417.64" font-family="Arial" font-size="14.00">[LastValue]</text>
<text xml:space="preserve" text-anchor="middle" x="539.41" y="-401.89" font-family="Arial" font-size="14.00">[4, 5, 6]</text>
</g>
<!-- ch_worker_3_out -->
<g id="node4" class="node">
<title>ch_worker_3_out</title>
<ellipse fill="lightblue" stroke="black" cx="539.41" cy="-39.07" rx="69.12" ry="39.07"/>
<text xml:space="preserve" text-anchor="middle" x="539.41" y="-49.39" font-family="Arial" font-size="14.00">worker_3_out</text>
<text xml:space="preserve" text-anchor="middle" x="539.41" y="-33.64" font-family="Arial" font-size="14.00">[LastValue]</text>
<text xml:space="preserve" text-anchor="middle" x="539.41" y="-17.89" font-family="Arial" font-size="14.00">[7, 8]</text>
</g>
<!-- ch_worker_4_out -->
<g id="node5" class="node">
<title>ch_worker_4_out</title>
<ellipse fill="lightblue" stroke="black" cx="539.41" cy="-135.07" rx="69.12" ry="39.07"/>
<text xml:space="preserve" text-anchor="middle" x="539.41" y="-145.39" font-family="Arial" font-size="14.00">worker_4_out</text>
<text xml:space="preserve" text-anchor="middle" x="539.41" y="-129.64" font-family="Arial" font-size="14.00">[LastValue]</text>
<text xml:space="preserve" text-anchor="middle" x="539.41" y="-113.89" font-family="Arial" font-size="14.00">[9, 10]</text>
</g>
<!-- ch_aggregated_sum -->
<g id="node6" class="node">
<title>ch_aggregated_sum</title>
<ellipse fill="lightgreen" stroke="black" cx="539.41" cy="-231.07" rx="83.44" ry="39.07"/>
<text xml:space="preserve" text-anchor="middle" x="539.41" y="-241.39" font-family="Arial" font-size="14.00">aggregated_sum</text>
<text xml:space="preserve" text-anchor="middle" x="539.41" y="-225.64" font-family="Arial" font-size="14.00">[BinaryOperator]</text>
<text xml:space="preserve" text-anchor="middle" x="539.41" y="-209.89" font-family="Arial" font-size="14.00">110</text>
</g>
<!-- node_worker_1&#45;&gt;ch_worker_1_out -->
<g id="edge5" class="edge">
<title>node_worker_1&#45;&gt;ch_worker_1_out</title>
<path fill="none" stroke="green" d="M383.33,-268.71C409.07,-278.4 442.04,-290.81 470.96,-301.69"/>
<polygon fill="green" stroke="green" points="469.4,-304.84 480,-305.09 471.87,-298.29 469.4,-304.84"/>
<text xml:space="preserve" text-anchor="middle" x="419.6" y="-289.77" font-family="Arial" font-size="14.00">result</text>
</g>
<!-- node_worker_1&#45;&gt;ch_aggregated_sum -->
<g id="edge6" class="edge">
<title>node_worker_1&#45;&gt;ch_aggregated_sum</title>
<path fill="none" stroke="green" d="M383.33,-247.41C401.99,-245.44 424.44,-243.08 446.39,-240.76"/>
<polygon fill="green" stroke="green" points="446.72,-244.25 456.3,-239.72 445.99,-237.29 446.72,-244.25"/>
<text xml:space="preserve" text-anchor="middle" x="419.6" y="-247.73" font-family="Arial" font-size="14.00">partial</text>
</g>
<!-- node_worker_2&#45;&gt;ch_worker_2_out -->
<g id="edge7" class="edge">
<title>node_worker_2&#45;&gt;ch_worker_2_out</title>
<path fill="none" stroke="green" d="M383.33,-367.05C408.76,-376.23 441.24,-387.96 469.9,-398.32"/>
<polygon fill="green" stroke="green" points="468.65,-401.59 479.25,-401.69 471.03,-395.01 468.65,-401.59"/>
<text xml:space="preserve" text-anchor="middle" x="419.6" y="-387.36" font-family="Arial" font-size="14.00">result</text>
</g>
<!-- node_worker_2&#45;&gt;ch_aggregated_sum -->
<g id="edge8" class="edge">
<title>node_worker_2&#45;&gt;ch_aggregated_sum</title>
<path fill="none" stroke="green" d="M383.59,-337.59C401.83,-330.54 422.29,-320.53 437.97,-307.07 449.2,-297.43 445.28,-289.3 455.97,-279.07 460.92,-274.33 466.42,-269.88 472.16,-265.73"/>
<polygon fill="green" stroke="green" points="473.8,-268.85 480.1,-260.33 469.86,-263.06 473.8,-268.85"/>
<text xml:space="preserve" text-anchor="middle" x="419.6" y="-331.57" font-family="Arial" font-size="14.00">partial</text>
</g>
<!-- node_worker_3&#45;&gt;ch_worker_3_out -->
<g id="edge9" class="edge">
<title>node_worker_3&#45;&gt;ch_worker_3_out</title>
<path fill="none" stroke="green" d="M368.54,-94.91C378.59,-88.65 390.11,-82.14 401.22,-77.32 420.84,-68.82 442.85,-61.69 463.41,-55.99"/>
<polygon fill="green" stroke="green" points="464.12,-59.42 472.87,-53.44 462.3,-52.66 464.12,-59.42"/>
<text xml:space="preserve" text-anchor="middle" x="419.6" y="-79.77" font-family="Arial" font-size="14.00">result</text>
</g>
<!-- node_worker_3&#45;&gt;ch_aggregated_sum -->
<g id="edge10" class="edge">
<title>node_worker_3&#45;&gt;ch_aggregated_sum</title>
<path fill="none" stroke="green" d="M383.25,-121.12C401.86,-125.54 422.69,-133.16 437.97,-146.32 451.76,-158.18 443.58,-169.75 455.97,-183.07 460.45,-187.88 465.53,-192.36 470.91,-196.49"/>
<polygon fill="green" stroke="green" points="468.78,-199.27 478.96,-202.22 472.84,-193.57 468.78,-199.27"/>
<text xml:space="preserve" text-anchor="middle" x="419.6" y="-148.77" font-family="Arial" font-size="14.00">partial</text>
</g>
<!-- node_worker_4&#45;&gt;ch_worker_4_out -->
<g id="edge11" class="edge">
<title>node_worker_4&#45;&gt;ch_worker_4_out</title>
<path fill="none" stroke="green" d="M383.33,-180.97C407.83,-173.72 438.89,-164.53 466.76,-156.28"/>
<polygon fill="green" stroke="green" points="467.63,-159.67 476.22,-153.48 465.64,-152.96 467.63,-159.67"/>
<text xml:space="preserve" text-anchor="middle" x="419.6" y="-177.43" font-family="Arial" font-size="14.00">result</text>
</g>
<!-- node_worker_4&#45;&gt;ch_aggregated_sum -->
<g id="edge12" class="edge">
<title>node_worker_4&#45;&gt;ch_aggregated_sum</title>
<path fill="none" stroke="green" d="M383.33,-202.28C403.04,-205.94 427,-210.39 450.12,-214.68"/>
<polygon fill="green" stroke="green" points="449.43,-218.11 459.9,-216.49 450.71,-211.23 449.43,-218.11"/>
<text xml:space="preserve" text-anchor="middle" x="419.6" y="-213.91" font-family="Arial" font-size="14.00">partial</text>
</g>
</g>
</svg>
