<?xml version="1.0" encoding="UTF-8" standalone="no"?>
<!DOCTYPE svg PUBLIC "-//W3C//DTD SVG 1.1//EN"
 "http://www.w3.org/Graphics/SVG/1.1/DTD/svg11.dtd">
<!-- Generated by graphviz version 14.0.4 (20251115.1723)
 -->
<!-- Title: PregelDataflow Pages: 1 -->
<svg width="410pt" height="105pt"
 viewBox="0.00 0.00 410.00 105.00" xmlns="http://www.w3.org/2000/svg" xmlns:xlink="http://www.w3.org/1999/xlink">
<g id="graph0" class="graph" transform="scale(1 1) rotate(0) translate(4 101.14)">
<title>PregelDataflow</title>
<polygon fill="white" stroke="none" points="-4,4 -4,-101.14 405.75,-101.14 405.75,4 -4,4"/>
<text xml:space="preserve" text-anchor="middle" x="200.88" y="-79.84" font-family="Times,serif" font-size="14.00">Iterative Propagation Dataflow</text>
<!-- node_a -->
<g id="node1" class="node">
<title>node_a</title>
<path fill="lightgreen" stroke="black" d="M49,-53C49,-53 12,-53 12,-53 6,-53 0,-47 0,-41 0,-41 0,-29 0,-29 0,-23 6,-17 12,-17 12,-17 49,-17 49,-17 55,-17 61,-23 61,-29 61,-29 61,-41 61,-41 61,-47 55,-53 49,-53"/>
<text xml:space="preserve" text-anchor="middle" x="30.5" y="-29.57" font-family="Arial" font-size="14.00">node_a</text>
</g>
<!-- node_b -->
<g id="node2" class="node">
<title>node_b</title>
<path fill="lightgreen" stroke="black" d="M220.12,-72C220.12,-72 183.12,-72 183.12,-72 177.12,-72 171.12,-66 171.12,-60 171.12,-60 171.12,-48 171.12,-48 171.12,-42 177.12,-36 183.12,-36 183.12,-36 220.12,-36 220.12,-36 226.12,-36 232.12,-42 232.12,-48 232.12,-48 232.12,-60 232.12,-60 232.12,-66 226.12,-72 220.12,-72"/>
<text xml:space="preserve" text-anchor="middle" x="201.62" y="-48.58" font-family="Arial" font-size="14.00">node_b</text>
</g>
<!-- node_a&#45;&gt;node_b -->
<g id="edge3" class="edge">
<title>node_a&#45;&gt;node_b</title>
<path fill="none" stroke="black" d="M61.25,-47.31C67.04,-49.23 73.14,-50.93 79,-52 105.48,-56.82 135.75,-57.34 159.46,-56.64"/>
<polygon fill="black" stroke="black" points="159.5,-60.14 169.36,-56.26 159.23,-53.15 159.5,-60.14"/>
<text xml:space="preserve" text-anchor="middle" x="113.88" y="-59.34" font-family="Arial" font-size="14.00">node_b_val</text>
</g>
<!-- node_b&#45;&gt;node_a -->
<g id="edge2" class="edge">
<title>node_b&#45;&gt;node_a</title>
<path fill="none" stroke="black" d="M170.88,-42.01C163.74,-39.65 156.07,-37.51 148.75,-36.25 123.64,-31.93 95.05,-31.54 72.39,-32.26"/>
<polygon fill="black" stroke="black" points="72.49,-28.76 62.64,-32.67 72.78,-35.75 72.49,-28.76"/>
<text xml:space="preserve" text-anchor="middle" x="113.88" y="-38.7" font-family="Arial" font-size="14.00">node_c_val</text>
</g>
<!-- node_c -->
<g id="node3" class="node">
<title>node_c</title>
<path fill="lightgreen" stroke="black" d="M389.75,-36C389.75,-36 353.5,-36 353.5,-36 347.5,-36 341.5,-30 341.5,-24 341.5,-24 341.5,-12 341.5,-12 341.5,-6 347.5,0 353.5,0 353.5,0 389.75,0 389.75,0 395.75,0 401.75,-6 401.75,-12 401.75,-12 401.75,-24 401.75,-24 401.75,-30 395.75,-36 389.75,-36"/>
<text xml:space="preserve" text-anchor="middle" x="371.62" y="-12.57" font-family="Arial" font-size="14.00">node_c</text>
</g>
<!-- node_b&#45;&gt;node_c -->
<g id="edge4" class="edge">
<title>node_b&#45;&gt;node_c</title>
<path fill="none" stroke="black" d="M232.27,-47.65C259.5,-41.81 300.09,-33.12 330.27,-26.65"/>
<polygon fill="black" stroke="black" points="330.75,-30.12 339.79,-24.61 329.28,-23.28 330.75,-30.12"/>
<text xml:space="preserve" text-anchor="middle" x="289" y="-44.81" font-family="Arial" font-size="14.00">node_c_val</text>
</g>
<!-- node_c&#45;&gt;node_a -->
<g id="edge1" class="edge">
<title>node_c&#45;&gt;node_a</title>
<path fill="none" stroke="black" d="M341.19,-14.82C301.51,-11.03 228.67,-5.85 166.75,-11.25 134.89,-14.03 99.28,-20.41 72.6,-25.87"/>
<polygon fill="black" stroke="black" points="71.94,-22.43 62.87,-27.9 73.37,-29.28 71.94,-22.43"/>
<text xml:space="preserve" text-anchor="middle" x="201.62" y="-13.7" font-family="Arial" font-size="14.00">node_a_val</text>
</g>
</g>
</svg>
