<?xml version="1.0" encoding="UTF-8" standalone="no"?>
<!DOCTYPE svg PUBLIC "-//W3C//DTD SVG 1.1//EN"
 "http://www.w3.org/Graphics/SVG/1.1/DTD/svg11.dtd">
<!-- Generated by graphviz version 14.0.4 (20251115.1723)
 -->
<!-- Title: PregelGraph Pages: 1 -->
<svg width="922pt" height="293pt"
 viewBox="0.00 0.00 922.00 293.00" xmlns="http://www.w3.org/2000/svg" xmlns:xlink="http://www.w3.org/1999/xlink">
<g id="graph0" class="graph" transform="scale(1 1) rotate(0) translate(4 289.43)">
<title>PregelGraph</title>
<polygon fill="white" stroke="none" points="-4,4 -4,-289.43 918.17,-289.43 918.17,4 -4,4"/>
<text xml:space="preserve" text-anchor="middle" x="457.09" y="-268.13" font-family="Times,serif" font-size="14.00">Iterative Propagation Graph</text>
<!-- ch_node_a_val -->
<g id="node1" class="node">
<title>ch_node_a_val</title>
<ellipse fill="lightblue" stroke="black" cx="60.63" cy="-39.07" rx="60.63" ry="39.07"/>
<text xml:space="preserve" text-anchor="middle" x="60.63" y="-49.39" font-family="Arial" font-size="14.00">node_a_val</text>
<text xml:space="preserve" text-anchor="middle" x="60.63" y="-33.64" font-family="Arial" font-size="14.00">[LastValue]</text>
<text xml:space="preserve" text-anchor="middle" x="60.63" y="-17.89" font-family="Arial" font-size="14.00">59</text>
</g>
<!-- node_node_a -->
<g id="node5" class="node">
<title>node_node_a</title>
<path fill="lightgreen" stroke="black" d="M236.52,-161.82C236.52,-161.82 170.27,-161.82 170.27,-161.82 164.27,-161.82 158.27,-155.82 158.27,-149.82 158.27,-149.82 158.27,-134.32 158.27,-134.32 158.27,-128.32 164.27,-122.32 170.27,-122.32 170.27,-122.32 236.52,-122.32 236.52,-122.32 242.52,-122.32 248.52,-128.32 248.52,-134.32 248.52,-134.32 248.52,-149.82 248.52,-149.82 248.52,-155.82 242.52,-161.82 236.52,-161.82"/>
<text xml:space="preserve" text-anchor="middle" x="203.39" y="-144.52" font-family="Arial" font-size="14.00">node_a</text>
<text xml:space="preserve" text-anchor="middle" x="203.39" y="-128.77" font-family="Arial" font-size="14.00">(succeeded)</text>
</g>
<!-- ch_node_a_val&#45;&gt;node_node_a -->
<g id="edge1" class="edge">
<title>ch_node_a_val&#45;&gt;node_node_a</title>
<path fill="none" stroke="blue" stroke-dasharray="5,2" d="M101.59,-68.31C121.71,-83.03 145.93,-100.75 165.59,-115.14"/>
<polygon fill="blue" stroke="blue" points="163.48,-117.93 173.61,-121.01 167.61,-112.28 163.48,-117.93"/>
</g>
<!-- ch_node_b_val -->
<g id="node2" class="node">
<title>ch_node_b_val</title>
<ellipse fill="lightblue" stroke="black" cx="385.12" cy="-190.07" rx="60.63" ry="39.07"/>
<text xml:space="preserve" text-anchor="middle" x="385.12" y="-200.39" font-family="Arial" font-size="14.00">node_b_val</text>
<text xml:space="preserve" text-anchor="middle" x="385.12" y="-184.64" font-family="Arial" font-size="14.00">[LastValue]</text>
<text xml:space="preserve" text-anchor="middle" x="385.12" y="-168.89" font-family="Arial" font-size="14.00">93</text>
</g>
<!-- node_node_b -->
<g id="node6" class="node">
<title>node_node_b</title>
<path fill="lightgreen" stroke="black" d="M599.96,-209.82C599.96,-209.82 533.71,-209.82 533.71,-209.82 527.71,-209.82 521.71,-203.82 521.71,-197.82 521.71,-197.82 521.71,-182.32 521.71,-182.32 521.71,-176.32 527.71,-170.32 533.71,-170.32 533.71,-170.32 599.96,-170.32 599.96,-170.32 605.96,-170.32 611.96,-176.32 611.96,-182.32 611.96,-182.32 611.96,-197.82 611.96,-197.82 611.96,-203.82 605.96,-209.82 599.96,-209.82"/>
<text xml:space="preserve" text-anchor="middle" x="566.84" y="-192.52" font-family="Arial" font-size="14.00">node_b</text>
<text xml:space="preserve" text-anchor="middle" x="566.84" y="-176.77" font-family="Arial" font-size="14.00">(succeeded)</text>
</g>
<!-- ch_node_b_val&#45;&gt;node_node_b -->
<g id="edge3" class="edge">
<title>ch_node_b_val&#45;&gt;node_node_b</title>
<path fill="none" stroke="blue" stroke-dasharray="5,2" d="M445.96,-190.07C466.63,-190.07 489.69,-190.07 510.02,-190.07"/>
<polygon fill="blue" stroke="blue" points="509.81,-193.57 519.81,-190.07 509.81,-186.57 509.81,-193.57"/>
</g>
<!-- ch_node_c_val -->
<g id="node3" class="node">
<title>ch_node_c_val</title>
<ellipse fill="lightblue" stroke="black" cx="726.82" cy="-190.07" rx="60.1" ry="39.07"/>
<text xml:space="preserve" text-anchor="middle" x="726.82" y="-200.39" font-family="Arial" font-size="14.00">node_c_val</text>
<text xml:space="preserve" text-anchor="middle" x="726.82" y="-184.64" font-family="Arial" font-size="14.00">[LastValue]</text>
<text xml:space="preserve" text-anchor="middle" x="726.82" y="-168.89" font-family="Arial" font-size="14.00">186</text>
</g>
<!-- ch_node_c_val&#45;&gt;node_node_a -->
<g id="edge2" class="edge">
<title>ch_node_c_val&#45;&gt;node_node_a</title>
<path fill="none" stroke="blue" stroke-dasharray="5,2" d="M675.55,-210.94C594.15,-241.48 429.84,-289.41 303.27,-238.07 270.14,-224.63 242,-194.18 224.31,-171.15"/>
<polygon fill="blue" stroke="blue" points="227.28,-169.28 218.51,-163.33 221.66,-173.45 227.28,-169.28"/>
</g>
<!-- node_node_c -->
<g id="node7" class="node">
<title>node_node_c</title>
<path fill="lightgreen" stroke="black" d="M902.17,-58.82C902.17,-58.82 835.92,-58.82 835.92,-58.82 829.92,-58.82 823.92,-52.82 823.92,-46.82 823.92,-46.82 823.92,-31.32 823.92,-31.32 823.92,-25.32 829.92,-19.32 835.92,-19.32 835.92,-19.32 902.17,-19.32 902.17,-19.32 908.17,-19.32 914.17,-25.32 914.17,-31.32 914.17,-31.32 914.17,-46.82 914.17,-46.82 914.17,-52.82 908.17,-58.82 902.17,-58.82"/>
<text xml:space="preserve" text-anchor="middle" x="869.05" y="-41.52" font-family="Arial" font-size="14.00">node_c</text>
<text xml:space="preserve" text-anchor="middle" x="869.05" y="-25.77" font-family="Arial" font-size="14.00">(succeeded)</text>
</g>
<!-- ch_node_c_val&#45;&gt;node_node_c -->
<g id="edge4" class="edge">
<title>ch_node_c_val&#45;&gt;node_node_c</title>
<path fill="none" stroke="blue" stroke-dasharray="5,2" d="M758.94,-156.56C783.77,-129.82 818.16,-92.78 841.66,-67.48"/>
<polygon fill="blue" stroke="blue" points="844.21,-69.88 848.45,-60.17 839.08,-65.12 844.21,-69.88"/>
</g>
<!-- ch_iteration_count -->
<g id="node4" class="node">
<title>ch_iteration_count</title>
<ellipse fill="lightgreen" stroke="black" cx="385.12" cy="-94.07" rx="81.85" ry="39.07"/>
<text xml:space="preserve" text-anchor="middle" x="385.12" y="-104.39" font-family="Arial" font-size="14.00">iteration_count</text>
<text xml:space="preserve" text-anchor="middle" x="385.12" y="-88.64" font-family="Arial" font-size="14.00">[BinaryOperator]</text>
<text xml:space="preserve" text-anchor="middle" x="385.12" y="-72.89" font-family="Arial" font-size="14.00">8</text>
</g>
<!-- node_node_a&#45;&gt;ch_node_b_val -->
<g id="edge5" class="edge">
<title>node_node_a&#45;&gt;ch_node_b_val</title>
<path fill="none" stroke="green" d="M248.82,-153.93C269.54,-159.47 294.64,-166.17 317.57,-172.29"/>
<polygon fill="green" stroke="green" points="316.59,-175.66 327.16,-174.86 318.4,-168.89 316.59,-175.66"/>
<text xml:space="preserve" text-anchor="middle" x="275.89" y="-165.64" font-family="Arial" font-size="14.00">out</text>
</g>
<!-- node_node_a&#45;&gt;ch_iteration_count -->
<g id="edge6" class="edge">
<title>node_node_a&#45;&gt;ch_iteration_count</title>
<path fill="none" stroke="green" d="M248.82,-130.2C264.91,-125.91 283.63,-120.91 301.92,-116.02"/>
<polygon fill="green" stroke="green" points="302.71,-119.43 311.47,-113.47 300.9,-112.67 302.71,-119.43"/>
<text xml:space="preserve" text-anchor="middle" x="275.89" y="-127.62" font-family="Arial" font-size="14.00">iter</text>
</g>
<!-- node_node_b&#45;&gt;ch_node_c_val -->
<g id="edge7" class="edge">
<title>node_node_b&#45;&gt;ch_node_c_val</title>
<path fill="none" stroke="green" d="M612.27,-190.07C625.52,-190.07 640.38,-190.07 654.88,-190.07"/>
<polygon fill="green" stroke="green" points="654.88,-193.57 664.88,-190.07 654.88,-186.57 654.88,-193.57"/>
<text xml:space="preserve" text-anchor="middle" x="639.34" y="-192.52" font-family="Arial" font-size="14.00">out</text>
</g>
<!-- node_node_c&#45;&gt;ch_node_a_val -->
<g id="edge8" class="edge">
<title>node_node_c&#45;&gt;ch_node_a_val</title>
<path fill="none" stroke="green" d="M823.61,-33.31C796.07,-30.23 759.95,-27.07 727.82,-27.07 202.39,-27.07 202.39,-27.07 202.39,-27.07 179.31,-27.07 154.18,-28.69 131.63,-30.74"/>
<polygon fill="green" stroke="green" points="131.56,-27.23 121.94,-31.67 132.23,-34.2 131.56,-27.23"/>
<text xml:space="preserve" text-anchor="middle" x="494.34" y="-29.52" font-family="Arial" font-size="14.00">out</text>
</g>
</g>
</svg>
